<svg width="6279" height="3172" viewBox="0 0 6279 3172" fill="none" xmlns="http://www.w3.org/2000/svg">
<path d="M1136 1304H1786V1647H1136V1304Z" fill="#34BFD2"/>
<rect x="4685" y="577" width="650" height="343" fill="#ADC4C7"/>
<rect x="5629" y="1299" width="650" height="343" fill="#ADC4C7"/>
<path d="M5944.06 1479H5934.69L5916.44 1449.06V1479H5907.06V1433.5H5916.44L5934.72 1463.5V1433.5H5944.06V1479ZM5971.25 1479C5970.83 1478.19 5970.53 1477.18 5970.34 1475.97C5968.16 1478.41 5965.31 1479.62 5961.81 1479.62C5958.5 1479.62 5955.75 1478.67 5953.56 1476.75C5951.4 1474.83 5950.31 1472.42 5950.31 1469.5C5950.31 1465.92 5951.64 1463.17 5954.28 1461.25C5956.95 1459.33 5960.79 1458.36 5965.81 1458.34H5969.97V1456.41C5969.97 1454.84 5969.56 1453.59 5968.75 1452.66C5967.96 1451.72 5966.7 1451.25 5964.97 1451.25C5963.45 1451.25 5962.25 1451.61 5961.38 1452.34C5960.52 1453.07 5960.09 1454.07 5960.09 1455.34H5951.06C5951.06 1453.39 5951.67 1451.57 5952.88 1449.91C5954.08 1448.24 5955.79 1446.94 5958 1446C5960.21 1445.04 5962.69 1444.56 5965.44 1444.56C5969.6 1444.56 5972.91 1445.61 5975.34 1447.72C5977.8 1449.8 5979.03 1452.74 5979.03 1456.53V1471.19C5979.05 1474.4 5979.5 1476.82 5980.38 1478.47V1479H5971.25ZM5963.78 1472.72C5965.11 1472.72 5966.34 1472.43 5967.47 1471.84C5968.59 1471.24 5969.43 1470.44 5969.97 1469.44V1463.62H5966.59C5962.07 1463.62 5959.67 1465.19 5959.38 1468.31L5959.34 1468.84C5959.34 1469.97 5959.74 1470.9 5960.53 1471.62C5961.32 1472.35 5962.41 1472.72 5963.78 1472.72ZM5998.12 1467.97L6004.41 1445.19H6013.84L6002.44 1479H5993.81L5982.41 1445.19H5991.84L5998.12 1467.97ZM6048.31 1462.41C6048.31 1467.82 6047.16 1472.05 6044.84 1475.09C6042.53 1478.11 6039.3 1479.62 6035.16 1479.62C6031.49 1479.62 6028.56 1478.22 6026.38 1475.41L6025.97 1479H6017.84V1431H6026.88V1448.22C6028.96 1445.78 6031.7 1444.56 6035.09 1444.56C6039.22 1444.56 6042.45 1446.08 6044.78 1449.12C6047.14 1452.15 6048.31 1456.41 6048.31 1461.91V1462.41ZM6039.28 1461.75C6039.28 1458.33 6038.74 1455.84 6037.66 1454.28C6036.57 1452.7 6034.96 1451.91 6032.81 1451.91C6029.94 1451.91 6027.96 1453.08 6026.88 1455.44V1468.78C6027.98 1471.16 6029.98 1472.34 6032.88 1472.34C6035.79 1472.34 6037.71 1470.91 6038.62 1468.03C6039.06 1466.66 6039.28 1464.56 6039.28 1461.75ZM6073.5 1479C6073.08 1478.19 6072.78 1477.18 6072.59 1475.97C6070.41 1478.41 6067.56 1479.62 6064.06 1479.62C6060.75 1479.62 6058 1478.67 6055.81 1476.75C6053.65 1474.83 6052.56 1472.42 6052.56 1469.5C6052.56 1465.92 6053.89 1463.17 6056.53 1461.25C6059.2 1459.33 6063.04 1458.36 6068.06 1458.34H6072.22V1456.41C6072.22 1454.84 6071.81 1453.59 6071 1452.66C6070.21 1451.72 6068.95 1451.25 6067.22 1451.25C6065.7 1451.25 6064.5 1451.61 6063.62 1452.34C6062.77 1453.07 6062.34 1454.07 6062.34 1455.34H6053.31C6053.31 1453.39 6053.92 1451.57 6055.12 1449.91C6056.33 1448.24 6058.04 1446.94 6060.25 1446C6062.46 1445.04 6064.94 1444.56 6067.69 1444.56C6071.85 1444.56 6075.16 1445.61 6077.59 1447.72C6080.05 1449.8 6081.28 1452.74 6081.28 1456.53V1471.19C6081.3 1474.4 6081.75 1476.82 6082.62 1478.47V1479H6073.5ZM6066.03 1472.72C6067.36 1472.72 6068.59 1472.43 6069.72 1471.84C6070.84 1471.24 6071.68 1470.44 6072.22 1469.44V1463.62H6068.84C6064.32 1463.62 6061.92 1465.19 6061.62 1468.31L6061.59 1468.84C6061.59 1469.97 6061.99 1470.9 6062.78 1471.62C6063.57 1472.35 6064.66 1472.72 6066.03 1472.72ZM6107.22 1453.66C6105.99 1453.49 6104.91 1453.41 6103.97 1453.41C6100.55 1453.41 6098.31 1454.56 6097.25 1456.88V1479H6088.22V1445.19H6096.75L6097 1449.22C6098.81 1446.11 6101.32 1444.56 6104.53 1444.56C6105.53 1444.56 6106.47 1444.7 6107.34 1444.97L6107.22 1453.66Z" fill="black"/>
<rect x="4685" y="1299" width="650" height="343" fill="#ADC4C7"/>
<rect x="3713" y="1299" width="650" height="343" fill="#ADC4C7"/>
<path d="M4870.78 759.844C4870.43 764.74 4868.61 768.594 4865.34 771.406C4862.09 774.219 4857.8 775.625 4852.47 775.625C4846.64 775.625 4842.04 773.667 4838.69 769.75C4835.35 765.812 4833.69 760.417 4833.69 753.562V750.781C4833.69 746.406 4834.46 742.552 4836 739.219C4837.54 735.885 4839.74 733.333 4842.59 731.562C4845.47 729.771 4848.8 728.875 4852.59 728.875C4857.84 728.875 4862.07 730.281 4865.28 733.094C4868.49 735.906 4870.34 739.854 4870.84 744.938H4861.47C4861.24 742 4860.42 739.875 4859 738.562C4857.6 737.229 4855.47 736.562 4852.59 736.562C4849.47 736.562 4847.12 737.688 4845.56 739.938C4844.02 742.167 4843.23 745.635 4843.19 750.344V753.781C4843.19 758.698 4843.93 762.292 4845.41 764.562C4846.91 766.833 4849.26 767.969 4852.47 767.969C4855.36 767.969 4857.52 767.312 4858.94 766C4860.38 764.667 4861.2 762.615 4861.41 759.844H4870.78ZM4874.94 757.781C4874.94 754.427 4875.58 751.438 4876.88 748.812C4878.17 746.188 4880.02 744.156 4882.44 742.719C4884.88 741.281 4887.7 740.562 4890.91 740.562C4895.47 740.562 4899.19 741.958 4902.06 744.75C4904.96 747.542 4906.57 751.333 4906.91 756.125L4906.97 758.438C4906.97 763.625 4905.52 767.792 4902.62 770.938C4899.73 774.062 4895.84 775.625 4890.97 775.625C4886.09 775.625 4882.2 774.062 4879.28 770.938C4876.39 767.812 4874.94 763.562 4874.94 758.188V757.781ZM4883.97 758.438C4883.97 761.646 4884.57 764.104 4885.78 765.812C4886.99 767.5 4888.72 768.344 4890.97 768.344C4893.16 768.344 4894.86 767.51 4896.09 765.844C4897.32 764.156 4897.94 761.469 4897.94 757.781C4897.94 754.635 4897.32 752.198 4896.09 750.469C4894.86 748.74 4893.14 747.875 4890.91 747.875C4888.7 747.875 4886.99 748.74 4885.78 750.469C4884.57 752.177 4883.97 754.833 4883.97 758.438ZM4921 741.188L4921.28 744.969C4923.68 742.031 4926.92 740.562 4931 740.562C4935.35 740.562 4938.34 742.281 4939.97 745.719C4942.34 742.281 4945.73 740.562 4950.12 740.562C4953.79 740.562 4956.52 741.635 4958.31 743.781C4960.1 745.906 4961 749.115 4961 753.406V775H4951.94V753.438C4951.94 751.521 4951.56 750.125 4950.81 749.25C4950.06 748.354 4948.74 747.906 4946.84 747.906C4944.14 747.906 4942.26 749.198 4941.22 751.781L4941.25 775H4932.22V753.469C4932.22 751.51 4931.83 750.094 4931.06 749.219C4930.29 748.344 4928.98 747.906 4927.12 747.906C4924.56 747.906 4922.71 748.969 4921.56 751.094V775H4912.53V741.188H4921ZM4998.41 758.406C4998.41 763.615 4997.22 767.792 4994.84 770.938C4992.49 774.062 4989.3 775.625 4985.28 775.625C4981.86 775.625 4979.1 774.438 4977 772.062V788H4967.97V741.188H4976.34L4976.66 744.5C4978.84 741.875 4981.7 740.562 4985.22 740.562C4989.39 740.562 4992.62 742.104 4994.94 745.188C4997.25 748.271 4998.41 752.521 4998.41 757.938V758.406ZM4989.38 757.75C4989.38 754.604 4988.81 752.177 4987.69 750.469C4986.58 748.76 4984.97 747.906 4982.84 747.906C4980.01 747.906 4978.06 748.99 4977 751.156V765C4978.1 767.229 4980.07 768.344 4982.91 768.344C4987.22 768.344 4989.38 764.812 4989.38 757.75ZM5002.62 757.781C5002.62 754.427 5003.27 751.438 5004.56 748.812C5005.85 746.188 5007.71 744.156 5010.12 742.719C5012.56 741.281 5015.39 740.562 5018.59 740.562C5023.16 740.562 5026.88 741.958 5029.75 744.75C5032.65 747.542 5034.26 751.333 5034.59 756.125L5034.66 758.438C5034.66 763.625 5033.21 767.792 5030.31 770.938C5027.42 774.062 5023.53 775.625 5018.66 775.625C5013.78 775.625 5009.89 774.062 5006.97 770.938C5004.07 767.812 5002.62 763.562 5002.62 758.188V757.781ZM5011.66 758.438C5011.66 761.646 5012.26 764.104 5013.47 765.812C5014.68 767.5 5016.41 768.344 5018.66 768.344C5020.84 768.344 5022.55 767.51 5023.78 765.844C5025.01 764.156 5025.62 761.469 5025.62 757.781C5025.62 754.635 5025.01 752.198 5023.78 750.469C5022.55 748.74 5020.82 747.875 5018.59 747.875C5016.39 747.875 5014.68 748.74 5013.47 750.469C5012.26 752.177 5011.66 754.833 5011.66 758.438ZM5048.53 741.188L5048.81 745.094C5051.23 742.073 5054.47 740.562 5058.53 740.562C5062.11 740.562 5064.78 741.615 5066.53 743.719C5068.28 745.823 5069.18 748.969 5069.22 753.156V775H5060.19V753.375C5060.19 751.458 5059.77 750.073 5058.94 749.219C5058.1 748.344 5056.72 747.906 5054.78 747.906C5052.24 747.906 5050.33 748.99 5049.06 751.156V775H5040.03V741.188H5048.53ZM5091.66 775.625C5086.7 775.625 5082.66 774.104 5079.53 771.062C5076.43 768.021 5074.88 763.969 5074.88 758.906V758.031C5074.88 754.635 5075.53 751.604 5076.84 748.938C5078.16 746.25 5080.01 744.188 5082.41 742.75C5084.82 741.292 5087.57 740.562 5090.66 740.562C5095.28 740.562 5098.92 742.021 5101.56 744.938C5104.23 747.854 5105.56 751.99 5105.56 757.344V761.031H5084.03C5084.32 763.24 5085.2 765.01 5086.66 766.344C5088.14 767.677 5090 768.344 5092.25 768.344C5095.73 768.344 5098.45 767.083 5100.41 764.562L5104.84 769.531C5103.49 771.448 5101.66 772.948 5099.34 774.031C5097.03 775.094 5094.47 775.625 5091.66 775.625ZM5090.62 747.875C5088.83 747.875 5087.38 748.479 5086.25 749.688C5085.15 750.896 5084.44 752.625 5084.12 754.875H5096.69V754.156C5096.65 752.156 5096.1 750.615 5095.06 749.531C5094.02 748.427 5092.54 747.875 5090.62 747.875ZM5119.03 741.188L5119.31 745.094C5121.73 742.073 5124.97 740.562 5129.03 740.562C5132.61 740.562 5135.28 741.615 5137.03 743.719C5138.78 745.823 5139.68 748.969 5139.72 753.156V775H5130.69V753.375C5130.69 751.458 5130.27 750.073 5129.44 749.219C5128.6 748.344 5127.22 747.906 5125.28 747.906C5122.74 747.906 5120.83 748.99 5119.56 751.156V775H5110.53V741.188H5119.03ZM5157.41 732.875V741.188H5163.19V747.812H5157.41V764.688C5157.41 765.938 5157.65 766.833 5158.12 767.375C5158.6 767.917 5159.52 768.188 5160.88 768.188C5161.88 768.188 5162.76 768.115 5163.53 767.969V774.812C5161.76 775.354 5159.94 775.625 5158.06 775.625C5151.73 775.625 5148.5 772.427 5148.38 766.031V747.812H5143.44V741.188H5148.38V732.875H5157.41ZM5186.53 765.656C5186.53 764.552 5185.98 763.688 5184.88 763.062C5183.79 762.417 5182.04 761.844 5179.62 761.344C5171.58 759.656 5167.56 756.24 5167.56 751.094C5167.56 748.094 5168.8 745.594 5171.28 743.594C5173.78 741.573 5177.04 740.562 5181.06 740.562C5185.35 740.562 5188.78 741.573 5191.34 743.594C5193.93 745.615 5195.22 748.24 5195.22 751.469H5186.19C5186.19 750.177 5185.77 749.115 5184.94 748.281C5184.1 747.427 5182.8 747 5181.03 747C5179.51 747 5178.33 747.344 5177.5 748.031C5176.67 748.719 5176.25 749.594 5176.25 750.656C5176.25 751.656 5176.72 752.469 5177.66 753.094C5178.61 753.698 5180.22 754.229 5182.47 754.688C5184.72 755.125 5186.61 755.625 5188.16 756.188C5192.93 757.938 5195.31 760.969 5195.31 765.281C5195.31 768.365 5193.99 770.865 5191.34 772.781C5188.7 774.677 5185.28 775.625 5181.09 775.625C5178.26 775.625 5175.74 775.125 5173.53 774.125C5171.34 773.104 5169.62 771.719 5168.38 769.969C5167.12 768.198 5166.5 766.292 5166.5 764.25H5175.06C5175.15 765.854 5175.74 767.083 5176.84 767.938C5177.95 768.792 5179.43 769.219 5181.28 769.219C5183.01 769.219 5184.31 768.896 5185.19 768.25C5186.08 767.583 5186.53 766.719 5186.53 765.656Z" fill="black"/>
<rect x="1160" y="581" width="650" height="343" fill="#34BFD2"/>
<rect x="2660" y="581" width="642" height="284" fill="#3AF87A"/>
<path d="M2919.47 721.453H2900.98L2897.46 732H2886.25L2905.3 680.812H2915.07L2934.23 732H2923.02L2919.47 721.453ZM2903.82 712.91H2916.62L2910.19 693.75L2903.82 712.91ZM2970.9 713.332C2970.9 719.191 2969.57 723.891 2966.89 727.43C2964.25 730.945 2960.66 732.703 2956.14 732.703C2952.29 732.703 2949.19 731.367 2946.82 728.695V746.625H2936.66V693.961H2946.08L2946.43 697.688C2948.89 694.734 2952.11 693.258 2956.07 693.258C2960.75 693.258 2964.4 694.992 2967 698.461C2969.6 701.93 2970.9 706.711 2970.9 712.805V713.332ZM2960.74 712.594C2960.74 709.055 2960.11 706.324 2958.84 704.402C2957.6 702.48 2955.79 701.52 2953.39 701.52C2950.21 701.52 2948.02 702.738 2946.82 705.176V720.75C2948.06 723.258 2950.28 724.512 2953.46 724.512C2958.32 724.512 2960.74 720.539 2960.74 712.594ZM3011.47 713.332C3011.47 719.191 3010.14 723.891 3007.46 727.43C3004.82 730.945 3001.23 732.703 2996.71 732.703C2992.86 732.703 2989.76 731.367 2987.39 728.695V746.625H2977.23V693.961H2986.65L2987 697.688C2989.46 694.734 2992.68 693.258 2996.64 693.258C3001.32 693.258 3004.97 694.992 3007.57 698.461C3010.17 701.93 3011.47 706.711 3011.47 712.805V713.332ZM3001.31 712.594C3001.31 709.055 3000.68 706.324 2999.41 704.402C2998.17 702.48 2996.36 701.52 2993.96 701.52C2990.78 701.52 2988.59 702.738 2987.39 705.176V720.75C2988.63 723.258 2990.85 724.512 2994.04 724.512C2998.89 724.512 3001.31 720.539 3001.31 712.594ZM3018.33 727.008C3018.33 725.391 3018.87 724.078 3019.95 723.07C3021.05 722.062 3022.42 721.559 3024.06 721.559C3025.72 721.559 3027.09 722.062 3028.17 723.07C3029.27 724.078 3029.82 725.391 3029.82 727.008C3029.82 728.602 3029.29 729.902 3028.21 730.91C3027.13 731.895 3025.75 732.387 3024.06 732.387C3022.39 732.387 3021.02 731.895 3019.95 730.91C3018.87 729.902 3018.33 728.602 3018.33 727.008ZM3049.51 693.961V734.074C3049.51 738.27 3048.4 741.527 3046.17 743.848C3043.95 746.191 3040.73 747.363 3036.54 747.363C3034.78 747.363 3033.11 747.164 3031.51 746.766V738.715C3032.73 738.926 3033.8 739.031 3034.71 739.031C3037.78 739.031 3039.32 737.402 3039.32 734.145V693.961H3049.51ZM3038.51 684.117C3038.51 682.594 3039.01 681.34 3040.02 680.355C3041.05 679.371 3042.45 678.879 3044.2 678.879C3045.96 678.879 3047.34 679.371 3048.35 680.355C3049.38 681.34 3049.9 682.594 3049.9 684.117C3049.9 685.664 3049.37 686.93 3048.32 687.914C3047.29 688.898 3045.91 689.391 3044.2 689.391C3042.49 689.391 3041.11 688.898 3040.05 687.914C3039.02 686.93 3038.51 685.664 3038.51 684.117ZM3078.06 721.488C3078.06 720.246 3077.44 719.273 3076.2 718.57C3074.98 717.844 3073.01 717.199 3070.29 716.637C3061.24 714.738 3056.72 710.895 3056.72 705.105C3056.72 701.73 3058.11 698.918 3060.9 696.668C3063.71 694.395 3067.38 693.258 3071.91 693.258C3076.73 693.258 3080.59 694.395 3083.47 696.668C3086.38 698.941 3087.83 701.895 3087.83 705.527H3077.67C3077.67 704.074 3077.2 702.879 3076.27 701.941C3075.33 700.98 3073.86 700.5 3071.87 700.5C3070.16 700.5 3068.84 700.887 3067.9 701.66C3066.96 702.434 3066.49 703.418 3066.49 704.613C3066.49 705.738 3067.02 706.652 3068.07 707.355C3069.15 708.035 3070.96 708.633 3073.49 709.148C3076.02 709.641 3078.15 710.203 3079.89 710.836C3085.25 712.805 3087.94 716.215 3087.94 721.066C3087.94 724.535 3086.45 727.348 3083.47 729.504C3080.5 731.637 3076.65 732.703 3071.94 732.703C3068.75 732.703 3065.92 732.141 3063.43 731.016C3060.97 729.867 3059.04 728.309 3057.63 726.34C3056.23 724.348 3055.52 722.203 3055.52 719.906H3065.16C3065.25 721.711 3065.92 723.094 3067.16 724.055C3068.4 725.016 3070.07 725.496 3072.15 725.496C3074.1 725.496 3075.56 725.133 3076.55 724.406C3077.55 723.656 3078.06 722.684 3078.06 721.488Z" fill="black"/>
<path d="M1301.08 1490.35H1316.01V1496H1294.05V1461.88H1301.08V1490.35ZM1318.56 1483.09C1318.56 1480.57 1319.05 1478.33 1320.02 1476.36C1320.98 1474.39 1322.38 1472.87 1324.19 1471.79C1326.02 1470.71 1328.13 1470.17 1330.54 1470.17C1333.96 1470.17 1336.75 1471.22 1338.91 1473.31C1341.08 1475.41 1342.29 1478.25 1342.54 1481.84L1342.59 1483.58C1342.59 1487.47 1341.5 1490.59 1339.33 1492.95C1337.16 1495.3 1334.24 1496.47 1330.59 1496.47C1326.93 1496.47 1324.01 1495.3 1321.82 1492.95C1319.65 1490.61 1318.56 1487.42 1318.56 1483.39V1483.09ZM1325.34 1483.58C1325.34 1485.98 1325.79 1487.83 1326.7 1489.11C1327.6 1490.38 1328.9 1491.01 1330.59 1491.01C1332.23 1491.01 1333.51 1490.38 1334.43 1489.13C1335.35 1487.87 1335.81 1485.85 1335.81 1483.09C1335.81 1480.73 1335.35 1478.9 1334.43 1477.6C1333.51 1476.3 1332.21 1475.66 1330.54 1475.66C1328.88 1475.66 1327.6 1476.3 1326.7 1477.6C1325.79 1478.88 1325.34 1480.88 1325.34 1483.58ZM1345.77 1483.13C1345.77 1479.24 1346.7 1476.11 1348.54 1473.73C1350.4 1471.36 1352.9 1470.17 1356.04 1470.17C1358.82 1470.17 1360.98 1471.12 1362.53 1473.03L1362.81 1470.64H1368.95V1495.16C1368.95 1497.38 1368.45 1499.3 1367.43 1500.95C1366.43 1502.59 1365.02 1503.84 1363.19 1504.7C1361.36 1505.55 1359.22 1505.98 1356.77 1505.98C1354.91 1505.98 1353.09 1505.61 1351.33 1504.86C1349.56 1504.12 1348.23 1503.17 1347.32 1502L1350.32 1497.88C1352.01 1499.77 1354.05 1500.71 1356.46 1500.71C1358.26 1500.71 1359.66 1500.23 1360.66 1499.26C1361.66 1498.3 1362.16 1496.95 1362.16 1495.18V1493.82C1360.59 1495.59 1358.54 1496.47 1355.99 1496.47C1352.95 1496.47 1350.48 1495.28 1348.59 1492.91C1346.71 1490.52 1345.77 1487.35 1345.77 1483.41V1483.13ZM1352.55 1483.62C1352.55 1485.92 1353.01 1487.73 1353.93 1489.04C1354.85 1490.34 1356.12 1490.98 1357.73 1490.98C1359.79 1490.98 1361.27 1490.21 1362.16 1488.66V1478C1361.25 1476.45 1359.79 1475.68 1357.77 1475.68C1356.15 1475.68 1354.87 1476.34 1353.93 1477.67C1353.01 1479 1352.55 1480.98 1352.55 1483.62ZM1381.33 1496H1374.53V1470.64H1381.33V1496ZM1374.13 1464.08C1374.13 1463.06 1374.47 1462.23 1375.14 1461.57C1375.83 1460.91 1376.76 1460.59 1377.93 1460.59C1379.09 1460.59 1380.01 1460.91 1380.7 1461.57C1381.38 1462.23 1381.73 1463.06 1381.73 1464.08C1381.73 1465.11 1381.38 1465.95 1380.67 1466.61C1379.98 1467.27 1379.07 1467.59 1377.93 1467.59C1376.79 1467.59 1375.87 1467.27 1375.16 1466.61C1374.48 1465.95 1374.13 1465.11 1374.13 1464.08ZM1393.16 1470.64L1393.38 1473.57C1395.19 1471.3 1397.62 1470.17 1400.66 1470.17C1403.35 1470.17 1405.35 1470.96 1406.66 1472.54C1407.98 1474.12 1408.65 1476.48 1408.68 1479.62V1496H1401.91V1479.78C1401.91 1478.34 1401.59 1477.3 1400.97 1476.66C1400.34 1476.01 1399.3 1475.68 1397.85 1475.68C1395.95 1475.68 1394.52 1476.49 1393.56 1478.12V1496H1386.79V1470.64H1393.16ZM1415.97 1498.93H1410.93L1423.49 1461.88H1428.53L1415.97 1498.93ZM1439.27 1490.35H1454.2V1496H1432.23V1461.88H1439.27V1490.35ZM1456.75 1483.09C1456.75 1480.57 1457.23 1478.33 1458.2 1476.36C1459.17 1474.39 1460.56 1472.87 1462.38 1471.79C1464.2 1470.71 1466.32 1470.17 1468.73 1470.17C1472.15 1470.17 1474.94 1471.22 1477.09 1473.31C1479.27 1475.41 1480.48 1478.25 1480.73 1481.84L1480.77 1483.58C1480.77 1487.47 1479.69 1490.59 1477.52 1492.95C1475.34 1495.3 1472.43 1496.47 1468.77 1496.47C1465.12 1496.47 1462.2 1495.3 1460.01 1492.95C1457.84 1490.61 1456.75 1487.42 1456.75 1483.39V1483.09ZM1463.52 1483.58C1463.52 1485.98 1463.98 1487.83 1464.88 1489.11C1465.79 1490.38 1467.09 1491.01 1468.77 1491.01C1470.41 1491.01 1471.7 1490.38 1472.62 1489.13C1473.54 1487.87 1474 1485.85 1474 1483.09C1474 1480.73 1473.54 1478.9 1472.62 1477.6C1471.7 1476.3 1470.4 1475.66 1468.73 1475.66C1467.07 1475.66 1465.79 1476.3 1464.88 1477.6C1463.98 1478.88 1463.52 1480.88 1463.52 1483.58ZM1483.96 1483.13C1483.96 1479.24 1484.88 1476.11 1486.73 1473.73C1488.59 1471.36 1491.09 1470.17 1494.23 1470.17C1497.01 1470.17 1499.17 1471.12 1500.72 1473.03L1501 1470.64H1507.14V1495.16C1507.14 1497.38 1506.63 1499.3 1505.62 1500.95C1504.62 1502.59 1503.2 1503.84 1501.38 1504.7C1499.55 1505.55 1497.41 1505.98 1494.95 1505.98C1493.09 1505.98 1491.28 1505.61 1489.52 1504.86C1487.75 1504.12 1486.41 1503.17 1485.51 1502L1488.51 1497.88C1490.2 1499.77 1492.24 1500.71 1494.65 1500.71C1496.45 1500.71 1497.84 1500.23 1498.84 1499.26C1499.84 1498.3 1500.34 1496.95 1500.34 1495.18V1493.82C1498.78 1495.59 1496.73 1496.47 1494.18 1496.47C1491.13 1496.47 1488.66 1495.28 1486.77 1492.91C1484.9 1490.52 1483.96 1487.35 1483.96 1483.41V1483.13ZM1490.73 1483.62C1490.73 1485.92 1491.2 1487.73 1492.12 1489.04C1493.04 1490.34 1494.3 1490.98 1495.91 1490.98C1497.98 1490.98 1499.45 1490.21 1500.34 1488.66V1478C1499.44 1476.45 1497.98 1475.68 1495.96 1475.68C1494.34 1475.68 1493.05 1476.34 1492.12 1477.67C1491.2 1479 1490.73 1480.98 1490.73 1483.62ZM1511.31 1483.09C1511.31 1480.57 1511.8 1478.33 1512.77 1476.36C1513.73 1474.39 1515.12 1472.87 1516.94 1471.79C1518.77 1470.71 1520.88 1470.17 1523.29 1470.17C1526.71 1470.17 1529.5 1471.22 1531.66 1473.31C1533.83 1475.41 1535.04 1478.25 1535.29 1481.84L1535.34 1483.58C1535.34 1487.47 1534.25 1490.59 1532.08 1492.95C1529.91 1495.3 1526.99 1496.47 1523.34 1496.47C1519.68 1496.47 1516.76 1495.3 1514.57 1492.95C1512.4 1490.61 1511.31 1487.42 1511.31 1483.39V1483.09ZM1518.09 1483.58C1518.09 1485.98 1518.54 1487.83 1519.45 1489.11C1520.35 1490.38 1521.65 1491.01 1523.34 1491.01C1524.98 1491.01 1526.26 1490.38 1527.18 1489.13C1528.1 1487.87 1528.56 1485.85 1528.56 1483.09C1528.56 1480.73 1528.1 1478.9 1527.18 1477.6C1526.26 1476.3 1524.96 1475.66 1523.29 1475.66C1521.63 1475.66 1520.35 1476.3 1519.45 1477.6C1518.54 1478.88 1518.09 1480.88 1518.09 1483.58ZM1554.7 1493.42C1553.02 1495.45 1550.71 1496.47 1547.76 1496.47C1545.04 1496.47 1542.96 1495.69 1541.52 1494.12C1540.1 1492.56 1539.38 1490.27 1539.34 1487.26V1470.64H1546.12V1487.02C1546.12 1489.66 1547.32 1490.98 1549.73 1490.98C1552.02 1490.98 1553.6 1490.19 1554.46 1488.59V1470.64H1561.26V1496H1554.88L1554.7 1493.42ZM1574.48 1464.41V1470.64H1578.81V1475.61H1574.48V1488.27C1574.48 1489.2 1574.66 1489.88 1575.02 1490.28C1575.38 1490.69 1576.06 1490.89 1577.08 1490.89C1577.83 1490.89 1578.49 1490.84 1579.07 1490.73V1495.86C1577.74 1496.27 1576.38 1496.47 1574.97 1496.47C1570.22 1496.47 1567.8 1494.07 1567.7 1489.27V1475.61H1564V1470.64H1567.7V1464.41H1574.48Z" fill="black"/>
<path d="M2707 0H3255V287H2707V0Z" fill="#1EFE19"/>
<rect x="2198" y="2826" width="650" height="343" fill="#34BFD2"/>
<rect y="2826" width="667" height="346" fill="#34BFD2"/>
<path d="M267.742 3004.05C267.742 3002.72 267.273 3001.7 266.336 3001C265.398 3000.28 263.711 2999.53 261.273 2998.75C258.836 2997.95 256.906 2997.17 255.484 2996.41C251.609 2994.31 249.672 2991.49 249.672 2987.95C249.672 2986.1 250.188 2984.46 251.219 2983.02C252.266 2981.57 253.758 2980.44 255.695 2979.62C257.648 2978.81 259.836 2978.41 262.258 2978.41C264.695 2978.41 266.867 2978.85 268.773 2979.74C270.68 2980.62 272.156 2981.86 273.203 2983.47C274.266 2985.08 274.797 2986.91 274.797 2988.95H267.766C267.766 2987.39 267.273 2986.18 266.289 2985.32C265.305 2984.45 263.922 2984.01 262.141 2984.01C260.422 2984.01 259.086 2984.38 258.133 2985.11C257.18 2985.83 256.703 2986.78 256.703 2987.97C256.703 2989.08 257.258 2990.01 258.367 2990.76C259.492 2991.51 261.141 2992.21 263.312 2992.87C267.312 2994.07 270.227 2995.56 272.055 2997.34C273.883 2999.12 274.797 3001.34 274.797 3004C274.797 3006.95 273.68 3009.27 271.445 3010.96C269.211 3012.63 266.203 3013.47 262.422 3013.47C259.797 3013.47 257.406 3012.99 255.25 3012.04C253.094 3011.07 251.445 3009.75 250.305 3008.08C249.18 3006.41 248.617 3004.47 248.617 3002.27H255.672C255.672 3006.03 257.922 3007.91 262.422 3007.91C264.094 3007.91 265.398 3007.58 266.336 3006.91C267.273 3006.22 267.742 3005.27 267.742 3004.05ZM290.805 3013.47C287.086 3013.47 284.055 3012.33 281.711 3010.05C279.383 3007.77 278.219 3004.73 278.219 3000.93V3000.27C278.219 2997.73 278.711 2995.45 279.695 2993.45C280.68 2991.44 282.07 2989.89 283.867 2988.81C285.68 2987.72 287.742 2987.17 290.055 2987.17C293.523 2987.17 296.25 2988.27 298.234 2990.45C300.234 2992.64 301.234 2995.74 301.234 2999.76V3002.52H285.086C285.305 3004.18 285.961 3005.51 287.055 3006.51C288.164 3007.51 289.562 3008.01 291.25 3008.01C293.859 3008.01 295.898 3007.06 297.367 3005.17L300.695 3008.9C299.68 3010.34 298.305 3011.46 296.57 3012.27C294.836 3013.07 292.914 3013.47 290.805 3013.47ZM290.031 2992.66C288.688 2992.66 287.594 2993.11 286.75 2994.02C285.922 2994.92 285.391 2996.22 285.156 2997.91H294.578V2997.37C294.547 2995.87 294.141 2994.71 293.359 2993.9C292.578 2993.07 291.469 2992.66 290.031 2992.66ZM319.797 3013C319.484 3012.39 319.258 3011.63 319.117 3010.73C317.477 3012.55 315.344 3013.47 312.719 3013.47C310.234 3013.47 308.172 3012.75 306.531 3011.31C304.906 3009.88 304.094 3008.06 304.094 3005.88C304.094 3003.19 305.086 3001.12 307.07 2999.69C309.07 2998.25 311.953 2997.52 315.719 2997.51H318.836V2996.05C318.836 2994.88 318.531 2993.95 317.922 2993.24C317.328 2992.54 316.383 2992.19 315.086 2992.19C313.945 2992.19 313.047 2992.46 312.391 2993.01C311.75 2993.55 311.43 2994.3 311.43 2995.26H304.656C304.656 2993.79 305.109 2992.43 306.016 2991.18C306.922 2989.93 308.203 2988.95 309.859 2988.25C311.516 2987.53 313.375 2987.17 315.438 2987.17C318.562 2987.17 321.039 2987.96 322.867 2989.54C324.711 2991.1 325.633 2993.3 325.633 2996.15V3007.14C325.648 3009.55 325.984 3011.37 326.641 3012.6V3013H319.797ZM314.195 3008.29C315.195 3008.29 316.117 3008.07 316.961 3007.63C317.805 3007.18 318.43 3006.58 318.836 3005.83V3001.47H316.305C312.914 3001.47 311.109 3002.64 310.891 3004.98L310.867 3005.38C310.867 3006.23 311.164 3006.92 311.758 3007.47C312.352 3008.02 313.164 3008.29 314.195 3008.29ZM345.086 2993.99C344.164 2993.87 343.352 2993.8 342.648 2993.8C340.086 2993.8 338.406 2994.67 337.609 2996.41V3013H330.836V2987.64H337.234L337.422 2990.66C338.781 2988.34 340.664 2987.17 343.07 2987.17C343.82 2987.17 344.523 2987.27 345.18 2987.48L345.086 2993.99ZM358.445 3008.01C359.695 3008.01 360.711 3007.66 361.492 3006.98C362.273 3006.29 362.68 3005.38 362.711 3004.23H369.062C369.047 3005.95 368.578 3007.53 367.656 3008.97C366.734 3010.39 365.469 3011.5 363.859 3012.3C362.266 3013.08 360.5 3013.47 358.562 3013.47C354.938 3013.47 352.078 3012.32 349.984 3010.02C347.891 3007.71 346.844 3004.52 346.844 3000.46V3000.02C346.844 2996.11 347.883 2992.99 349.961 2990.66C352.039 2988.34 354.891 2987.17 358.516 2987.17C361.688 2987.17 364.227 2988.08 366.133 2989.89C368.055 2991.69 369.031 2994.09 369.062 2997.09H362.711C362.68 2995.77 362.273 2994.71 361.492 2993.9C360.711 2993.07 359.68 2992.66 358.398 2992.66C356.82 2992.66 355.625 2993.23 354.812 2994.39C354.016 2995.53 353.617 2997.39 353.617 2999.97V3000.67C353.617 3003.28 354.016 3005.16 354.812 3006.3C355.609 3007.44 356.82 3008.01 358.445 3008.01ZM379.539 2990.41C381.336 2988.25 383.594 2987.17 386.312 2987.17C391.812 2987.17 394.602 2990.37 394.68 2996.76V3013H387.906V2996.95C387.906 2995.49 387.594 2994.42 386.969 2993.73C386.344 2993.03 385.305 2992.68 383.852 2992.68C381.867 2992.68 380.43 2993.45 379.539 2994.98V3013H372.766V2977H379.539V2990.41Z" fill="black"/>
<rect x="1136" y="2061" width="650" height="343" fill="#34BFD2"/>
<rect x="83" y="2061" width="650" height="343" fill="#34BFD2"/>
<path d="M351.75 2244.62H335.312L332.188 2254H322.219L339.156 2208.5H347.844L364.875 2254H354.906L351.75 2244.62ZM337.844 2237.03H349.219L343.5 2220L337.844 2237.03ZM399 2237.41C399 2242.82 397.844 2247.05 395.531 2250.09C393.219 2253.11 389.99 2254.62 385.844 2254.62C382.177 2254.62 379.25 2253.22 377.062 2250.41L376.656 2254H368.531V2206H377.562V2223.22C379.646 2220.78 382.385 2219.56 385.781 2219.56C389.906 2219.56 393.135 2221.08 395.469 2224.12C397.823 2227.15 399 2231.41 399 2236.91V2237.41ZM389.969 2236.75C389.969 2233.33 389.427 2230.84 388.344 2229.28C387.26 2227.7 385.646 2226.91 383.5 2226.91C380.625 2226.91 378.646 2228.08 377.562 2230.44V2243.78C378.667 2246.16 380.667 2247.34 383.562 2247.34C386.479 2247.34 388.396 2245.91 389.312 2243.03C389.75 2241.66 389.969 2239.56 389.969 2236.75ZM403.188 2236.78C403.188 2233.43 403.833 2230.44 405.125 2227.81C406.417 2225.19 408.271 2223.16 410.688 2221.72C413.125 2220.28 415.948 2219.56 419.156 2219.56C423.719 2219.56 427.438 2220.96 430.312 2223.75C433.208 2226.54 434.823 2230.33 435.156 2235.12L435.219 2237.44C435.219 2242.62 433.771 2246.79 430.875 2249.94C427.979 2253.06 424.094 2254.62 419.219 2254.62C414.344 2254.62 410.448 2253.06 407.531 2249.94C404.635 2246.81 403.188 2242.56 403.188 2237.19V2236.78ZM412.219 2237.44C412.219 2240.65 412.823 2243.1 414.031 2244.81C415.24 2246.5 416.969 2247.34 419.219 2247.34C421.406 2247.34 423.115 2246.51 424.344 2244.84C425.573 2243.16 426.188 2240.47 426.188 2236.78C426.188 2233.64 425.573 2231.2 424.344 2229.47C423.115 2227.74 421.385 2226.88 419.156 2226.88C416.948 2226.88 415.24 2227.74 414.031 2229.47C412.823 2231.18 412.219 2233.83 412.219 2237.44ZM461.031 2250.56C458.802 2253.27 455.719 2254.62 451.781 2254.62C448.156 2254.62 445.385 2253.58 443.469 2251.5C441.573 2249.42 440.604 2246.36 440.562 2242.34V2220.19H449.594V2242.03C449.594 2245.55 451.198 2247.31 454.406 2247.31C457.469 2247.31 459.573 2246.25 460.719 2244.12V2220.19H469.781V2254H461.281L461.031 2250.56ZM487.406 2211.88V2220.19H493.188V2226.81H487.406V2243.69C487.406 2244.94 487.646 2245.83 488.125 2246.38C488.604 2246.92 489.521 2247.19 490.875 2247.19C491.875 2247.19 492.76 2247.11 493.531 2246.97V2253.81C491.76 2254.35 489.938 2254.62 488.062 2254.62C481.729 2254.62 478.5 2251.43 478.375 2245.03V2226.81H473.438V2220.19H478.375V2211.88H487.406Z" fill="black"/>
<rect x="2144" y="2055" width="650" height="343" fill="#34BFD2"/>
<path d="M2882.52 143H2875.49V108.875H2882.52V143ZM2894.85 117.641L2895.06 120.57C2896.88 118.305 2899.3 117.172 2902.35 117.172C2905.04 117.172 2907.04 117.961 2908.35 119.539C2909.66 121.117 2910.34 123.477 2910.37 126.617V143H2903.59V126.781C2903.59 125.344 2903.28 124.305 2902.66 123.664C2902.03 123.008 2900.99 122.68 2899.54 122.68C2897.63 122.68 2896.2 123.492 2895.25 125.117V143H2888.48V117.641H2894.85ZM2914.47 130.133C2914.47 126.18 2915.35 123.031 2917.12 120.688C2918.9 118.344 2921.33 117.172 2924.41 117.172C2926.88 117.172 2928.91 118.094 2930.52 119.938V107H2937.32V143H2931.2L2930.88 140.305C2929.19 142.414 2927.02 143.469 2924.36 143.469C2921.38 143.469 2918.98 142.297 2917.16 139.953C2915.37 137.594 2914.47 134.32 2914.47 130.133ZM2921.24 130.625C2921.24 133 2921.66 134.82 2922.48 136.086C2923.31 137.352 2924.52 137.984 2926.09 137.984C2928.19 137.984 2929.66 137.102 2930.52 135.336V125.328C2929.68 123.562 2928.22 122.68 2926.14 122.68C2922.88 122.68 2921.24 125.328 2921.24 130.625ZM2954.24 143.469C2950.52 143.469 2947.49 142.328 2945.15 140.047C2942.82 137.766 2941.66 134.727 2941.66 130.93V130.273C2941.66 127.727 2942.15 125.453 2943.13 123.453C2944.12 121.438 2945.51 119.891 2947.3 118.812C2949.12 117.719 2951.18 117.172 2953.49 117.172C2956.96 117.172 2959.69 118.266 2961.67 120.453C2963.67 122.641 2964.67 125.742 2964.67 129.758V132.523H2948.52C2948.74 134.18 2949.4 135.508 2950.49 136.508C2951.6 137.508 2953 138.008 2954.69 138.008C2957.3 138.008 2959.34 137.062 2960.8 135.172L2964.13 138.898C2963.12 140.336 2961.74 141.461 2960.01 142.273C2958.27 143.07 2956.35 143.469 2954.24 143.469ZM2953.47 122.656C2952.12 122.656 2951.03 123.109 2950.19 124.016C2949.36 124.922 2948.83 126.219 2948.59 127.906H2958.02V127.367C2957.98 125.867 2957.58 124.711 2956.8 123.898C2956.02 123.07 2954.91 122.656 2953.47 122.656ZM2978.2 125.211L2982.46 117.641H2989.7L2982.48 130.062L2990.01 143H2982.74L2978.22 135.031L2973.72 143H2966.43L2973.95 130.062L2966.76 117.641H2974.02L2978.2 125.211ZM2993.31 139.672C2993.31 138.594 2993.67 137.719 2994.39 137.047C2995.12 136.375 2996.04 136.039 2997.13 136.039C2998.24 136.039 2999.16 136.375 2999.88 137.047C3000.61 137.719 3000.98 138.594 3000.98 139.672C3000.98 140.734 3000.62 141.602 2999.9 142.273C2999.18 142.93 2998.26 143.258 2997.13 143.258C2996.02 143.258 2995.11 142.93 2994.39 142.273C2993.67 141.602 2993.31 140.734 2993.31 139.672ZM3014.1 117.641V144.383C3014.1 147.18 3013.36 149.352 3011.88 150.898C3010.39 152.461 3008.25 153.242 3005.45 153.242C3004.28 153.242 3003.16 153.109 3002.1 152.844V147.477C3002.91 147.617 3003.62 147.688 3004.23 147.688C3006.28 147.688 3007.3 146.602 3007.3 144.43V117.641H3014.1ZM3006.77 111.078C3006.77 110.062 3007.1 109.227 3007.77 108.57C3008.46 107.914 3009.39 107.586 3010.56 107.586C3011.73 107.586 3012.66 107.914 3013.33 108.57C3014.02 109.227 3014.36 110.062 3014.36 111.078C3014.36 112.109 3014.01 112.953 3013.3 113.609C3012.62 114.266 3011.7 114.594 3010.56 114.594C3009.42 114.594 3008.5 114.266 3007.8 113.609C3007.11 112.953 3006.77 112.109 3006.77 111.078ZM3033.13 135.992C3033.13 135.164 3032.72 134.516 3031.89 134.047C3031.08 133.562 3029.77 133.133 3027.95 132.758C3021.92 131.492 3018.91 128.93 3018.91 125.07C3018.91 122.82 3019.84 120.945 3021.7 119.445C3023.57 117.93 3026.02 117.172 3029.03 117.172C3032.25 117.172 3034.82 117.93 3036.74 119.445C3038.68 120.961 3039.65 122.93 3039.65 125.352H3032.88C3032.88 124.383 3032.56 123.586 3031.94 122.961C3031.31 122.32 3030.34 122 3029.01 122C3027.87 122 3026.98 122.258 3026.36 122.773C3025.73 123.289 3025.42 123.945 3025.42 124.742C3025.42 125.492 3025.77 126.102 3026.48 126.57C3027.2 127.023 3028.4 127.422 3030.09 127.766C3031.77 128.094 3033.2 128.469 3034.35 128.891C3037.93 130.203 3039.72 132.477 3039.72 135.711C3039.72 138.023 3038.73 139.898 3036.74 141.336C3034.76 142.758 3032.2 143.469 3029.05 143.469C3026.93 143.469 3025.04 143.094 3023.38 142.344C3021.74 141.578 3020.45 140.539 3019.52 139.227C3018.58 137.898 3018.11 136.469 3018.11 134.938H3024.53C3024.59 136.141 3025.04 137.062 3025.87 137.703C3026.7 138.344 3027.8 138.664 3029.2 138.664C3030.49 138.664 3031.47 138.422 3032.12 137.938C3032.8 137.438 3033.13 136.789 3033.13 135.992Z" fill="black"/>
<path d="M1406.82 2244H1399.79V2229.38H1386.08V2244H1379.05V2209.88H1386.08V2223.7H1399.79V2209.88H1406.82V2244ZM1441.02 2227.71C1441.02 2231.07 1440.42 2234.02 1439.23 2236.55C1438.05 2239.08 1436.34 2241.03 1434.12 2242.41C1431.92 2243.78 1429.39 2244.47 1426.53 2244.47C1423.7 2244.47 1421.18 2243.79 1418.96 2242.43C1416.74 2241.07 1415.02 2239.13 1413.8 2236.62C1412.59 2234.09 1411.97 2231.18 1411.95 2227.9V2226.21C1411.95 2222.85 1412.55 2219.9 1413.76 2217.35C1414.98 2214.79 1416.69 2212.83 1418.89 2211.47C1421.11 2210.09 1423.64 2209.41 1426.48 2209.41C1429.33 2209.41 1431.85 2210.09 1434.05 2211.47C1436.27 2212.83 1437.98 2214.79 1439.19 2217.35C1440.41 2219.9 1441.02 2222.84 1441.02 2226.19V2227.71ZM1433.89 2226.16C1433.89 2222.59 1433.25 2219.87 1431.97 2218.01C1430.69 2216.15 1428.86 2215.22 1426.48 2215.22C1424.12 2215.22 1422.3 2216.14 1421.02 2217.98C1419.74 2219.81 1419.09 2222.5 1419.08 2226.05V2227.71C1419.08 2231.2 1419.72 2233.9 1421 2235.82C1422.28 2237.74 1424.12 2238.7 1426.53 2238.7C1428.89 2238.7 1430.7 2237.78 1431.97 2235.94C1433.23 2234.08 1433.88 2231.38 1433.89 2227.83V2226.16ZM1455.31 2209.88L1464.08 2234.62L1472.8 2209.88H1482.03V2244H1474.98V2234.67L1475.68 2218.57L1466.47 2244H1461.64L1452.45 2218.59L1453.16 2234.67V2244H1446.12V2209.88H1455.31ZM1508.7 2229.21H1495.2V2238.35H1511.05V2244H1488.17V2209.88H1511V2215.57H1495.2V2223.7H1508.7V2229.21Z" fill="black"/>
<path d="M2284.05 2254V2219.88H2294.55C2297.55 2219.88 2300.23 2220.55 2302.59 2221.91C2304.96 2223.26 2306.81 2225.18 2308.14 2227.68C2309.47 2230.16 2310.13 2232.99 2310.13 2236.16V2237.73C2310.13 2240.91 2309.48 2243.73 2308.16 2246.2C2306.87 2248.66 2305.03 2250.58 2302.66 2251.94C2300.28 2253.3 2297.6 2253.98 2294.62 2254H2284.05ZM2291.08 2225.57V2248.35H2294.48C2297.23 2248.35 2299.33 2247.45 2300.78 2245.66C2302.23 2243.86 2302.98 2241.29 2303.01 2237.95V2236.14C2303.01 2232.67 2302.29 2230.05 2300.85 2228.27C2299.41 2226.47 2297.31 2225.57 2294.55 2225.57H2291.08ZM2329.07 2234.99C2328.15 2234.87 2327.34 2234.8 2326.63 2234.8C2324.07 2234.8 2322.39 2235.67 2321.59 2237.41V2254H2314.82V2228.64H2321.22L2321.41 2231.66C2322.77 2229.34 2324.65 2228.17 2327.05 2228.17C2327.8 2228.17 2328.51 2228.27 2329.16 2228.48L2329.07 2234.99ZM2330.45 2241.09C2330.45 2238.57 2330.94 2236.33 2331.91 2234.36C2332.88 2232.39 2334.27 2230.87 2336.08 2229.79C2337.91 2228.71 2340.02 2228.17 2342.43 2228.17C2345.85 2228.17 2348.64 2229.22 2350.8 2231.31C2352.97 2233.41 2354.18 2236.25 2354.43 2239.84L2354.48 2241.58C2354.48 2245.47 2353.39 2248.59 2351.22 2250.95C2349.05 2253.3 2346.13 2254.47 2342.48 2254.47C2338.82 2254.47 2335.9 2253.3 2333.71 2250.95C2331.54 2248.61 2330.45 2245.42 2330.45 2241.39V2241.09ZM2337.23 2241.58C2337.23 2243.98 2337.68 2245.83 2338.59 2247.11C2339.49 2248.38 2340.79 2249.01 2342.48 2249.01C2344.12 2249.01 2345.4 2248.38 2346.32 2247.13C2347.24 2245.87 2347.7 2243.85 2347.7 2241.09C2347.7 2238.73 2347.24 2236.9 2346.32 2235.6C2345.4 2234.3 2344.1 2233.66 2342.43 2233.66C2340.77 2233.66 2339.49 2234.3 2338.59 2235.6C2337.68 2236.88 2337.23 2238.88 2337.23 2241.58ZM2381.48 2241.55C2381.48 2245.46 2380.59 2248.59 2378.8 2250.95C2377.04 2253.3 2374.65 2254.47 2371.63 2254.47C2369.07 2254.47 2367 2253.58 2365.42 2251.8V2263.75H2358.65V2228.64H2364.93L2365.16 2231.12C2366.8 2229.16 2368.95 2228.17 2371.59 2228.17C2374.71 2228.17 2377.14 2229.33 2378.88 2231.64C2380.61 2233.95 2381.48 2237.14 2381.48 2241.2V2241.55ZM2374.7 2241.06C2374.7 2238.7 2374.28 2236.88 2373.44 2235.6C2372.61 2234.32 2371.4 2233.68 2369.8 2233.68C2367.68 2233.68 2366.22 2234.49 2365.42 2236.12V2246.5C2366.25 2248.17 2367.73 2249.01 2369.85 2249.01C2373.09 2249.01 2374.7 2246.36 2374.7 2241.06ZM2398.09 2254V2219.88H2408.59C2411.59 2219.88 2414.27 2220.55 2416.63 2221.91C2419.01 2223.26 2420.86 2225.18 2422.19 2227.68C2423.52 2230.16 2424.18 2232.99 2424.18 2236.16V2237.73C2424.18 2240.91 2423.52 2243.73 2422.21 2246.2C2420.91 2248.66 2419.08 2250.58 2416.7 2251.94C2414.33 2253.3 2411.65 2253.98 2408.66 2254H2398.09ZM2405.12 2225.57V2248.35H2408.52C2411.27 2248.35 2413.38 2247.45 2414.83 2245.66C2416.28 2243.86 2417.02 2241.29 2417.05 2237.95V2236.14C2417.05 2232.67 2416.34 2230.05 2414.9 2228.27C2413.46 2226.47 2411.36 2225.57 2408.59 2225.57H2405.12ZM2427.81 2241.09C2427.81 2238.57 2428.3 2236.33 2429.27 2234.36C2430.23 2232.39 2431.62 2230.87 2433.44 2229.79C2435.27 2228.71 2437.38 2228.17 2439.79 2228.17C2443.21 2228.17 2446 2229.22 2448.16 2231.31C2450.33 2233.41 2451.54 2236.25 2451.79 2239.84L2451.84 2241.58C2451.84 2245.47 2450.75 2248.59 2448.58 2250.95C2446.41 2253.3 2443.49 2254.47 2439.84 2254.47C2436.18 2254.47 2433.26 2253.3 2431.07 2250.95C2428.9 2248.61 2427.81 2245.42 2427.81 2241.39V2241.09ZM2434.59 2241.58C2434.59 2243.98 2435.04 2245.83 2435.95 2247.11C2436.85 2248.38 2438.15 2249.01 2439.84 2249.01C2441.48 2249.01 2442.76 2248.38 2443.68 2247.13C2444.6 2245.87 2445.06 2243.85 2445.06 2241.09C2445.06 2238.73 2444.6 2236.9 2443.68 2235.6C2442.76 2234.3 2441.46 2233.66 2439.79 2233.66C2438.13 2233.66 2436.85 2234.3 2435.95 2235.6C2435.04 2236.88 2434.59 2238.88 2434.59 2241.58ZM2478.06 2244.79L2481.39 2228.64H2487.93L2481.46 2254H2475.79L2470.98 2238.04L2466.18 2254H2460.53L2454.06 2228.64H2460.6L2463.91 2244.77L2468.55 2228.64H2473.45L2478.06 2244.79ZM2497.54 2228.64L2497.75 2231.57C2499.56 2229.3 2501.99 2228.17 2505.04 2228.17C2507.73 2228.17 2509.73 2228.96 2511.04 2230.54C2512.35 2232.12 2513.02 2234.48 2513.05 2237.62V2254H2506.28V2237.78C2506.28 2236.34 2505.97 2235.3 2505.34 2234.66C2504.72 2234.01 2503.68 2233.68 2502.23 2233.68C2500.32 2233.68 2498.89 2234.49 2497.94 2236.12V2254H2491.16V2228.64H2497.54ZM2539.8 2219.88L2548.56 2244.62L2557.28 2219.88H2566.52V2254H2559.46V2244.67L2560.16 2228.57L2550.95 2254H2546.12L2536.94 2228.59L2537.64 2244.67V2254H2530.61V2219.88H2539.8ZM2583.88 2254.47C2580.16 2254.47 2577.13 2253.33 2574.79 2251.05C2572.46 2248.77 2571.3 2245.73 2571.3 2241.93V2241.27C2571.3 2238.73 2571.79 2236.45 2572.77 2234.45C2573.76 2232.44 2575.15 2230.89 2576.95 2229.81C2578.76 2228.72 2580.82 2228.17 2583.13 2228.17C2586.6 2228.17 2589.33 2229.27 2591.31 2231.45C2593.31 2233.64 2594.31 2236.74 2594.31 2240.76V2243.52H2578.16C2578.38 2245.18 2579.04 2246.51 2580.13 2247.51C2581.24 2248.51 2582.64 2249.01 2584.33 2249.01C2586.94 2249.01 2588.98 2248.06 2590.45 2246.17L2593.77 2249.9C2592.76 2251.34 2591.38 2252.46 2589.65 2253.27C2587.91 2254.07 2585.99 2254.47 2583.88 2254.47ZM2583.11 2233.66C2581.77 2233.66 2580.67 2234.11 2579.83 2235.02C2579 2235.92 2578.47 2237.22 2578.23 2238.91H2587.66V2238.37C2587.62 2236.87 2587.22 2235.71 2586.44 2234.9C2585.66 2234.07 2584.55 2233.66 2583.11 2233.66ZM2604.41 2228.64L2604.62 2231.57C2606.44 2229.3 2608.87 2228.17 2611.91 2228.17C2614.6 2228.17 2616.6 2228.96 2617.91 2230.54C2619.23 2232.12 2619.9 2234.48 2619.93 2237.62V2254H2613.16V2237.78C2613.16 2236.34 2612.84 2235.3 2612.22 2234.66C2611.59 2234.01 2610.55 2233.68 2609.1 2233.68C2607.2 2233.68 2605.77 2234.49 2604.81 2236.12V2254H2598.04V2228.64H2604.41ZM2640.27 2251.42C2638.6 2253.45 2636.29 2254.47 2633.34 2254.47C2630.62 2254.47 2628.54 2253.69 2627.1 2252.12C2625.68 2250.56 2624.95 2248.27 2624.92 2245.26V2228.64H2631.7V2245.02C2631.7 2247.66 2632.9 2248.98 2635.3 2248.98C2637.6 2248.98 2639.18 2248.19 2640.04 2246.59V2228.64H2646.84V2254H2640.46L2640.27 2251.42Z" fill="black"/>
<path d="M2354.31 3007.97H2341.98L2339.64 3015H2332.16L2344.87 2980.88H2351.38L2364.16 3015H2356.68L2354.31 3007.97ZM2343.88 3002.27H2352.41L2348.12 2989.5L2343.88 3002.27ZM2365.84 3002.13C2365.84 2998.18 2366.73 2995.03 2368.49 2992.69C2370.27 2990.34 2372.7 2989.17 2375.78 2989.17C2378.25 2989.17 2380.29 2990.09 2381.9 2991.94V2979H2388.7V3015H2382.58L2382.25 3012.3C2380.56 3014.41 2378.39 3015.47 2375.73 3015.47C2372.75 3015.47 2370.35 3014.3 2368.54 3011.95C2366.74 3009.59 2365.84 3006.32 2365.84 3002.13ZM2372.62 3002.62C2372.62 3005 2373.03 3006.82 2373.86 3008.09C2374.69 3009.35 2375.89 3009.98 2377.47 3009.98C2379.56 3009.98 2381.04 3009.1 2381.9 3007.34V2997.33C2381.05 2995.56 2379.59 2994.68 2377.52 2994.68C2374.25 2994.68 2372.62 2997.33 2372.62 3002.62ZM2392.89 3002.13C2392.89 2998.18 2393.77 2995.03 2395.54 2992.69C2397.32 2990.34 2399.75 2989.17 2402.83 2989.17C2405.3 2989.17 2407.34 2990.09 2408.95 2991.94V2979H2415.74V3015H2409.62L2409.3 3012.3C2407.61 3014.41 2405.44 3015.47 2402.78 3015.47C2399.8 3015.47 2397.4 3014.3 2395.59 3011.95C2393.79 3009.59 2392.89 3006.32 2392.89 3002.13ZM2399.66 3002.62C2399.66 3005 2400.08 3006.82 2400.91 3008.09C2401.73 3009.35 2402.94 3009.98 2404.52 3009.98C2406.61 3009.98 2408.09 3009.1 2408.95 3007.34V2997.33C2408.1 2995.56 2406.64 2994.68 2404.56 2994.68C2401.3 2994.68 2399.66 2997.33 2399.66 3002.62ZM2461.14 3015H2454.11L2440.42 2992.55V3015H2433.39V2980.88H2440.42L2454.13 3003.38V2980.88H2461.14V3015ZM2478.51 3015.47C2474.79 3015.47 2471.76 3014.33 2469.41 3012.05C2467.09 3009.77 2465.92 3006.73 2465.92 3002.93V3002.27C2465.92 2999.73 2466.41 2997.45 2467.4 2995.45C2468.38 2993.44 2469.77 2991.89 2471.57 2990.81C2473.38 2989.72 2475.45 2989.17 2477.76 2989.17C2481.23 2989.17 2483.95 2990.27 2485.94 2992.45C2487.94 2994.64 2488.94 2997.74 2488.94 3001.76V3004.52H2472.79C2473.01 3006.18 2473.66 3007.51 2474.76 3008.51C2475.87 3009.51 2477.27 3010.01 2478.95 3010.01C2481.56 3010.01 2483.6 3009.06 2485.07 3007.17L2488.4 3010.9C2487.38 3012.34 2486.01 3013.46 2484.27 3014.27C2482.54 3015.07 2480.62 3015.47 2478.51 3015.47ZM2477.73 2994.66C2476.39 2994.66 2475.3 2995.11 2474.45 2996.02C2473.62 2996.92 2473.09 2998.22 2472.86 2999.91H2482.28V2999.37C2482.25 2997.87 2481.84 2996.71 2481.06 2995.9C2480.28 2995.07 2479.17 2994.66 2477.73 2994.66ZM2514.86 3005.79L2518.19 2989.64H2524.73L2518.26 3015H2512.59L2507.78 2999.04L2502.98 3015H2497.33L2490.86 2989.64H2497.4L2500.7 3005.77L2505.34 2989.64H2510.24L2514.86 3005.79ZM2553.13 3002.51H2547.53V3015H2540.5V2980.88H2553.18C2557.21 2980.88 2560.32 2981.77 2562.51 2983.57C2564.7 2985.37 2565.79 2987.91 2565.79 2991.19C2565.79 2993.52 2565.28 2995.46 2564.27 2997.02C2563.27 2998.57 2561.74 2999.8 2559.7 3000.73L2567.08 3014.67V3015H2559.53L2553.13 3002.51ZM2547.53 2996.81H2553.2C2554.97 2996.81 2556.34 2996.37 2557.3 2995.48C2558.27 2994.57 2558.76 2993.33 2558.76 2991.75C2558.76 2990.14 2558.3 2988.88 2557.38 2987.95C2556.47 2987.03 2555.07 2986.57 2553.18 2986.57H2547.53V2996.81ZM2582.38 3015.47C2578.66 3015.47 2575.63 3014.33 2573.29 3012.05C2570.96 3009.77 2569.8 3006.73 2569.8 3002.93V3002.27C2569.8 2999.73 2570.29 2997.45 2571.27 2995.45C2572.26 2993.44 2573.65 2991.89 2575.45 2990.81C2577.26 2989.72 2579.32 2989.17 2581.63 2989.17C2585.1 2989.17 2587.83 2990.27 2589.81 2992.45C2591.81 2994.64 2592.81 2997.74 2592.81 3001.76V3004.52H2576.66C2576.88 3006.18 2577.54 3007.51 2578.63 3008.51C2579.74 3009.51 2581.14 3010.01 2582.83 3010.01C2585.44 3010.01 2587.48 3009.06 2588.95 3007.17L2592.27 3010.9C2591.26 3012.34 2589.88 3013.46 2588.15 3014.27C2586.41 3015.07 2584.49 3015.47 2582.38 3015.47ZM2581.61 2994.66C2580.27 2994.66 2579.17 2995.11 2578.33 2996.02C2577.5 2996.92 2576.97 2998.22 2576.73 2999.91H2586.16V2999.37C2586.12 2997.87 2585.72 2996.71 2584.94 2995.9C2584.16 2995.07 2583.05 2994.66 2581.61 2994.66ZM2607.23 3010.01C2608.48 3010.01 2609.49 3009.66 2610.27 3008.98C2611.05 3008.29 2611.46 3007.38 2611.49 3006.23H2617.84C2617.83 3007.95 2617.36 3009.53 2616.44 3010.97C2615.52 3012.39 2614.25 3013.5 2612.64 3014.3C2611.05 3015.08 2609.28 3015.47 2607.34 3015.47C2603.72 3015.47 2600.86 3014.32 2598.77 3012.02C2596.67 3009.71 2595.62 3006.52 2595.62 3002.46V3002.02C2595.62 2998.11 2596.66 2994.99 2598.74 2992.66C2600.82 2990.34 2603.67 2989.17 2607.3 2989.17C2610.47 2989.17 2613.01 2990.08 2614.91 2991.89C2616.84 2993.69 2617.81 2996.09 2617.84 2999.09H2611.49C2611.46 2997.77 2611.05 2996.71 2610.27 2995.9C2609.49 2995.07 2608.46 2994.66 2607.18 2994.66C2605.6 2994.66 2604.41 2995.23 2603.59 2996.39C2602.8 2997.53 2602.4 2999.39 2602.4 3001.97V3002.67C2602.4 3005.28 2602.8 3007.16 2603.59 3008.3C2604.39 3009.44 2605.6 3010.01 2607.23 3010.01ZM2633.38 3015.47C2629.66 3015.47 2626.63 3014.33 2624.29 3012.05C2621.96 3009.77 2620.8 3006.73 2620.8 3002.93V3002.27C2620.8 2999.73 2621.29 2997.45 2622.27 2995.45C2623.26 2993.44 2624.65 2991.89 2626.45 2990.81C2628.26 2989.72 2630.32 2989.17 2632.63 2989.17C2636.1 2989.17 2638.83 2990.27 2640.81 2992.45C2642.81 2994.64 2643.81 2997.74 2643.81 3001.76V3004.52H2627.66C2627.88 3006.18 2628.54 3007.51 2629.63 3008.51C2630.74 3009.51 2632.14 3010.01 2633.83 3010.01C2636.44 3010.01 2638.48 3009.06 2639.95 3007.17L2643.27 3010.9C2642.26 3012.34 2640.88 3013.46 2639.15 3014.27C2637.41 3015.07 2635.49 3015.47 2633.38 3015.47ZM2632.61 2994.66C2631.27 2994.66 2630.17 2995.11 2629.33 2996.02C2628.5 2996.92 2627.97 2998.22 2627.73 2999.91H2637.16V2999.37C2637.12 2997.87 2636.72 2996.71 2635.94 2995.9C2635.16 2995.07 2634.05 2994.66 2632.61 2994.66ZM2654.83 3015H2648.03V2989.64H2654.83V3015ZM2647.63 2983.08C2647.63 2982.06 2647.97 2981.23 2648.64 2980.57C2649.33 2979.91 2650.26 2979.59 2651.43 2979.59C2652.59 2979.59 2653.51 2979.91 2654.2 2980.57C2654.88 2981.23 2655.23 2982.06 2655.23 2983.08C2655.23 2984.11 2654.88 2984.95 2654.17 2985.61C2653.48 2986.27 2652.57 2986.59 2651.43 2986.59C2650.29 2986.59 2649.37 2986.27 2648.66 2985.61C2647.98 2984.95 2647.63 2984.11 2647.63 2983.08ZM2683.26 3002.55C2683.26 3006.46 2682.37 3009.59 2680.59 3011.95C2678.82 3014.3 2676.43 3015.47 2673.41 3015.47C2670.85 3015.47 2668.78 3014.58 2667.2 3012.8V3024.75H2660.43V2989.64H2666.71L2666.95 2992.12C2668.59 2990.16 2670.73 2989.17 2673.37 2989.17C2676.49 2989.17 2678.92 2990.33 2680.66 2992.64C2682.39 2994.95 2683.26 2998.14 2683.26 3002.2V3002.55ZM2676.48 3002.06C2676.48 2999.7 2676.06 2997.88 2675.22 2996.6C2674.39 2995.32 2673.18 2994.68 2671.59 2994.68C2669.46 2994.68 2668 2995.49 2667.2 2997.12V3007.5C2668.03 3009.17 2669.51 3010.01 2671.63 3010.01C2674.87 3010.01 2676.48 3007.36 2676.48 3002.06ZM2699.15 3015.47C2695.43 3015.47 2692.4 3014.33 2690.05 3012.05C2687.73 3009.77 2686.56 3006.73 2686.56 3002.93V3002.27C2686.56 2999.73 2687.05 2997.45 2688.04 2995.45C2689.02 2993.44 2690.41 2991.89 2692.21 2990.81C2694.02 2989.72 2696.09 2989.17 2698.4 2989.17C2701.87 2989.17 2704.59 2990.27 2706.58 2992.45C2708.58 2994.64 2709.58 2997.74 2709.58 3001.76V3004.52H2693.43C2693.65 3006.18 2694.3 3007.51 2695.4 3008.51C2696.51 3009.51 2697.91 3010.01 2699.59 3010.01C2702.2 3010.01 2704.24 3009.06 2705.71 3007.17L2709.04 3010.9C2708.02 3012.34 2706.65 3013.46 2704.91 3014.27C2703.18 3015.07 2701.26 3015.47 2699.15 3015.47ZM2698.38 2994.66C2697.03 2994.66 2695.94 2995.11 2695.09 2996.02C2694.27 2996.92 2693.73 2998.22 2693.5 2999.91H2702.92V2999.37C2702.89 2997.87 2702.48 2996.71 2701.7 2995.9C2700.92 2995.07 2699.81 2994.66 2698.38 2994.66Z" fill="black"/>
<path d="M2979.99 550.058C2980.57 550.645 2981.52 550.648 2982.11 550.064L2991.68 540.546C2992.27 539.961 2992.27 539.012 2991.69 538.424C2991.1 537.837 2990.15 537.834 2989.57 538.418L2981.06 546.879L2972.59 538.369C2972.01 537.782 2971.06 537.779 2970.47 538.363C2969.89 538.947 2969.88 539.897 2970.47 540.484L2979.99 550.058ZM2980.31 286.996L2979.55 548.996L2982.55 549.004L2983.31 287.004L2980.31 286.996Z" fill="black"/>
<path d="M1808.94 723.939C1808.35 724.525 1808.35 725.475 1808.94 726.061L1818.49 735.607C1819.07 736.192 1820.02 736.192 1820.61 735.607C1821.19 735.021 1821.19 734.071 1820.61 733.485L1812.12 725L1820.61 716.515C1821.19 715.929 1821.19 714.979 1820.61 714.393C1820.02 713.808 1819.07 713.808 1818.49 714.393L1808.94 723.939ZM2660 723.5L1810 723.5V726.5L2660 726.5V723.5Z" fill="black"/>
<path d="M1443.94 2057.06C1444.53 2057.65 1445.47 2057.65 1446.06 2057.06L1455.61 2047.51C1456.19 2046.93 1456.19 2045.98 1455.61 2045.39C1455.02 2044.81 1454.07 2044.81 1453.49 2045.39L1445 2053.88L1436.51 2045.39C1435.93 2044.81 1434.98 2044.81 1434.39 2045.39C1433.81 2045.98 1433.81 2046.93 1434.39 2047.51L1443.94 2057.06ZM1443.5 1647V2056H1446.5V1647H1443.5Z" fill="black"/>
<path d="M2140.06 2264.56C2140.65 2263.97 2140.65 2263.02 2140.06 2262.44L2130.52 2252.89C2129.93 2252.31 2128.98 2252.31 2128.39 2252.89C2127.81 2253.48 2127.81 2254.43 2128.39 2255.01L2136.88 2263.5L2128.39 2271.98C2127.81 2272.57 2127.81 2273.52 2128.39 2274.11C2128.98 2274.69 2129.93 2274.69 2130.52 2274.11L2140.06 2264.56ZM1783.5 2265L2139 2265L2139 2262L1783.5 2262L1783.5 2265Z" fill="black"/>
<path d="M1444 2399V2694.5M1444 2694.5H333M1444 2694.5H1401.25M333 2694.5V2826.5M333 2694.5H1401.25M2469.5 2826.5V2694.5H1401.25" stroke="black" stroke-linecap="round" stroke-linejoin="round"/>
<path d="M1393.66 733.062C1393.66 731.292 1393.03 729.938 1391.78 729C1390.53 728.042 1388.28 727.042 1385.03 726C1381.78 724.938 1379.21 723.896 1377.31 722.875C1372.15 720.083 1369.56 716.323 1369.56 711.594C1369.56 709.135 1370.25 706.948 1371.62 705.031C1373.02 703.094 1375.01 701.583 1377.59 700.5C1380.2 699.417 1383.11 698.875 1386.34 698.875C1389.59 698.875 1392.49 699.469 1395.03 700.656C1397.57 701.823 1399.54 703.479 1400.94 705.625C1402.35 707.771 1403.06 710.208 1403.06 712.938H1393.69C1393.69 710.854 1393.03 709.24 1391.72 708.094C1390.41 706.927 1388.56 706.344 1386.19 706.344C1383.9 706.344 1382.11 706.833 1380.84 707.812C1379.57 708.771 1378.94 710.042 1378.94 711.625C1378.94 713.104 1379.68 714.344 1381.16 715.344C1382.66 716.344 1384.85 717.281 1387.75 718.156C1393.08 719.76 1396.97 721.75 1399.41 724.125C1401.84 726.5 1403.06 729.458 1403.06 733C1403.06 736.938 1401.57 740.031 1398.59 742.281C1395.61 744.51 1391.6 745.625 1386.56 745.625C1383.06 745.625 1379.88 744.99 1377 743.719C1374.12 742.427 1371.93 740.667 1370.41 738.438C1368.91 736.208 1368.16 733.625 1368.16 730.688H1377.56C1377.56 735.708 1380.56 738.219 1386.56 738.219C1388.79 738.219 1390.53 737.771 1391.78 736.875C1393.03 735.958 1393.66 734.688 1393.66 733.062ZM1422.91 738.344C1424.57 738.344 1425.93 737.885 1426.97 736.969C1428.01 736.052 1428.55 734.833 1428.59 733.312H1437.06C1437.04 735.604 1436.42 737.708 1435.19 739.625C1433.96 741.521 1432.27 743 1430.12 744.062C1428 745.104 1425.65 745.625 1423.06 745.625C1418.23 745.625 1414.42 744.094 1411.62 741.031C1408.83 737.948 1407.44 733.698 1407.44 728.281V727.688C1407.44 722.479 1408.82 718.323 1411.59 715.219C1414.36 712.115 1418.17 710.562 1423 710.562C1427.23 710.562 1430.61 711.771 1433.16 714.188C1435.72 716.583 1437.02 719.781 1437.06 723.781H1428.59C1428.55 722.031 1428.01 720.615 1426.97 719.531C1425.93 718.427 1424.55 717.875 1422.84 717.875C1420.74 717.875 1419.15 718.646 1418.06 720.188C1417 721.708 1416.47 724.188 1416.47 727.625V728.562C1416.47 732.042 1417 734.542 1418.06 736.062C1419.12 737.583 1420.74 738.344 1422.91 738.344ZM1461.22 719.656C1459.99 719.49 1458.91 719.406 1457.97 719.406C1454.55 719.406 1452.31 720.562 1451.25 722.875V745H1442.22V711.188H1450.75L1451 715.219C1452.81 712.115 1455.32 710.562 1458.53 710.562C1459.53 710.562 1460.47 710.698 1461.34 710.969L1461.22 719.656ZM1480.53 745.625C1475.57 745.625 1471.53 744.104 1468.41 741.062C1465.3 738.021 1463.75 733.969 1463.75 728.906V728.031C1463.75 724.635 1464.41 721.604 1465.72 718.938C1467.03 716.25 1468.89 714.188 1471.28 712.75C1473.7 711.292 1476.45 710.562 1479.53 710.562C1484.16 710.562 1487.79 712.021 1490.44 714.938C1493.1 717.854 1494.44 721.99 1494.44 727.344V731.031H1472.91C1473.2 733.24 1474.07 735.01 1475.53 736.344C1477.01 737.677 1478.88 738.344 1481.12 738.344C1484.6 738.344 1487.32 737.083 1489.28 734.562L1493.72 739.531C1492.36 741.448 1490.53 742.948 1488.22 744.031C1485.91 745.094 1483.34 745.625 1480.53 745.625ZM1479.5 717.875C1477.71 717.875 1476.25 718.479 1475.12 719.688C1474.02 720.896 1473.31 722.625 1473 724.875H1485.56V724.156C1485.52 722.156 1484.98 720.615 1483.94 719.531C1482.9 718.427 1481.42 717.875 1479.5 717.875ZM1515.16 745.625C1510.2 745.625 1506.16 744.104 1503.03 741.062C1499.93 738.021 1498.38 733.969 1498.38 728.906V728.031C1498.38 724.635 1499.03 721.604 1500.34 718.938C1501.66 716.25 1503.51 714.188 1505.91 712.75C1508.32 711.292 1511.07 710.562 1514.16 710.562C1518.78 710.562 1522.42 712.021 1525.06 714.938C1527.73 717.854 1529.06 721.99 1529.06 727.344V731.031H1507.53C1507.82 733.24 1508.7 735.01 1510.16 736.344C1511.64 737.677 1513.5 738.344 1515.75 738.344C1519.23 738.344 1521.95 737.083 1523.91 734.562L1528.34 739.531C1526.99 741.448 1525.16 742.948 1522.84 744.031C1520.53 745.094 1517.97 745.625 1515.16 745.625ZM1514.12 717.875C1512.33 717.875 1510.88 718.479 1509.75 719.688C1508.65 720.896 1507.94 722.625 1507.62 724.875H1520.19V724.156C1520.15 722.156 1519.6 720.615 1518.56 719.531C1517.52 718.427 1516.04 717.875 1514.12 717.875ZM1542.53 711.188L1542.81 715.094C1545.23 712.073 1548.47 710.562 1552.53 710.562C1556.11 710.562 1558.78 711.615 1560.53 713.719C1562.28 715.823 1563.18 718.969 1563.22 723.156V745H1554.19V723.375C1554.19 721.458 1553.77 720.073 1552.94 719.219C1552.1 718.344 1550.72 717.906 1548.78 717.906C1546.24 717.906 1544.33 718.99 1543.06 721.156V745H1534.03V711.188H1542.53ZM1588.41 735.656C1588.41 734.552 1587.85 733.688 1586.75 733.062C1585.67 732.417 1583.92 731.844 1581.5 731.344C1573.46 729.656 1569.44 726.24 1569.44 721.094C1569.44 718.094 1570.68 715.594 1573.16 713.594C1575.66 711.573 1578.92 710.562 1582.94 710.562C1587.23 710.562 1590.66 711.573 1593.22 713.594C1595.8 715.615 1597.09 718.24 1597.09 721.469H1588.06C1588.06 720.177 1587.65 719.115 1586.81 718.281C1585.98 717.427 1584.68 717 1582.91 717C1581.39 717 1580.21 717.344 1579.38 718.031C1578.54 718.719 1578.12 719.594 1578.12 720.656C1578.12 721.656 1578.59 722.469 1579.53 723.094C1580.49 723.698 1582.09 724.229 1584.34 724.688C1586.59 725.125 1588.49 725.625 1590.03 726.188C1594.8 727.938 1597.19 730.969 1597.19 735.281C1597.19 738.365 1595.86 740.865 1593.22 742.781C1590.57 744.677 1587.16 745.625 1582.97 745.625C1580.14 745.625 1577.61 745.125 1575.41 744.125C1573.22 743.104 1571.5 741.719 1570.25 739.969C1569 738.198 1568.38 736.292 1568.38 734.25H1576.94C1577.02 735.854 1577.61 737.083 1578.72 737.938C1579.82 738.792 1581.3 739.219 1583.16 739.219C1584.89 739.219 1586.19 738.896 1587.06 738.25C1587.96 737.583 1588.41 736.719 1588.41 735.656Z" fill="black"/>
<path d="M1443.94 1300.06C1444.53 1300.65 1445.47 1300.65 1446.06 1300.06L1455.61 1290.51C1456.19 1289.93 1456.19 1288.98 1455.61 1288.39C1455.02 1287.81 1454.07 1287.81 1453.49 1288.39L1445 1296.88L1436.51 1288.39C1435.93 1287.81 1434.98 1287.81 1434.39 1288.39C1433.81 1288.98 1433.81 1289.93 1434.39 1290.51L1443.94 1300.06ZM1443.5 924V1299H1446.5V924H1443.5Z" fill="black"/>
<path d="M4686.06 724.061C4686.65 723.475 4686.65 722.525 4686.06 721.939L4676.51 712.393C4675.93 711.808 4674.98 711.808 4674.39 712.393C4673.81 712.979 4673.81 713.929 4674.39 714.515L4682.88 723L4674.39 731.485C4673.81 732.071 4673.81 733.021 4674.39 733.607C4674.98 734.192 4675.93 734.192 4676.51 733.607L4686.06 724.061ZM3302 724.5H4685V721.5H3302V724.5Z" fill="black"/>
<path d="M5008.94 1163.06C5009.53 1163.65 5010.47 1163.65 5011.06 1163.06L5020.61 1153.51C5021.19 1152.93 5021.19 1151.98 5020.61 1151.39C5020.02 1150.81 5019.07 1150.81 5018.49 1151.39L5010 1159.88L5001.51 1151.39C5000.93 1150.81 4999.98 1150.81 4999.39 1151.39C4998.81 1151.98 4998.81 1152.93 4999.39 1153.51L5008.94 1163.06ZM5008.5 920V1162H5011.5V920H5008.5Z" fill="black"/>
<path d="M4038 1265.5V1191H5012H5968V1265.5" stroke="black" stroke-linecap="round" stroke-linejoin="round"/>
<path d="M3943.91 1468.34H3936.44V1485H3927.06V1439.5H3943.97C3949.34 1439.5 3953.49 1440.7 3956.41 1443.09C3959.32 1445.49 3960.78 1448.88 3960.78 1453.25C3960.78 1456.35 3960.1 1458.95 3958.75 1461.03C3957.42 1463.09 3955.39 1464.74 3952.66 1465.97L3962.5 1484.56V1485H3952.44L3943.91 1468.34ZM3936.44 1460.75H3944C3946.35 1460.75 3948.18 1460.16 3949.47 1458.97C3950.76 1457.76 3951.41 1456.1 3951.41 1454C3951.41 1451.85 3950.79 1450.17 3949.56 1448.94C3948.35 1447.71 3946.49 1447.09 3943.97 1447.09H3936.44V1460.75ZM3982.91 1485.62C3977.95 1485.62 3973.91 1484.1 3970.78 1481.06C3967.68 1478.02 3966.12 1473.97 3966.12 1468.91V1468.03C3966.12 1464.64 3966.78 1461.6 3968.09 1458.94C3969.41 1456.25 3971.26 1454.19 3973.66 1452.75C3976.07 1451.29 3978.82 1450.56 3981.91 1450.56C3986.53 1450.56 3990.17 1452.02 3992.81 1454.94C3995.48 1457.85 3996.81 1461.99 3996.81 1467.34V1471.03H3975.28C3975.57 1473.24 3976.45 1475.01 3977.91 1476.34C3979.39 1477.68 3981.25 1478.34 3983.5 1478.34C3986.98 1478.34 3989.7 1477.08 3991.66 1474.56L3996.09 1479.53C3994.74 1481.45 3992.91 1482.95 3990.59 1484.03C3988.28 1485.09 3985.72 1485.62 3982.91 1485.62ZM3981.88 1457.88C3980.08 1457.88 3978.62 1458.48 3977.5 1459.69C3976.4 1460.9 3975.69 1462.62 3975.38 1464.88H3987.94V1464.16C3987.9 1462.16 3987.35 1460.61 3986.31 1459.53C3985.27 1458.43 3983.79 1457.88 3981.88 1457.88ZM4016.03 1478.34C4017.7 1478.34 4019.05 1477.89 4020.09 1476.97C4021.14 1476.05 4021.68 1474.83 4021.72 1473.31H4030.19C4030.17 1475.6 4029.54 1477.71 4028.31 1479.62C4027.08 1481.52 4025.4 1483 4023.25 1484.06C4021.12 1485.1 4018.77 1485.62 4016.19 1485.62C4011.35 1485.62 4007.54 1484.09 4004.75 1481.03C4001.96 1477.95 4000.56 1473.7 4000.56 1468.28V1467.69C4000.56 1462.48 4001.95 1458.32 4004.72 1455.22C4007.49 1452.11 4011.29 1450.56 4016.12 1450.56C4020.35 1450.56 4023.74 1451.77 4026.28 1454.19C4028.84 1456.58 4030.15 1459.78 4030.19 1463.78H4021.72C4021.68 1462.03 4021.14 1460.61 4020.09 1459.53C4019.05 1458.43 4017.68 1457.88 4015.97 1457.88C4013.86 1457.88 4012.27 1458.65 4011.19 1460.19C4010.12 1461.71 4009.59 1464.19 4009.59 1467.62V1468.56C4009.59 1472.04 4010.12 1474.54 4011.19 1476.06C4012.25 1477.58 4013.86 1478.34 4016.03 1478.34ZM4044.88 1485H4035.81V1451.19H4044.88V1485ZM4035.28 1442.44C4035.28 1441.08 4035.73 1439.97 4036.62 1439.09C4037.54 1438.22 4038.78 1437.78 4040.34 1437.78C4041.89 1437.78 4043.11 1438.22 4044.03 1439.09C4044.95 1439.97 4045.41 1441.08 4045.41 1442.44C4045.41 1443.81 4044.94 1444.94 4044 1445.81C4043.08 1446.69 4041.86 1447.12 4040.34 1447.12C4038.82 1447.12 4037.59 1446.69 4036.66 1445.81C4035.74 1444.94 4035.28 1443.81 4035.28 1442.44ZM4082.78 1468.41C4082.78 1473.61 4081.59 1477.79 4079.22 1480.94C4076.86 1484.06 4073.68 1485.62 4069.66 1485.62C4066.24 1485.62 4063.48 1484.44 4061.38 1482.06V1498H4052.34V1451.19H4060.72L4061.03 1454.5C4063.22 1451.88 4066.07 1450.56 4069.59 1450.56C4073.76 1450.56 4077 1452.1 4079.31 1455.19C4081.62 1458.27 4082.78 1462.52 4082.78 1467.94V1468.41ZM4073.75 1467.75C4073.75 1464.6 4073.19 1462.18 4072.06 1460.47C4070.96 1458.76 4069.34 1457.91 4067.22 1457.91C4064.39 1457.91 4062.44 1458.99 4061.38 1461.16V1475C4062.48 1477.23 4064.45 1478.34 4067.28 1478.34C4071.59 1478.34 4073.75 1474.81 4073.75 1467.75ZM4103.97 1485.62C4099.01 1485.62 4094.97 1484.1 4091.84 1481.06C4088.74 1478.02 4087.19 1473.97 4087.19 1468.91V1468.03C4087.19 1464.64 4087.84 1461.6 4089.16 1458.94C4090.47 1456.25 4092.32 1454.19 4094.72 1452.75C4097.14 1451.29 4099.89 1450.56 4102.97 1450.56C4107.59 1450.56 4111.23 1452.02 4113.88 1454.94C4116.54 1457.85 4117.88 1461.99 4117.88 1467.34V1471.03H4096.34C4096.64 1473.24 4097.51 1475.01 4098.97 1476.34C4100.45 1477.68 4102.31 1478.34 4104.56 1478.34C4108.04 1478.34 4110.76 1477.08 4112.72 1474.56L4117.16 1479.53C4115.8 1481.45 4113.97 1482.95 4111.66 1484.03C4109.34 1485.09 4106.78 1485.62 4103.97 1485.62ZM4102.94 1457.88C4101.15 1457.88 4099.69 1458.48 4098.56 1459.69C4097.46 1460.9 4096.75 1462.62 4096.44 1464.88H4109V1464.16C4108.96 1462.16 4108.42 1460.61 4107.38 1459.53C4106.33 1458.43 4104.85 1457.88 4102.94 1457.88ZM4141.34 1475.66C4141.34 1474.55 4140.79 1473.69 4139.69 1473.06C4138.6 1472.42 4136.85 1471.84 4134.44 1471.34C4126.4 1469.66 4122.38 1466.24 4122.38 1461.09C4122.38 1458.09 4123.61 1455.59 4126.09 1453.59C4128.59 1451.57 4131.85 1450.56 4135.88 1450.56C4140.17 1450.56 4143.59 1451.57 4146.16 1453.59C4148.74 1455.61 4150.03 1458.24 4150.03 1461.47H4141C4141 1460.18 4140.58 1459.11 4139.75 1458.28C4138.92 1457.43 4137.61 1457 4135.84 1457C4134.32 1457 4133.15 1457.34 4132.31 1458.03C4131.48 1458.72 4131.06 1459.59 4131.06 1460.66C4131.06 1461.66 4131.53 1462.47 4132.47 1463.09C4133.43 1463.7 4135.03 1464.23 4137.28 1464.69C4139.53 1465.12 4141.43 1465.62 4142.97 1466.19C4147.74 1467.94 4150.12 1470.97 4150.12 1475.28C4150.12 1478.36 4148.8 1480.86 4146.16 1482.78C4143.51 1484.68 4140.09 1485.62 4135.91 1485.62C4133.07 1485.62 4130.55 1485.12 4128.34 1484.12C4126.16 1483.1 4124.44 1481.72 4123.19 1479.97C4121.94 1478.2 4121.31 1476.29 4121.31 1474.25H4129.88C4129.96 1475.85 4130.55 1477.08 4131.66 1477.94C4132.76 1478.79 4134.24 1479.22 4136.09 1479.22C4137.82 1479.22 4139.12 1478.9 4140 1478.25C4140.9 1477.58 4141.34 1476.72 4141.34 1475.66Z" fill="black"/>
<path d="M4855.66 1480.06C4855.66 1478.29 4855.03 1476.94 4853.78 1476C4852.53 1475.04 4850.28 1474.04 4847.03 1473C4843.78 1471.94 4841.21 1470.9 4839.31 1469.88C4834.15 1467.08 4831.56 1463.32 4831.56 1458.59C4831.56 1456.14 4832.25 1453.95 4833.62 1452.03C4835.02 1450.09 4837.01 1448.58 4839.59 1447.5C4842.2 1446.42 4845.11 1445.88 4848.34 1445.88C4851.59 1445.88 4854.49 1446.47 4857.03 1447.66C4859.57 1448.82 4861.54 1450.48 4862.94 1452.62C4864.35 1454.77 4865.06 1457.21 4865.06 1459.94H4855.69C4855.69 1457.85 4855.03 1456.24 4853.72 1455.09C4852.41 1453.93 4850.56 1453.34 4848.19 1453.34C4845.9 1453.34 4844.11 1453.83 4842.84 1454.81C4841.57 1455.77 4840.94 1457.04 4840.94 1458.62C4840.94 1460.1 4841.68 1461.34 4843.16 1462.34C4844.66 1463.34 4846.85 1464.28 4849.75 1465.16C4855.08 1466.76 4858.97 1468.75 4861.41 1471.12C4863.84 1473.5 4865.06 1476.46 4865.06 1480C4865.06 1483.94 4863.57 1487.03 4860.59 1489.28C4857.61 1491.51 4853.6 1492.62 4848.56 1492.62C4845.06 1492.62 4841.88 1491.99 4839 1490.72C4836.12 1489.43 4833.93 1487.67 4832.41 1485.44C4830.91 1483.21 4830.16 1480.62 4830.16 1477.69H4839.56C4839.56 1482.71 4842.56 1485.22 4848.56 1485.22C4850.79 1485.22 4852.53 1484.77 4853.78 1483.88C4855.03 1482.96 4855.66 1481.69 4855.66 1480.06ZM4886.41 1492.62C4881.45 1492.62 4877.41 1491.1 4874.28 1488.06C4871.18 1485.02 4869.62 1480.97 4869.62 1475.91V1475.03C4869.62 1471.64 4870.28 1468.6 4871.59 1465.94C4872.91 1463.25 4874.76 1461.19 4877.16 1459.75C4879.57 1458.29 4882.32 1457.56 4885.41 1457.56C4890.03 1457.56 4893.67 1459.02 4896.31 1461.94C4898.98 1464.85 4900.31 1468.99 4900.31 1474.34V1478.03H4878.78C4879.07 1480.24 4879.95 1482.01 4881.41 1483.34C4882.89 1484.68 4884.75 1485.34 4887 1485.34C4890.48 1485.34 4893.2 1484.08 4895.16 1481.56L4899.59 1486.53C4898.24 1488.45 4896.41 1489.95 4894.09 1491.03C4891.78 1492.09 4889.22 1492.62 4886.41 1492.62ZM4885.38 1464.88C4883.58 1464.88 4882.12 1465.48 4881 1466.69C4879.9 1467.9 4879.19 1469.62 4878.88 1471.88H4891.44V1471.16C4891.4 1469.16 4890.85 1467.61 4889.81 1466.53C4888.77 1465.43 4887.29 1464.88 4885.38 1464.88ZM4925.06 1492C4924.65 1491.19 4924.34 1490.18 4924.16 1488.97C4921.97 1491.41 4919.12 1492.62 4915.62 1492.62C4912.31 1492.62 4909.56 1491.67 4907.38 1489.75C4905.21 1487.83 4904.12 1485.42 4904.12 1482.5C4904.12 1478.92 4905.45 1476.17 4908.09 1474.25C4910.76 1472.33 4914.6 1471.36 4919.62 1471.34H4923.78V1469.41C4923.78 1467.84 4923.38 1466.59 4922.56 1465.66C4921.77 1464.72 4920.51 1464.25 4918.78 1464.25C4917.26 1464.25 4916.06 1464.61 4915.19 1465.34C4914.33 1466.07 4913.91 1467.07 4913.91 1468.34H4904.88C4904.88 1466.39 4905.48 1464.57 4906.69 1462.91C4907.9 1461.24 4909.6 1459.94 4911.81 1459C4914.02 1458.04 4916.5 1457.56 4919.25 1457.56C4923.42 1457.56 4926.72 1458.61 4929.16 1460.72C4931.61 1462.8 4932.84 1465.74 4932.84 1469.53V1484.19C4932.86 1487.4 4933.31 1489.82 4934.19 1491.47V1492H4925.06ZM4917.59 1485.72C4918.93 1485.72 4920.16 1485.43 4921.28 1484.84C4922.41 1484.24 4923.24 1483.44 4923.78 1482.44V1476.62H4920.41C4915.89 1476.62 4913.48 1478.19 4913.19 1481.31L4913.16 1481.84C4913.16 1482.97 4913.55 1483.9 4914.34 1484.62C4915.14 1485.35 4916.22 1485.72 4917.59 1485.72ZM4958.78 1466.66C4957.55 1466.49 4956.47 1466.41 4955.53 1466.41C4952.11 1466.41 4949.88 1467.56 4948.81 1469.88V1492H4939.78V1458.19H4948.31L4948.56 1462.22C4950.38 1459.11 4952.89 1457.56 4956.09 1457.56C4957.09 1457.56 4958.03 1457.7 4958.91 1457.97L4958.78 1466.66ZM4976.59 1485.34C4978.26 1485.34 4979.61 1484.89 4980.66 1483.97C4981.7 1483.05 4982.24 1481.83 4982.28 1480.31H4990.75C4990.73 1482.6 4990.1 1484.71 4988.88 1486.62C4987.65 1488.52 4985.96 1490 4983.81 1491.06C4981.69 1492.1 4979.33 1492.62 4976.75 1492.62C4971.92 1492.62 4968.1 1491.09 4965.31 1488.03C4962.52 1484.95 4961.12 1480.7 4961.12 1475.28V1474.69C4961.12 1469.48 4962.51 1465.32 4965.28 1462.22C4968.05 1459.11 4971.85 1457.56 4976.69 1457.56C4980.92 1457.56 4984.3 1458.77 4986.84 1461.19C4989.41 1463.58 4990.71 1466.78 4990.75 1470.78H4982.28C4982.24 1469.03 4981.7 1467.61 4980.66 1466.53C4979.61 1465.43 4978.24 1464.88 4976.53 1464.88C4974.43 1464.88 4972.83 1465.65 4971.75 1467.19C4970.69 1468.71 4970.16 1471.19 4970.16 1474.62V1475.56C4970.16 1479.04 4970.69 1481.54 4971.75 1483.06C4972.81 1484.58 4974.43 1485.34 4976.59 1485.34ZM5004.72 1461.88C5007.11 1459 5010.12 1457.56 5013.75 1457.56C5021.08 1457.56 5024.8 1461.82 5024.91 1470.34V1492H5015.88V1470.59C5015.88 1468.66 5015.46 1467.23 5014.62 1466.31C5013.79 1465.38 5012.41 1464.91 5010.47 1464.91C5007.82 1464.91 5005.91 1465.93 5004.72 1467.97V1492H4995.69V1444H5004.72V1461.88ZM5058.22 1492H5048.84V1446.5H5058.22V1492ZM5074.66 1458.19L5074.94 1462.09C5077.35 1459.07 5080.59 1457.56 5084.66 1457.56C5088.24 1457.56 5090.91 1458.61 5092.66 1460.72C5094.41 1462.82 5095.3 1465.97 5095.34 1470.16V1492H5086.31V1470.38C5086.31 1468.46 5085.9 1467.07 5085.06 1466.22C5084.23 1465.34 5082.84 1464.91 5080.91 1464.91C5078.36 1464.91 5076.46 1465.99 5075.19 1468.16V1492H5066.16V1458.19H5074.66ZM5132.66 1475.41C5132.66 1480.61 5131.47 1484.79 5129.09 1487.94C5126.74 1491.06 5123.55 1492.62 5119.53 1492.62C5116.11 1492.62 5113.35 1491.44 5111.25 1489.06V1505H5102.22V1458.19H5110.59L5110.91 1461.5C5113.09 1458.88 5115.95 1457.56 5119.47 1457.56C5123.64 1457.56 5126.88 1459.1 5129.19 1462.19C5131.5 1465.27 5132.66 1469.52 5132.66 1474.94V1475.41ZM5123.62 1474.75C5123.62 1471.6 5123.06 1469.18 5121.94 1467.47C5120.83 1465.76 5119.22 1464.91 5117.09 1464.91C5114.26 1464.91 5112.31 1465.99 5111.25 1468.16V1482C5112.35 1484.23 5114.32 1485.34 5117.16 1485.34C5121.47 1485.34 5123.62 1481.81 5123.62 1474.75ZM5158.53 1488.56C5156.3 1491.27 5153.22 1492.62 5149.28 1492.62C5145.66 1492.62 5142.89 1491.58 5140.97 1489.5C5139.07 1487.42 5138.1 1484.36 5138.06 1480.34V1458.19H5147.09V1480.03C5147.09 1483.55 5148.7 1485.31 5151.91 1485.31C5154.97 1485.31 5157.07 1484.25 5158.22 1482.12V1458.19H5167.28V1492H5158.78L5158.53 1488.56ZM5184.91 1449.88V1458.19H5190.69V1464.81H5184.91V1481.69C5184.91 1482.94 5185.15 1483.83 5185.62 1484.38C5186.1 1484.92 5187.02 1485.19 5188.38 1485.19C5189.38 1485.19 5190.26 1485.11 5191.03 1484.97V1491.81C5189.26 1492.35 5187.44 1492.62 5185.56 1492.62C5179.23 1492.62 5176 1489.43 5175.88 1483.03V1464.81H5170.94V1458.19H5175.88V1449.88H5184.91Z" fill="black"/>
</svg>
