<svg width="8119" height="3106" viewBox="0 0 8119 3106" fill="none" xmlns="http://www.w3.org/2000/svg">
<path d="M390 1369H1040V1712H390V1369Z" fill="#34BFD2"/>
<rect x="5244" y="577" width="650" height="343" fill="#ADC4C7"/>
<rect x="7489" y="1265" width="630" height="343" fill="#ADC4C7"/>
<path d="M7744.06 1458H7734.69L7716.44 1428.06V1458H7707.06V1412.5H7716.44L7734.72 1442.5V1412.5H7744.06V1458ZM7771.25 1458C7770.83 1457.19 7770.53 1456.18 7770.34 1454.97C7768.16 1457.41 7765.31 1458.62 7761.81 1458.62C7758.5 1458.62 7755.75 1457.67 7753.56 1455.75C7751.4 1453.83 7750.31 1451.42 7750.31 1448.5C7750.31 1444.92 7751.64 1442.17 7754.28 1440.25C7756.95 1438.33 7760.79 1437.36 7765.81 1437.34H7769.97V1435.41C7769.97 1433.84 7769.56 1432.59 7768.75 1431.66C7767.96 1430.72 7766.7 1430.25 7764.97 1430.25C7763.45 1430.25 7762.25 1430.61 7761.38 1431.34C7760.52 1432.07 7760.09 1433.07 7760.09 1434.34H7751.06C7751.06 1432.39 7751.67 1430.57 7752.88 1428.91C7754.08 1427.24 7755.79 1425.94 7758 1425C7760.21 1424.04 7762.69 1423.56 7765.44 1423.56C7769.6 1423.56 7772.91 1424.61 7775.34 1426.72C7777.8 1428.8 7779.03 1431.74 7779.03 1435.53V1450.19C7779.05 1453.4 7779.5 1455.82 7780.38 1457.47V1458H7771.25ZM7763.78 1451.72C7765.11 1451.72 7766.34 1451.43 7767.47 1450.84C7768.59 1450.24 7769.43 1449.44 7769.97 1448.44V1442.62H7766.59C7762.07 1442.62 7759.67 1444.19 7759.38 1447.31L7759.34 1447.84C7759.34 1448.97 7759.74 1449.9 7760.53 1450.62C7761.32 1451.35 7762.41 1451.72 7763.78 1451.72ZM7798.12 1446.97L7804.41 1424.19H7813.84L7802.44 1458H7793.81L7782.41 1424.19H7791.84L7798.12 1446.97ZM7848.31 1441.41C7848.31 1446.82 7847.16 1451.05 7844.84 1454.09C7842.53 1457.11 7839.3 1458.62 7835.16 1458.62C7831.49 1458.62 7828.56 1457.22 7826.38 1454.41L7825.97 1458H7817.84V1410H7826.88V1427.22C7828.96 1424.78 7831.7 1423.56 7835.09 1423.56C7839.22 1423.56 7842.45 1425.08 7844.78 1428.12C7847.14 1431.15 7848.31 1435.41 7848.31 1440.91V1441.41ZM7839.28 1440.75C7839.28 1437.33 7838.74 1434.84 7837.66 1433.28C7836.57 1431.7 7834.96 1430.91 7832.81 1430.91C7829.94 1430.91 7827.96 1432.08 7826.88 1434.44V1447.78C7827.98 1450.16 7829.98 1451.34 7832.88 1451.34C7835.79 1451.34 7837.71 1449.91 7838.62 1447.03C7839.06 1445.66 7839.28 1443.56 7839.28 1440.75ZM7873.5 1458C7873.08 1457.19 7872.78 1456.18 7872.59 1454.97C7870.41 1457.41 7867.56 1458.62 7864.06 1458.62C7860.75 1458.62 7858 1457.67 7855.81 1455.75C7853.65 1453.83 7852.56 1451.42 7852.56 1448.5C7852.56 1444.92 7853.89 1442.17 7856.53 1440.25C7859.2 1438.33 7863.04 1437.36 7868.06 1437.34H7872.22V1435.41C7872.22 1433.84 7871.81 1432.59 7871 1431.66C7870.21 1430.72 7868.95 1430.25 7867.22 1430.25C7865.7 1430.25 7864.5 1430.61 7863.62 1431.34C7862.77 1432.07 7862.34 1433.07 7862.34 1434.34H7853.31C7853.31 1432.39 7853.92 1430.57 7855.12 1428.91C7856.33 1427.24 7858.04 1425.94 7860.25 1425C7862.46 1424.04 7864.94 1423.56 7867.69 1423.56C7871.85 1423.56 7875.16 1424.61 7877.59 1426.72C7880.05 1428.8 7881.28 1431.74 7881.28 1435.53V1450.19C7881.3 1453.4 7881.75 1455.82 7882.62 1457.47V1458H7873.5ZM7866.03 1451.72C7867.36 1451.72 7868.59 1451.43 7869.72 1450.84C7870.84 1450.24 7871.68 1449.44 7872.22 1448.44V1442.62H7868.84C7864.32 1442.62 7861.92 1444.19 7861.62 1447.31L7861.59 1447.84C7861.59 1448.97 7861.99 1449.9 7862.78 1450.62C7863.57 1451.35 7864.66 1451.72 7866.03 1451.72ZM7907.22 1432.66C7905.99 1432.49 7904.91 1432.41 7903.97 1432.41C7900.55 1432.41 7898.31 1433.56 7897.25 1435.88V1458H7888.22V1424.19H7896.75L7897 1428.22C7898.81 1425.11 7901.32 1423.56 7904.53 1423.56C7905.53 1423.56 7906.47 1423.7 7907.34 1423.97L7907.22 1432.66Z" fill="black"/>
<rect x="5251" y="1265" width="650" height="343" fill="#ADC4C7"/>
<rect x="3715" y="1265" width="650" height="343" fill="#ADC4C7"/>
<path d="M5429.78 759.844C5429.43 764.74 5427.61 768.594 5424.34 771.406C5421.09 774.219 5416.8 775.625 5411.47 775.625C5405.64 775.625 5401.04 773.667 5397.69 769.75C5394.35 765.812 5392.69 760.417 5392.69 753.562V750.781C5392.69 746.406 5393.46 742.552 5395 739.219C5396.54 735.885 5398.74 733.333 5401.59 731.562C5404.47 729.771 5407.8 728.875 5411.59 728.875C5416.84 728.875 5421.07 730.281 5424.28 733.094C5427.49 735.906 5429.34 739.854 5429.84 744.938H5420.47C5420.24 742 5419.42 739.875 5418 738.562C5416.6 737.229 5414.47 736.562 5411.59 736.562C5408.47 736.562 5406.12 737.688 5404.56 739.938C5403.02 742.167 5402.23 745.635 5402.19 750.344V753.781C5402.19 758.698 5402.93 762.292 5404.41 764.562C5405.91 766.833 5408.26 767.969 5411.47 767.969C5414.36 767.969 5416.52 767.312 5417.94 766C5419.38 764.667 5420.2 762.615 5420.41 759.844H5429.78ZM5433.94 757.781C5433.94 754.427 5434.58 751.438 5435.88 748.812C5437.17 746.188 5439.02 744.156 5441.44 742.719C5443.88 741.281 5446.7 740.562 5449.91 740.562C5454.47 740.562 5458.19 741.958 5461.06 744.75C5463.96 747.542 5465.57 751.333 5465.91 756.125L5465.97 758.438C5465.97 763.625 5464.52 767.792 5461.62 770.938C5458.73 774.062 5454.84 775.625 5449.97 775.625C5445.09 775.625 5441.2 774.062 5438.28 770.938C5435.39 767.812 5433.94 763.562 5433.94 758.188V757.781ZM5442.97 758.438C5442.97 761.646 5443.57 764.104 5444.78 765.812C5445.99 767.5 5447.72 768.344 5449.97 768.344C5452.16 768.344 5453.86 767.51 5455.09 765.844C5456.32 764.156 5456.94 761.469 5456.94 757.781C5456.94 754.635 5456.32 752.198 5455.09 750.469C5453.86 748.74 5452.14 747.875 5449.91 747.875C5447.7 747.875 5445.99 748.74 5444.78 750.469C5443.57 752.177 5442.97 754.833 5442.97 758.438ZM5480 741.188L5480.28 744.969C5482.68 742.031 5485.92 740.562 5490 740.562C5494.35 740.562 5497.34 742.281 5498.97 745.719C5501.34 742.281 5504.73 740.562 5509.12 740.562C5512.79 740.562 5515.52 741.635 5517.31 743.781C5519.1 745.906 5520 749.115 5520 753.406V775H5510.94V753.438C5510.94 751.521 5510.56 750.125 5509.81 749.25C5509.06 748.354 5507.74 747.906 5505.84 747.906C5503.14 747.906 5501.26 749.198 5500.22 751.781L5500.25 775H5491.22V753.469C5491.22 751.51 5490.83 750.094 5490.06 749.219C5489.29 748.344 5487.98 747.906 5486.12 747.906C5483.56 747.906 5481.71 748.969 5480.56 751.094V775H5471.53V741.188H5480ZM5557.41 758.406C5557.41 763.615 5556.22 767.792 5553.84 770.938C5551.49 774.062 5548.3 775.625 5544.28 775.625C5540.86 775.625 5538.1 774.438 5536 772.062V788H5526.97V741.188H5535.34L5535.66 744.5C5537.84 741.875 5540.7 740.562 5544.22 740.562C5548.39 740.562 5551.62 742.104 5553.94 745.188C5556.25 748.271 5557.41 752.521 5557.41 757.938V758.406ZM5548.38 757.75C5548.38 754.604 5547.81 752.177 5546.69 750.469C5545.58 748.76 5543.97 747.906 5541.84 747.906C5539.01 747.906 5537.06 748.99 5536 751.156V765C5537.1 767.229 5539.07 768.344 5541.91 768.344C5546.22 768.344 5548.38 764.812 5548.38 757.75ZM5561.62 757.781C5561.62 754.427 5562.27 751.438 5563.56 748.812C5564.85 746.188 5566.71 744.156 5569.12 742.719C5571.56 741.281 5574.39 740.562 5577.59 740.562C5582.16 740.562 5585.88 741.958 5588.75 744.75C5591.65 747.542 5593.26 751.333 5593.59 756.125L5593.66 758.438C5593.66 763.625 5592.21 767.792 5589.31 770.938C5586.42 774.062 5582.53 775.625 5577.66 775.625C5572.78 775.625 5568.89 774.062 5565.97 770.938C5563.07 767.812 5561.62 763.562 5561.62 758.188V757.781ZM5570.66 758.438C5570.66 761.646 5571.26 764.104 5572.47 765.812C5573.68 767.5 5575.41 768.344 5577.66 768.344C5579.84 768.344 5581.55 767.51 5582.78 765.844C5584.01 764.156 5584.62 761.469 5584.62 757.781C5584.62 754.635 5584.01 752.198 5582.78 750.469C5581.55 748.74 5579.82 747.875 5577.59 747.875C5575.39 747.875 5573.68 748.74 5572.47 750.469C5571.26 752.177 5570.66 754.833 5570.66 758.438ZM5607.53 741.188L5607.81 745.094C5610.23 742.073 5613.47 740.562 5617.53 740.562C5621.11 740.562 5623.78 741.615 5625.53 743.719C5627.28 745.823 5628.18 748.969 5628.22 753.156V775H5619.19V753.375C5619.19 751.458 5618.77 750.073 5617.94 749.219C5617.1 748.344 5615.72 747.906 5613.78 747.906C5611.24 747.906 5609.33 748.99 5608.06 751.156V775H5599.03V741.188H5607.53ZM5650.66 775.625C5645.7 775.625 5641.66 774.104 5638.53 771.062C5635.43 768.021 5633.88 763.969 5633.88 758.906V758.031C5633.88 754.635 5634.53 751.604 5635.84 748.938C5637.16 746.25 5639.01 744.188 5641.41 742.75C5643.82 741.292 5646.57 740.562 5649.66 740.562C5654.28 740.562 5657.92 742.021 5660.56 744.938C5663.23 747.854 5664.56 751.99 5664.56 757.344V761.031H5643.03C5643.32 763.24 5644.2 765.01 5645.66 766.344C5647.14 767.677 5649 768.344 5651.25 768.344C5654.73 768.344 5657.45 767.083 5659.41 764.562L5663.84 769.531C5662.49 771.448 5660.66 772.948 5658.34 774.031C5656.03 775.094 5653.47 775.625 5650.66 775.625ZM5649.62 747.875C5647.83 747.875 5646.38 748.479 5645.25 749.688C5644.15 750.896 5643.44 752.625 5643.12 754.875H5655.69V754.156C5655.65 752.156 5655.1 750.615 5654.06 749.531C5653.02 748.427 5651.54 747.875 5649.62 747.875ZM5678.03 741.188L5678.31 745.094C5680.73 742.073 5683.97 740.562 5688.03 740.562C5691.61 740.562 5694.28 741.615 5696.03 743.719C5697.78 745.823 5698.68 748.969 5698.72 753.156V775H5689.69V753.375C5689.69 751.458 5689.27 750.073 5688.44 749.219C5687.6 748.344 5686.22 747.906 5684.28 747.906C5681.74 747.906 5679.83 748.99 5678.56 751.156V775H5669.53V741.188H5678.03ZM5716.41 732.875V741.188H5722.19V747.812H5716.41V764.688C5716.41 765.938 5716.65 766.833 5717.12 767.375C5717.6 767.917 5718.52 768.188 5719.88 768.188C5720.88 768.188 5721.76 768.115 5722.53 767.969V774.812C5720.76 775.354 5718.94 775.625 5717.06 775.625C5710.73 775.625 5707.5 772.427 5707.38 766.031V747.812H5702.44V741.188H5707.38V732.875H5716.41ZM5745.53 765.656C5745.53 764.552 5744.98 763.688 5743.88 763.062C5742.79 762.417 5741.04 761.844 5738.62 761.344C5730.58 759.656 5726.56 756.24 5726.56 751.094C5726.56 748.094 5727.8 745.594 5730.28 743.594C5732.78 741.573 5736.04 740.562 5740.06 740.562C5744.35 740.562 5747.78 741.573 5750.34 743.594C5752.93 745.615 5754.22 748.24 5754.22 751.469H5745.19C5745.19 750.177 5744.77 749.115 5743.94 748.281C5743.1 747.427 5741.8 747 5740.03 747C5738.51 747 5737.33 747.344 5736.5 748.031C5735.67 748.719 5735.25 749.594 5735.25 750.656C5735.25 751.656 5735.72 752.469 5736.66 753.094C5737.61 753.698 5739.22 754.229 5741.47 754.688C5743.72 755.125 5745.61 755.625 5747.16 756.188C5751.93 757.938 5754.31 760.969 5754.31 765.281C5754.31 768.365 5752.99 770.865 5750.34 772.781C5747.7 774.677 5744.28 775.625 5740.09 775.625C5737.26 775.625 5734.74 775.125 5732.53 774.125C5730.34 773.104 5728.62 771.719 5727.38 769.969C5726.12 768.198 5725.5 766.292 5725.5 764.25H5734.06C5734.15 765.854 5734.74 767.083 5735.84 767.938C5736.95 768.792 5738.43 769.219 5740.28 769.219C5742.01 769.219 5743.31 768.896 5744.19 768.25C5745.08 767.583 5745.53 766.719 5745.53 765.656Z" fill="black"/>
<rect x="1088" y="577" width="650" height="343" fill="#34BFD2"/>
<rect x="3219" y="581" width="642" height="284" fill="#3AF87A"/>
<path d="M3478.47 721.453H3459.98L3456.46 732H3445.25L3464.3 680.812H3474.07L3493.23 732H3482.02L3478.47 721.453ZM3462.82 712.91H3475.62L3469.19 693.75L3462.82 712.91ZM3529.9 713.332C3529.9 719.191 3528.57 723.891 3525.89 727.43C3523.25 730.945 3519.66 732.703 3515.14 732.703C3511.29 732.703 3508.19 731.367 3505.82 728.695V746.625H3495.66V693.961H3505.08L3505.43 697.688C3507.89 694.734 3511.11 693.258 3515.07 693.258C3519.75 693.258 3523.4 694.992 3526 698.461C3528.6 701.93 3529.9 706.711 3529.9 712.805V713.332ZM3519.74 712.594C3519.74 709.055 3519.11 706.324 3517.84 704.402C3516.6 702.48 3514.79 701.52 3512.39 701.52C3509.21 701.52 3507.02 702.738 3505.82 705.176V720.75C3507.06 723.258 3509.28 724.512 3512.46 724.512C3517.32 724.512 3519.74 720.539 3519.74 712.594ZM3570.47 713.332C3570.47 719.191 3569.14 723.891 3566.46 727.43C3563.82 730.945 3560.23 732.703 3555.71 732.703C3551.86 732.703 3548.76 731.367 3546.39 728.695V746.625H3536.23V693.961H3545.65L3546 697.688C3548.46 694.734 3551.68 693.258 3555.64 693.258C3560.32 693.258 3563.97 694.992 3566.57 698.461C3569.17 701.93 3570.47 706.711 3570.47 712.805V713.332ZM3560.31 712.594C3560.31 709.055 3559.68 706.324 3558.41 704.402C3557.17 702.48 3555.36 701.52 3552.96 701.52C3549.78 701.52 3547.59 702.738 3546.39 705.176V720.75C3547.63 723.258 3549.85 724.512 3553.04 724.512C3557.89 724.512 3560.31 720.539 3560.31 712.594ZM3577.33 727.008C3577.33 725.391 3577.87 724.078 3578.95 723.07C3580.05 722.062 3581.42 721.559 3583.06 721.559C3584.72 721.559 3586.09 722.062 3587.17 723.07C3588.27 724.078 3588.82 725.391 3588.82 727.008C3588.82 728.602 3588.29 729.902 3587.21 730.91C3586.13 731.895 3584.75 732.387 3583.06 732.387C3581.39 732.387 3580.02 731.895 3578.95 730.91C3577.87 729.902 3577.33 728.602 3577.33 727.008ZM3608.51 693.961V734.074C3608.51 738.27 3607.4 741.527 3605.17 743.848C3602.95 746.191 3599.73 747.363 3595.54 747.363C3593.78 747.363 3592.11 747.164 3590.51 746.766V738.715C3591.73 738.926 3592.8 739.031 3593.71 739.031C3596.78 739.031 3598.32 737.402 3598.32 734.145V693.961H3608.51ZM3597.51 684.117C3597.51 682.594 3598.01 681.34 3599.02 680.355C3600.05 679.371 3601.45 678.879 3603.2 678.879C3604.96 678.879 3606.34 679.371 3607.35 680.355C3608.38 681.34 3608.9 682.594 3608.9 684.117C3608.9 685.664 3608.37 686.93 3607.32 687.914C3606.29 688.898 3604.91 689.391 3603.2 689.391C3601.49 689.391 3600.11 688.898 3599.05 687.914C3598.02 686.93 3597.51 685.664 3597.51 684.117ZM3637.06 721.488C3637.06 720.246 3636.44 719.273 3635.2 718.57C3633.98 717.844 3632.01 717.199 3629.29 716.637C3620.24 714.738 3615.72 710.895 3615.72 705.105C3615.72 701.73 3617.11 698.918 3619.9 696.668C3622.71 694.395 3626.38 693.258 3630.91 693.258C3635.73 693.258 3639.59 694.395 3642.47 696.668C3645.38 698.941 3646.83 701.895 3646.83 705.527H3636.67C3636.67 704.074 3636.2 702.879 3635.27 701.941C3634.33 700.98 3632.86 700.5 3630.87 700.5C3629.16 700.5 3627.84 700.887 3626.9 701.66C3625.96 702.434 3625.49 703.418 3625.49 704.613C3625.49 705.738 3626.02 706.652 3627.07 707.355C3628.15 708.035 3629.96 708.633 3632.49 709.148C3635.02 709.641 3637.15 710.203 3638.89 710.836C3644.25 712.805 3646.94 716.215 3646.94 721.066C3646.94 724.535 3645.45 727.348 3642.47 729.504C3639.5 731.637 3635.65 732.703 3630.94 732.703C3627.75 732.703 3624.92 732.141 3622.43 731.016C3619.97 729.867 3618.04 728.309 3616.63 726.34C3615.23 724.348 3614.52 722.203 3614.52 719.906H3624.16C3624.25 721.711 3624.92 723.094 3626.16 724.055C3627.4 725.016 3629.07 725.496 3631.15 725.496C3633.1 725.496 3634.56 725.133 3635.55 724.406C3636.55 723.656 3637.06 722.684 3637.06 721.488Z" fill="black"/>
<path d="M560.68 1548.51H555.078V1561H548.047V1526.88H560.727C564.758 1526.88 567.867 1527.77 570.055 1529.57C572.242 1531.37 573.336 1533.91 573.336 1537.19C573.336 1539.52 572.828 1541.46 571.812 1543.02C570.812 1544.57 569.289 1545.8 567.242 1546.73L574.625 1560.67V1561H567.078L560.68 1548.51ZM555.078 1542.81H560.75C562.516 1542.81 563.883 1542.37 564.852 1541.48C565.82 1540.57 566.305 1539.33 566.305 1537.75C566.305 1536.14 565.844 1534.88 564.922 1533.95C564.016 1533.03 562.617 1532.57 560.727 1532.57H555.078V1542.81ZM589.93 1561.47C586.211 1561.47 583.18 1560.33 580.836 1558.05C578.508 1555.77 577.344 1552.73 577.344 1548.93V1548.27C577.344 1545.73 577.836 1543.45 578.82 1541.45C579.805 1539.44 581.195 1537.89 582.992 1536.81C584.805 1535.72 586.867 1535.17 589.18 1535.17C592.648 1535.17 595.375 1536.27 597.359 1538.45C599.359 1540.64 600.359 1543.74 600.359 1547.76V1550.52H584.211C584.43 1552.18 585.086 1553.51 586.18 1554.51C587.289 1555.51 588.688 1556.01 590.375 1556.01C592.984 1556.01 595.023 1555.06 596.492 1553.17L599.82 1556.9C598.805 1558.34 597.43 1559.46 595.695 1560.27C593.961 1561.07 592.039 1561.47 589.93 1561.47ZM589.156 1540.66C587.812 1540.66 586.719 1541.11 585.875 1542.02C585.047 1542.92 584.516 1544.22 584.281 1545.91H593.703V1545.37C593.672 1543.87 593.266 1542.71 592.484 1541.9C591.703 1541.07 590.594 1540.66 589.156 1540.66ZM603.242 1548.13C603.242 1544.24 604.164 1541.11 606.008 1538.73C607.867 1536.36 610.367 1535.17 613.508 1535.17C616.289 1535.17 618.453 1536.12 620 1538.03L620.281 1535.64H626.422V1560.16C626.422 1562.38 625.914 1564.3 624.898 1565.95C623.898 1567.59 622.484 1568.84 620.656 1569.7C618.828 1570.55 616.688 1570.98 614.234 1570.98C612.375 1570.98 610.562 1570.61 608.797 1569.86C607.031 1569.12 605.695 1568.17 604.789 1567L607.789 1562.88C609.477 1564.77 611.523 1565.71 613.93 1565.71C615.727 1565.71 617.125 1565.23 618.125 1564.26C619.125 1563.3 619.625 1561.95 619.625 1560.18V1558.82C618.062 1560.59 616.008 1561.47 613.461 1561.47C610.414 1561.47 607.945 1560.28 606.055 1557.91C604.18 1555.52 603.242 1552.35 603.242 1548.41V1548.13ZM610.016 1548.62C610.016 1550.92 610.477 1552.73 611.398 1554.04C612.32 1555.34 613.586 1555.98 615.195 1555.98C617.258 1555.98 618.734 1555.21 619.625 1553.66V1543C618.719 1541.45 617.258 1540.68 615.242 1540.68C613.617 1540.68 612.336 1541.34 611.398 1542.67C610.477 1544 610.016 1545.98 610.016 1548.62ZM638.797 1561H632V1535.64H638.797V1561ZM631.602 1529.08C631.602 1528.06 631.938 1527.23 632.609 1526.57C633.297 1525.91 634.227 1525.59 635.398 1525.59C636.555 1525.59 637.477 1525.91 638.164 1526.57C638.852 1527.23 639.195 1528.06 639.195 1529.08C639.195 1530.11 638.844 1530.95 638.141 1531.61C637.453 1532.27 636.539 1532.59 635.398 1532.59C634.258 1532.59 633.336 1532.27 632.633 1531.61C631.945 1530.95 631.602 1530.11 631.602 1529.08ZM658.133 1553.99C658.133 1553.16 657.719 1552.52 656.891 1552.05C656.078 1551.56 654.766 1551.13 652.953 1550.76C646.922 1549.49 643.906 1546.93 643.906 1543.07C643.906 1540.82 644.836 1538.95 646.695 1537.45C648.57 1535.93 651.016 1535.17 654.031 1535.17C657.25 1535.17 659.82 1535.93 661.742 1537.45C663.68 1538.96 664.648 1540.93 664.648 1543.35H657.875C657.875 1542.38 657.562 1541.59 656.938 1540.96C656.312 1540.32 655.336 1540 654.008 1540C652.867 1540 651.984 1540.26 651.359 1540.77C650.734 1541.29 650.422 1541.95 650.422 1542.74C650.422 1543.49 650.773 1544.1 651.477 1544.57C652.195 1545.02 653.398 1545.42 655.086 1545.77C656.773 1546.09 658.195 1546.47 659.352 1546.89C662.93 1548.2 664.719 1550.48 664.719 1553.71C664.719 1556.02 663.727 1557.9 661.742 1559.34C659.758 1560.76 657.195 1561.47 654.055 1561.47C651.93 1561.47 650.039 1561.09 648.383 1560.34C646.742 1559.58 645.453 1558.54 644.516 1557.23C643.578 1555.9 643.109 1554.47 643.109 1552.94H649.531C649.594 1554.14 650.039 1555.06 650.867 1555.7C651.695 1556.34 652.805 1556.66 654.195 1556.66C655.492 1556.66 656.469 1556.42 657.125 1555.94C657.797 1555.44 658.133 1554.79 658.133 1553.99ZM677.211 1529.41V1535.64H681.547V1540.61H677.211V1553.27C677.211 1554.2 677.391 1554.88 677.75 1555.28C678.109 1555.69 678.797 1555.89 679.812 1555.89C680.562 1555.89 681.227 1555.84 681.805 1555.73V1560.86C680.477 1561.27 679.109 1561.47 677.703 1561.47C672.953 1561.47 670.531 1559.07 670.438 1554.27V1540.61H666.734V1535.64H670.438V1529.41H677.211ZM699.57 1541.99C698.648 1541.87 697.836 1541.8 697.133 1541.8C694.57 1541.8 692.891 1542.67 692.094 1544.41V1561H685.32V1535.64H691.719L691.906 1538.66C693.266 1536.34 695.148 1535.17 697.555 1535.17C698.305 1535.17 699.008 1535.27 699.664 1535.48L699.57 1541.99ZM716.844 1561C716.531 1560.39 716.305 1559.63 716.164 1558.73C714.523 1560.55 712.391 1561.47 709.766 1561.47C707.281 1561.47 705.219 1560.75 703.578 1559.31C701.953 1557.88 701.141 1556.06 701.141 1553.88C701.141 1551.19 702.133 1549.12 704.117 1547.69C706.117 1546.25 709 1545.52 712.766 1545.51H715.883V1544.05C715.883 1542.88 715.578 1541.95 714.969 1541.24C714.375 1540.54 713.43 1540.19 712.133 1540.19C710.992 1540.19 710.094 1540.46 709.438 1541.01C708.797 1541.55 708.477 1542.3 708.477 1543.26H701.703C701.703 1541.79 702.156 1540.43 703.062 1539.18C703.969 1537.93 705.25 1536.95 706.906 1536.25C708.562 1535.53 710.422 1535.17 712.484 1535.17C715.609 1535.17 718.086 1535.96 719.914 1537.54C721.758 1539.1 722.68 1541.3 722.68 1544.15V1555.14C722.695 1557.55 723.031 1559.37 723.688 1560.6V1561H716.844ZM711.242 1556.29C712.242 1556.29 713.164 1556.07 714.008 1555.63C714.852 1555.18 715.477 1554.58 715.883 1553.83V1549.47H713.352C709.961 1549.47 708.156 1550.64 707.938 1552.98L707.914 1553.38C707.914 1554.23 708.211 1554.92 708.805 1555.47C709.398 1556.02 710.211 1556.29 711.242 1556.29ZM735.992 1529.41V1535.64H740.328V1540.61H735.992V1553.27C735.992 1554.2 736.172 1554.88 736.531 1555.28C736.891 1555.69 737.578 1555.89 738.594 1555.89C739.344 1555.89 740.008 1555.84 740.586 1555.73V1560.86C739.258 1561.27 737.891 1561.47 736.484 1561.47C731.734 1561.47 729.312 1559.07 729.219 1554.27V1540.61H725.516V1535.64H729.219V1529.41H735.992ZM751.25 1561H744.453V1535.64H751.25V1561ZM744.055 1529.08C744.055 1528.06 744.391 1527.23 745.062 1526.57C745.75 1525.91 746.68 1525.59 747.852 1525.59C749.008 1525.59 749.93 1525.91 750.617 1526.57C751.305 1527.23 751.648 1528.06 751.648 1529.08C751.648 1530.11 751.297 1530.95 750.594 1531.61C749.906 1532.27 748.992 1532.59 747.852 1532.59C746.711 1532.59 745.789 1532.27 745.086 1531.61C744.398 1530.95 744.055 1530.11 744.055 1529.08ZM755.797 1548.09C755.797 1545.57 756.281 1543.33 757.25 1541.36C758.219 1539.39 759.609 1537.87 761.422 1536.79C763.25 1535.71 765.367 1535.17 767.773 1535.17C771.195 1535.17 773.984 1536.22 776.141 1538.31C778.312 1540.41 779.523 1543.25 779.773 1546.84L779.82 1548.58C779.82 1552.47 778.734 1555.59 776.562 1557.95C774.391 1560.3 771.477 1561.47 767.82 1561.47C764.164 1561.47 761.242 1560.3 759.055 1557.95C756.883 1555.61 755.797 1552.42 755.797 1548.39V1548.09ZM762.57 1548.58C762.57 1550.98 763.023 1552.83 763.93 1554.11C764.836 1555.38 766.133 1556.01 767.82 1556.01C769.461 1556.01 770.742 1555.38 771.664 1554.13C772.586 1552.87 773.047 1550.85 773.047 1548.09C773.047 1545.73 772.586 1543.9 771.664 1542.6C770.742 1541.3 769.445 1540.66 767.773 1540.66C766.117 1540.66 764.836 1541.3 763.93 1542.6C763.023 1543.88 762.57 1545.88 762.57 1548.58ZM790.227 1535.64L790.438 1538.57C792.25 1536.3 794.68 1535.17 797.727 1535.17C800.414 1535.17 802.414 1535.96 803.727 1537.54C805.039 1539.12 805.711 1541.48 805.742 1544.62V1561H798.969V1544.78C798.969 1543.34 798.656 1542.3 798.031 1541.66C797.406 1541.01 796.367 1540.68 794.914 1540.68C793.008 1540.68 791.578 1541.49 790.625 1543.12V1561H783.852V1535.64H790.227Z" fill="black"/>
<path d="M1638 1369H2288V1712H1638V1369Z" fill="#34BFD2"/>
<path d="M1803.08 1555.35H1818.01V1561H1796.05V1526.88H1803.08V1555.35ZM1820.56 1548.09C1820.56 1545.57 1821.05 1543.33 1822.02 1541.36C1822.98 1539.39 1824.38 1537.87 1826.19 1536.79C1828.02 1535.71 1830.13 1535.17 1832.54 1535.17C1835.96 1535.17 1838.75 1536.22 1840.91 1538.31C1843.08 1540.41 1844.29 1543.25 1844.54 1546.84L1844.59 1548.58C1844.59 1552.47 1843.5 1555.59 1841.33 1557.95C1839.16 1560.3 1836.24 1561.47 1832.59 1561.47C1828.93 1561.47 1826.01 1560.3 1823.82 1557.95C1821.65 1555.61 1820.56 1552.42 1820.56 1548.39V1548.09ZM1827.34 1548.58C1827.34 1550.98 1827.79 1552.83 1828.7 1554.11C1829.6 1555.38 1830.9 1556.01 1832.59 1556.01C1834.23 1556.01 1835.51 1555.38 1836.43 1554.13C1837.35 1552.87 1837.81 1550.85 1837.81 1548.09C1837.81 1545.73 1837.35 1543.9 1836.43 1542.6C1835.51 1541.3 1834.21 1540.66 1832.54 1540.66C1830.88 1540.66 1829.6 1541.3 1828.7 1542.6C1827.79 1543.88 1827.34 1545.88 1827.34 1548.58ZM1847.77 1548.13C1847.77 1544.24 1848.7 1541.11 1850.54 1538.73C1852.4 1536.36 1854.9 1535.17 1858.04 1535.17C1860.82 1535.17 1862.98 1536.12 1864.53 1538.03L1864.81 1535.64H1870.95V1560.16C1870.95 1562.38 1870.45 1564.3 1869.43 1565.95C1868.43 1567.59 1867.02 1568.84 1865.19 1569.7C1863.36 1570.55 1861.22 1570.98 1858.77 1570.98C1856.91 1570.98 1855.09 1570.61 1853.33 1569.86C1851.56 1569.12 1850.23 1568.17 1849.32 1567L1852.32 1562.88C1854.01 1564.77 1856.05 1565.71 1858.46 1565.71C1860.26 1565.71 1861.66 1565.23 1862.66 1564.26C1863.66 1563.3 1864.16 1561.95 1864.16 1560.18V1558.82C1862.59 1560.59 1860.54 1561.47 1857.99 1561.47C1854.95 1561.47 1852.48 1560.28 1850.59 1557.91C1848.71 1555.52 1847.77 1552.35 1847.77 1548.41V1548.13ZM1854.55 1548.62C1854.55 1550.92 1855.01 1552.73 1855.93 1554.04C1856.85 1555.34 1858.12 1555.98 1859.73 1555.98C1861.79 1555.98 1863.27 1555.21 1864.16 1553.66V1543C1863.25 1541.45 1861.79 1540.68 1859.77 1540.68C1858.15 1540.68 1856.87 1541.34 1855.93 1542.67C1855.01 1544 1854.55 1545.98 1854.55 1548.62ZM1883.33 1561H1876.53V1535.64H1883.33V1561ZM1876.13 1529.08C1876.13 1528.06 1876.47 1527.23 1877.14 1526.57C1877.83 1525.91 1878.76 1525.59 1879.93 1525.59C1881.09 1525.59 1882.01 1525.91 1882.7 1526.57C1883.38 1527.23 1883.73 1528.06 1883.73 1529.08C1883.73 1530.11 1883.38 1530.95 1882.67 1531.61C1881.98 1532.27 1881.07 1532.59 1879.93 1532.59C1878.79 1532.59 1877.87 1532.27 1877.16 1531.61C1876.48 1530.95 1876.13 1530.11 1876.13 1529.08ZM1895.16 1535.64L1895.38 1538.57C1897.19 1536.3 1899.62 1535.17 1902.66 1535.17C1905.35 1535.17 1907.35 1535.96 1908.66 1537.54C1909.98 1539.12 1910.65 1541.48 1910.68 1544.62V1561H1903.91V1544.78C1903.91 1543.34 1903.59 1542.3 1902.97 1541.66C1902.34 1541.01 1901.3 1540.68 1899.85 1540.68C1897.95 1540.68 1896.52 1541.49 1895.56 1543.12V1561H1888.79V1535.64H1895.16ZM1917.97 1563.93H1912.93L1925.49 1526.88H1930.53L1917.97 1563.93ZM1941.27 1555.35H1956.2V1561H1934.23V1526.88H1941.27V1555.35ZM1958.75 1548.09C1958.75 1545.57 1959.23 1543.33 1960.2 1541.36C1961.17 1539.39 1962.56 1537.87 1964.38 1536.79C1966.2 1535.71 1968.32 1535.17 1970.73 1535.17C1974.15 1535.17 1976.94 1536.22 1979.09 1538.31C1981.27 1540.41 1982.48 1543.25 1982.73 1546.84L1982.77 1548.58C1982.77 1552.47 1981.69 1555.59 1979.52 1557.95C1977.34 1560.3 1974.43 1561.47 1970.77 1561.47C1967.12 1561.47 1964.2 1560.3 1962.01 1557.95C1959.84 1555.61 1958.75 1552.42 1958.75 1548.39V1548.09ZM1965.52 1548.58C1965.52 1550.98 1965.98 1552.83 1966.88 1554.11C1967.79 1555.38 1969.09 1556.01 1970.77 1556.01C1972.41 1556.01 1973.7 1555.38 1974.62 1554.13C1975.54 1552.87 1976 1550.85 1976 1548.09C1976 1545.73 1975.54 1543.9 1974.62 1542.6C1973.7 1541.3 1972.4 1540.66 1970.73 1540.66C1969.07 1540.66 1967.79 1541.3 1966.88 1542.6C1965.98 1543.88 1965.52 1545.88 1965.52 1548.58ZM1985.96 1548.13C1985.96 1544.24 1986.88 1541.11 1988.73 1538.73C1990.59 1536.36 1993.09 1535.17 1996.23 1535.17C1999.01 1535.17 2001.17 1536.12 2002.72 1538.03L2003 1535.64H2009.14V1560.16C2009.14 1562.38 2008.63 1564.3 2007.62 1565.95C2006.62 1567.59 2005.2 1568.84 2003.38 1569.7C2001.55 1570.55 1999.41 1570.98 1996.95 1570.98C1995.09 1570.98 1993.28 1570.61 1991.52 1569.86C1989.75 1569.12 1988.41 1568.17 1987.51 1567L1990.51 1562.88C1992.2 1564.77 1994.24 1565.71 1996.65 1565.71C1998.45 1565.71 1999.84 1565.23 2000.84 1564.26C2001.84 1563.3 2002.34 1561.95 2002.34 1560.18V1558.82C2000.78 1560.59 1998.73 1561.47 1996.18 1561.47C1993.13 1561.47 1990.66 1560.28 1988.77 1557.91C1986.9 1555.52 1985.96 1552.35 1985.96 1548.41V1548.13ZM1992.73 1548.62C1992.73 1550.92 1993.2 1552.73 1994.12 1554.04C1995.04 1555.34 1996.3 1555.98 1997.91 1555.98C1999.98 1555.98 2001.45 1555.21 2002.34 1553.66V1543C2001.44 1541.45 1999.98 1540.68 1997.96 1540.68C1996.34 1540.68 1995.05 1541.34 1994.12 1542.67C1993.2 1544 1992.73 1545.98 1992.73 1548.62ZM2013.31 1548.09C2013.31 1545.57 2013.8 1543.33 2014.77 1541.36C2015.73 1539.39 2017.12 1537.87 2018.94 1536.79C2020.77 1535.71 2022.88 1535.17 2025.29 1535.17C2028.71 1535.17 2031.5 1536.22 2033.66 1538.31C2035.83 1540.41 2037.04 1543.25 2037.29 1546.84L2037.34 1548.58C2037.34 1552.47 2036.25 1555.59 2034.08 1557.95C2031.91 1560.3 2028.99 1561.47 2025.34 1561.47C2021.68 1561.47 2018.76 1560.3 2016.57 1557.95C2014.4 1555.61 2013.31 1552.42 2013.31 1548.39V1548.09ZM2020.09 1548.58C2020.09 1550.98 2020.54 1552.83 2021.45 1554.11C2022.35 1555.38 2023.65 1556.01 2025.34 1556.01C2026.98 1556.01 2028.26 1555.38 2029.18 1554.13C2030.1 1552.87 2030.56 1550.85 2030.56 1548.09C2030.56 1545.73 2030.1 1543.9 2029.18 1542.6C2028.26 1541.3 2026.96 1540.66 2025.29 1540.66C2023.63 1540.66 2022.35 1541.3 2021.45 1542.6C2020.54 1543.88 2020.09 1545.88 2020.09 1548.58ZM2056.7 1558.42C2055.02 1560.45 2052.71 1561.47 2049.76 1561.47C2047.04 1561.47 2044.96 1560.69 2043.52 1559.12C2042.1 1557.56 2041.38 1555.27 2041.34 1552.26V1535.64H2048.12V1552.02C2048.12 1554.66 2049.32 1555.98 2051.73 1555.98C2054.02 1555.98 2055.6 1555.19 2056.46 1553.59V1535.64H2063.26V1561H2056.88L2056.7 1558.42ZM2076.48 1529.41V1535.64H2080.81V1540.61H2076.48V1553.27C2076.48 1554.2 2076.66 1554.88 2077.02 1555.28C2077.38 1555.69 2078.06 1555.89 2079.08 1555.89C2079.83 1555.89 2080.49 1555.84 2081.07 1555.73V1560.86C2079.74 1561.27 2078.38 1561.47 2076.97 1561.47C2072.22 1561.47 2069.8 1559.07 2069.7 1554.27V1540.61H2066V1535.64H2069.7V1529.41H2076.48Z" fill="black"/>
<path d="M3266 0H3814V287H3266V0Z" fill="#1EFE19"/>
<rect x="1053" y="2200" width="650" height="343" fill="#34BFD2"/>
<rect y="2200" width="650" height="343" fill="#34BFD2"/>
<path d="M268.75 2385.62H252.312L249.188 2395H239.219L256.156 2349.5H264.844L281.875 2395H271.906L268.75 2385.62ZM254.844 2378.03H266.219L260.5 2361L254.844 2378.03ZM316 2378.41C316 2383.82 314.844 2388.05 312.531 2391.09C310.219 2394.11 306.99 2395.62 302.844 2395.62C299.177 2395.62 296.25 2394.22 294.062 2391.41L293.656 2395H285.531V2347H294.562V2364.22C296.646 2361.78 299.385 2360.56 302.781 2360.56C306.906 2360.56 310.135 2362.08 312.469 2365.12C314.823 2368.15 316 2372.41 316 2377.91V2378.41ZM306.969 2377.75C306.969 2374.33 306.427 2371.84 305.344 2370.28C304.26 2368.7 302.646 2367.91 300.5 2367.91C297.625 2367.91 295.646 2369.08 294.562 2371.44V2384.78C295.667 2387.16 297.667 2388.34 300.562 2388.34C303.479 2388.34 305.396 2386.91 306.312 2384.03C306.75 2382.66 306.969 2380.56 306.969 2377.75ZM320.188 2377.78C320.188 2374.43 320.833 2371.44 322.125 2368.81C323.417 2366.19 325.271 2364.16 327.688 2362.72C330.125 2361.28 332.948 2360.56 336.156 2360.56C340.719 2360.56 344.438 2361.96 347.312 2364.75C350.208 2367.54 351.823 2371.33 352.156 2376.12L352.219 2378.44C352.219 2383.62 350.771 2387.79 347.875 2390.94C344.979 2394.06 341.094 2395.62 336.219 2395.62C331.344 2395.62 327.448 2394.06 324.531 2390.94C321.635 2387.81 320.188 2383.56 320.188 2378.19V2377.78ZM329.219 2378.44C329.219 2381.65 329.823 2384.1 331.031 2385.81C332.24 2387.5 333.969 2388.34 336.219 2388.34C338.406 2388.34 340.115 2387.51 341.344 2385.84C342.573 2384.16 343.188 2381.47 343.188 2377.78C343.188 2374.64 342.573 2372.2 341.344 2370.47C340.115 2368.74 338.385 2367.88 336.156 2367.88C333.948 2367.88 332.24 2368.74 331.031 2370.47C329.823 2372.18 329.219 2374.83 329.219 2378.44ZM378.031 2391.56C375.802 2394.27 372.719 2395.62 368.781 2395.62C365.156 2395.62 362.385 2394.58 360.469 2392.5C358.573 2390.42 357.604 2387.36 357.562 2383.34V2361.19H366.594V2383.03C366.594 2386.55 368.198 2388.31 371.406 2388.31C374.469 2388.31 376.573 2387.25 377.719 2385.12V2361.19H386.781V2395H378.281L378.031 2391.56ZM404.406 2352.88V2361.19H410.188V2367.81H404.406V2384.69C404.406 2385.94 404.646 2386.83 405.125 2387.38C405.604 2387.92 406.521 2388.19 407.875 2388.19C408.875 2388.19 409.76 2388.11 410.531 2387.97V2394.81C408.76 2395.35 406.938 2395.62 405.062 2395.62C398.729 2395.62 395.5 2392.43 395.375 2386.03V2367.81H390.438V2361.19H395.375V2352.88H404.406Z" fill="black"/>
<rect x="3065" y="2763" width="650" height="343" fill="#34BFD2"/>
<path d="M3231.44 2937.41H3213.44V2956H3204.06V2910.5H3233.69V2918.09H3213.44V2929.84H3231.44V2937.41ZM3257.06 2956C3256.65 2955.19 3256.34 2954.18 3256.16 2952.97C3253.97 2955.41 3251.12 2956.62 3247.62 2956.62C3244.31 2956.62 3241.56 2955.67 3239.38 2953.75C3237.21 2951.83 3236.12 2949.42 3236.12 2946.5C3236.12 2942.92 3237.45 2940.17 3240.09 2938.25C3242.76 2936.33 3246.6 2935.36 3251.62 2935.34H3255.78V2933.41C3255.78 2931.84 3255.38 2930.59 3254.56 2929.66C3253.77 2928.72 3252.51 2928.25 3250.78 2928.25C3249.26 2928.25 3248.06 2928.61 3247.19 2929.34C3246.33 2930.07 3245.91 2931.07 3245.91 2932.34H3236.88C3236.88 2930.39 3237.48 2928.57 3238.69 2926.91C3239.9 2925.24 3241.6 2923.94 3243.81 2923C3246.02 2922.04 3248.5 2921.56 3251.25 2921.56C3255.42 2921.56 3258.72 2922.61 3261.16 2924.72C3263.61 2926.8 3264.84 2929.74 3264.84 2933.53V2948.19C3264.86 2951.4 3265.31 2953.82 3266.19 2955.47V2956H3257.06ZM3249.59 2949.72C3250.93 2949.72 3252.16 2949.43 3253.28 2948.84C3254.41 2948.24 3255.24 2947.44 3255.78 2946.44V2940.62H3252.41C3247.89 2940.62 3245.48 2942.19 3245.19 2945.31L3245.16 2945.84C3245.16 2946.97 3245.55 2947.9 3246.34 2948.62C3247.14 2949.35 3248.22 2949.72 3249.59 2949.72ZM3283.94 2944.97L3290.22 2922.19H3299.66L3288.25 2956H3279.62L3268.22 2922.19H3277.66L3283.94 2944.97ZM3301.75 2938.78C3301.75 2935.43 3302.4 2932.44 3303.69 2929.81C3304.98 2927.19 3306.83 2925.16 3309.25 2923.72C3311.69 2922.28 3314.51 2921.56 3317.72 2921.56C3322.28 2921.56 3326 2922.96 3328.88 2925.75C3331.77 2928.54 3333.39 2932.33 3333.72 2937.12L3333.78 2939.44C3333.78 2944.62 3332.33 2948.79 3329.44 2951.94C3326.54 2955.06 3322.66 2956.62 3317.78 2956.62C3312.91 2956.62 3309.01 2955.06 3306.09 2951.94C3303.2 2948.81 3301.75 2944.56 3301.75 2939.19V2938.78ZM3310.78 2939.44C3310.78 2942.65 3311.39 2945.1 3312.59 2946.81C3313.8 2948.5 3315.53 2949.34 3317.78 2949.34C3319.97 2949.34 3321.68 2948.51 3322.91 2946.84C3324.14 2945.16 3324.75 2942.47 3324.75 2938.78C3324.75 2935.64 3324.14 2933.2 3322.91 2931.47C3321.68 2929.74 3319.95 2928.88 3317.72 2928.88C3315.51 2928.88 3313.8 2929.74 3312.59 2931.47C3311.39 2933.18 3310.78 2935.83 3310.78 2939.44ZM3358.34 2930.66C3357.11 2930.49 3356.03 2930.41 3355.09 2930.41C3351.68 2930.41 3349.44 2931.56 3348.38 2933.88V2956H3339.34V2922.19H3347.88L3348.12 2926.22C3349.94 2923.11 3352.45 2921.56 3355.66 2921.56C3356.66 2921.56 3357.59 2921.7 3358.47 2921.97L3358.34 2930.66ZM3372.25 2956H3363.19V2922.19H3372.25V2956ZM3362.66 2913.44C3362.66 2912.08 3363.1 2910.97 3364 2910.09C3364.92 2909.22 3366.16 2908.78 3367.72 2908.78C3369.26 2908.78 3370.49 2909.22 3371.41 2910.09C3372.32 2910.97 3372.78 2912.08 3372.78 2913.44C3372.78 2914.81 3372.31 2915.94 3371.38 2916.81C3370.46 2917.69 3369.24 2918.12 3367.72 2918.12C3366.2 2918.12 3364.97 2917.69 3364.03 2916.81C3363.11 2915.94 3362.66 2914.81 3362.66 2913.44ZM3390.53 2913.88V2922.19H3396.31V2928.81H3390.53V2945.69C3390.53 2946.94 3390.77 2947.83 3391.25 2948.38C3391.73 2948.92 3392.65 2949.19 3394 2949.19C3395 2949.19 3395.89 2949.11 3396.66 2948.97V2955.81C3394.89 2956.35 3393.06 2956.62 3391.19 2956.62C3384.85 2956.62 3381.62 2953.43 3381.5 2947.03V2928.81H3376.56V2922.19H3381.5V2913.88H3390.53ZM3416.91 2956.62C3411.95 2956.62 3407.91 2955.1 3404.78 2952.06C3401.68 2949.02 3400.12 2944.97 3400.12 2939.91V2939.03C3400.12 2935.64 3400.78 2932.6 3402.09 2929.94C3403.41 2927.25 3405.26 2925.19 3407.66 2923.75C3410.07 2922.29 3412.82 2921.56 3415.91 2921.56C3420.53 2921.56 3424.17 2923.02 3426.81 2925.94C3429.48 2928.85 3430.81 2932.99 3430.81 2938.34V2942.03H3409.28C3409.57 2944.24 3410.45 2946.01 3411.91 2947.34C3413.39 2948.68 3415.25 2949.34 3417.5 2949.34C3420.98 2949.34 3423.7 2948.08 3425.66 2945.56L3430.09 2950.53C3428.74 2952.45 3426.91 2953.95 3424.59 2955.03C3422.28 2956.09 3419.72 2956.62 3416.91 2956.62ZM3415.88 2928.88C3414.08 2928.88 3412.62 2929.48 3411.5 2930.69C3410.4 2931.9 3409.69 2933.62 3409.38 2935.88H3421.94V2935.16C3421.9 2933.16 3421.35 2931.61 3420.31 2930.53C3419.27 2929.43 3417.79 2928.88 3415.88 2928.88ZM3461.88 2939.97V2956H3452.5V2910.5H3470.25C3473.67 2910.5 3476.67 2911.12 3479.25 2912.38C3481.85 2913.62 3483.85 2915.41 3485.25 2917.72C3486.65 2920.01 3487.34 2922.62 3487.34 2925.56C3487.34 2930.02 3485.81 2933.54 3482.75 2936.12C3479.71 2938.69 3475.49 2939.97 3470.09 2939.97H3461.88ZM3461.88 2932.38H3470.25C3472.73 2932.38 3474.61 2931.79 3475.91 2930.62C3477.22 2929.46 3477.88 2927.79 3477.88 2925.62C3477.88 2923.4 3477.22 2921.59 3475.91 2920.22C3474.59 2918.84 3472.78 2918.14 3470.47 2918.09H3461.88V2932.38ZM3491.38 2938.78C3491.38 2935.43 3492.02 2932.44 3493.31 2929.81C3494.6 2927.19 3496.46 2925.16 3498.88 2923.72C3501.31 2922.28 3504.14 2921.56 3507.34 2921.56C3511.91 2921.56 3515.62 2922.96 3518.5 2925.75C3521.4 2928.54 3523.01 2932.33 3523.34 2937.12L3523.41 2939.44C3523.41 2944.62 3521.96 2948.79 3519.06 2951.94C3516.17 2955.06 3512.28 2956.62 3507.41 2956.62C3502.53 2956.62 3498.64 2955.06 3495.72 2951.94C3492.82 2948.81 3491.38 2944.56 3491.38 2939.19V2938.78ZM3500.41 2939.44C3500.41 2942.65 3501.01 2945.1 3502.22 2946.81C3503.43 2948.5 3505.16 2949.34 3507.41 2949.34C3509.59 2949.34 3511.3 2948.51 3512.53 2946.84C3513.76 2945.16 3514.38 2942.47 3514.38 2938.78C3514.38 2935.64 3513.76 2933.2 3512.53 2931.47C3511.3 2929.74 3509.57 2928.88 3507.34 2928.88C3505.14 2928.88 3503.43 2929.74 3502.22 2931.47C3501.01 2933.18 3500.41 2935.83 3500.41 2939.44ZM3547.28 2946.66C3547.28 2945.55 3546.73 2944.69 3545.62 2944.06C3544.54 2943.42 3542.79 2942.84 3540.38 2942.34C3532.33 2940.66 3528.31 2937.24 3528.31 2932.09C3528.31 2929.09 3529.55 2926.59 3532.03 2924.59C3534.53 2922.57 3537.79 2921.56 3541.81 2921.56C3546.1 2921.56 3549.53 2922.57 3552.09 2924.59C3554.68 2926.61 3555.97 2929.24 3555.97 2932.47H3546.94C3546.94 2931.18 3546.52 2930.11 3545.69 2929.28C3544.85 2928.43 3543.55 2928 3541.78 2928C3540.26 2928 3539.08 2928.34 3538.25 2929.03C3537.42 2929.72 3537 2930.59 3537 2931.66C3537 2932.66 3537.47 2933.47 3538.41 2934.09C3539.36 2934.7 3540.97 2935.23 3543.22 2935.69C3545.47 2936.12 3547.36 2936.62 3548.91 2937.19C3553.68 2938.94 3556.06 2941.97 3556.06 2946.28C3556.06 2949.36 3554.74 2951.86 3552.09 2953.78C3549.45 2955.68 3546.03 2956.62 3541.84 2956.62C3539.01 2956.62 3536.49 2956.12 3534.28 2955.12C3532.09 2954.1 3530.38 2952.72 3529.12 2950.97C3527.88 2949.2 3527.25 2947.29 3527.25 2945.25H3535.81C3535.9 2946.85 3536.49 2948.08 3537.59 2948.94C3538.7 2949.79 3540.18 2950.22 3542.03 2950.22C3543.76 2950.22 3545.06 2949.9 3545.94 2949.25C3546.83 2948.58 3547.28 2947.72 3547.28 2946.66ZM3572.72 2913.88V2922.19H3578.5V2928.81H3572.72V2945.69C3572.72 2946.94 3572.96 2947.83 3573.44 2948.38C3573.92 2948.92 3574.83 2949.19 3576.19 2949.19C3577.19 2949.19 3578.07 2949.11 3578.84 2948.97V2955.81C3577.07 2956.35 3575.25 2956.62 3573.38 2956.62C3567.04 2956.62 3563.81 2953.43 3563.69 2947.03V2928.81H3558.75V2922.19H3563.69V2913.88H3572.72Z" fill="black"/>
<rect x="2061" y="2194" width="650" height="343" fill="#34BFD2"/>
<path d="M3441.52 143H3434.49V108.875H3441.52V143ZM3453.85 117.641L3454.06 120.57C3455.88 118.305 3458.3 117.172 3461.35 117.172C3464.04 117.172 3466.04 117.961 3467.35 119.539C3468.66 121.117 3469.34 123.477 3469.37 126.617V143H3462.59V126.781C3462.59 125.344 3462.28 124.305 3461.66 123.664C3461.03 123.008 3459.99 122.68 3458.54 122.68C3456.63 122.68 3455.2 123.492 3454.25 125.117V143H3447.48V117.641H3453.85ZM3473.47 130.133C3473.47 126.18 3474.35 123.031 3476.12 120.688C3477.9 118.344 3480.33 117.172 3483.41 117.172C3485.88 117.172 3487.91 118.094 3489.52 119.938V107H3496.32V143H3490.2L3489.88 140.305C3488.19 142.414 3486.02 143.469 3483.36 143.469C3480.38 143.469 3477.98 142.297 3476.16 139.953C3474.37 137.594 3473.47 134.32 3473.47 130.133ZM3480.24 130.625C3480.24 133 3480.66 134.82 3481.48 136.086C3482.31 137.352 3483.52 137.984 3485.09 137.984C3487.19 137.984 3488.66 137.102 3489.52 135.336V125.328C3488.68 123.562 3487.22 122.68 3485.14 122.68C3481.88 122.68 3480.24 125.328 3480.24 130.625ZM3513.24 143.469C3509.52 143.469 3506.49 142.328 3504.15 140.047C3501.82 137.766 3500.66 134.727 3500.66 130.93V130.273C3500.66 127.727 3501.15 125.453 3502.13 123.453C3503.12 121.438 3504.51 119.891 3506.3 118.812C3508.12 117.719 3510.18 117.172 3512.49 117.172C3515.96 117.172 3518.69 118.266 3520.67 120.453C3522.67 122.641 3523.67 125.742 3523.67 129.758V132.523H3507.52C3507.74 134.18 3508.4 135.508 3509.49 136.508C3510.6 137.508 3512 138.008 3513.69 138.008C3516.3 138.008 3518.34 137.062 3519.8 135.172L3523.13 138.898C3522.12 140.336 3520.74 141.461 3519.01 142.273C3517.27 143.07 3515.35 143.469 3513.24 143.469ZM3512.47 122.656C3511.12 122.656 3510.03 123.109 3509.19 124.016C3508.36 124.922 3507.83 126.219 3507.59 127.906H3517.02V127.367C3516.98 125.867 3516.58 124.711 3515.8 123.898C3515.02 123.07 3513.91 122.656 3512.47 122.656ZM3537.2 125.211L3541.46 117.641H3548.7L3541.48 130.062L3549.01 143H3541.74L3537.22 135.031L3532.72 143H3525.43L3532.95 130.062L3525.76 117.641H3533.02L3537.2 125.211ZM3552.31 139.672C3552.31 138.594 3552.67 137.719 3553.39 137.047C3554.12 136.375 3555.04 136.039 3556.13 136.039C3557.24 136.039 3558.16 136.375 3558.88 137.047C3559.61 137.719 3559.98 138.594 3559.98 139.672C3559.98 140.734 3559.62 141.602 3558.9 142.273C3558.18 142.93 3557.26 143.258 3556.13 143.258C3555.02 143.258 3554.11 142.93 3553.39 142.273C3552.67 141.602 3552.31 140.734 3552.31 139.672ZM3573.1 117.641V144.383C3573.1 147.18 3572.36 149.352 3570.88 150.898C3569.39 152.461 3567.25 153.242 3564.45 153.242C3563.28 153.242 3562.16 153.109 3561.1 152.844V147.477C3561.91 147.617 3562.62 147.688 3563.23 147.688C3565.28 147.688 3566.3 146.602 3566.3 144.43V117.641H3573.1ZM3565.77 111.078C3565.77 110.062 3566.1 109.227 3566.77 108.57C3567.46 107.914 3568.39 107.586 3569.56 107.586C3570.73 107.586 3571.66 107.914 3572.33 108.57C3573.02 109.227 3573.36 110.062 3573.36 111.078C3573.36 112.109 3573.01 112.953 3572.3 113.609C3571.62 114.266 3570.7 114.594 3569.56 114.594C3568.42 114.594 3567.5 114.266 3566.8 113.609C3566.11 112.953 3565.77 112.109 3565.77 111.078ZM3592.13 135.992C3592.13 135.164 3591.72 134.516 3590.89 134.047C3590.08 133.562 3588.77 133.133 3586.95 132.758C3580.92 131.492 3577.91 128.93 3577.91 125.07C3577.91 122.82 3578.84 120.945 3580.7 119.445C3582.57 117.93 3585.02 117.172 3588.03 117.172C3591.25 117.172 3593.82 117.93 3595.74 119.445C3597.68 120.961 3598.65 122.93 3598.65 125.352H3591.88C3591.88 124.383 3591.56 123.586 3590.94 122.961C3590.31 122.32 3589.34 122 3588.01 122C3586.87 122 3585.98 122.258 3585.36 122.773C3584.73 123.289 3584.42 123.945 3584.42 124.742C3584.42 125.492 3584.77 126.102 3585.48 126.57C3586.2 127.023 3587.4 127.422 3589.09 127.766C3590.77 128.094 3592.2 128.469 3593.35 128.891C3596.93 130.203 3598.72 132.477 3598.72 135.711C3598.72 138.023 3597.73 139.898 3595.74 141.336C3593.76 142.758 3591.2 143.469 3588.05 143.469C3585.93 143.469 3584.04 143.094 3582.38 142.344C3580.74 141.578 3579.45 140.539 3578.52 139.227C3577.58 137.898 3577.11 136.469 3577.11 134.938H3583.53C3583.59 136.141 3584.04 137.062 3584.87 137.703C3585.7 138.344 3586.8 138.664 3588.2 138.664C3589.49 138.664 3590.47 138.422 3591.12 137.938C3591.8 137.438 3592.13 136.789 3592.13 135.992Z" fill="black"/>
<path d="M1317.09 2388H1307.72V2368.5H1289.44V2388H1280.06V2342.5H1289.44V2360.94H1307.72V2342.5H1317.09V2388ZM1323.31 2370.78C1323.31 2367.43 1323.96 2364.44 1325.25 2361.81C1326.54 2359.19 1328.4 2357.16 1330.81 2355.72C1333.25 2354.28 1336.07 2353.56 1339.28 2353.56C1343.84 2353.56 1347.56 2354.96 1350.44 2357.75C1353.33 2360.54 1354.95 2364.33 1355.28 2369.12L1355.34 2371.44C1355.34 2376.62 1353.9 2380.79 1351 2383.94C1348.1 2387.06 1344.22 2388.62 1339.34 2388.62C1334.47 2388.62 1330.57 2387.06 1327.66 2383.94C1324.76 2380.81 1323.31 2376.56 1323.31 2371.19V2370.78ZM1332.34 2371.44C1332.34 2374.65 1332.95 2377.1 1334.16 2378.81C1335.36 2380.5 1337.09 2381.34 1339.34 2381.34C1341.53 2381.34 1343.24 2380.51 1344.47 2378.84C1345.7 2377.16 1346.31 2374.47 1346.31 2370.78C1346.31 2367.64 1345.7 2365.2 1344.47 2363.47C1343.24 2361.74 1341.51 2360.88 1339.28 2360.88C1337.07 2360.88 1335.36 2361.74 1334.16 2363.47C1332.95 2365.18 1332.34 2367.83 1332.34 2371.44ZM1369.38 2354.19L1369.66 2357.97C1372.05 2355.03 1375.29 2353.56 1379.38 2353.56C1383.73 2353.56 1386.72 2355.28 1388.34 2358.72C1390.72 2355.28 1394.1 2353.56 1398.5 2353.56C1402.17 2353.56 1404.9 2354.64 1406.69 2356.78C1408.48 2358.91 1409.38 2362.11 1409.38 2366.41V2388H1400.31V2366.44C1400.31 2364.52 1399.94 2363.12 1399.19 2362.25C1398.44 2361.35 1397.11 2360.91 1395.22 2360.91C1392.51 2360.91 1390.64 2362.2 1389.59 2364.78L1389.62 2388H1380.59V2366.47C1380.59 2364.51 1380.21 2363.09 1379.44 2362.22C1378.67 2361.34 1377.35 2360.91 1375.5 2360.91C1372.94 2360.91 1371.08 2361.97 1369.94 2364.09V2388H1360.91V2354.19H1369.38ZM1431.91 2388.62C1426.95 2388.62 1422.91 2387.1 1419.78 2384.06C1416.68 2381.02 1415.12 2376.97 1415.12 2371.91V2371.03C1415.12 2367.64 1415.78 2364.6 1417.09 2361.94C1418.41 2359.25 1420.26 2357.19 1422.66 2355.75C1425.07 2354.29 1427.82 2353.56 1430.91 2353.56C1435.53 2353.56 1439.17 2355.02 1441.81 2357.94C1444.48 2360.85 1445.81 2364.99 1445.81 2370.34V2374.03H1424.28C1424.57 2376.24 1425.45 2378.01 1426.91 2379.34C1428.39 2380.68 1430.25 2381.34 1432.5 2381.34C1435.98 2381.34 1438.7 2380.08 1440.66 2377.56L1445.09 2382.53C1443.74 2384.45 1441.91 2385.95 1439.59 2387.03C1437.28 2388.09 1434.72 2388.62 1431.91 2388.62ZM1430.88 2360.88C1429.08 2360.88 1427.62 2361.48 1426.5 2362.69C1425.4 2363.9 1424.69 2365.62 1424.38 2367.88H1436.94V2367.16C1436.9 2365.16 1436.35 2363.61 1435.31 2362.53C1434.27 2361.43 1432.79 2360.88 1430.88 2360.88Z" fill="black"/>
<rect x="3065" y="2195" width="650" height="343" fill="#34BFD2"/>
<path d="M3319.44 2364.41H3301.44V2383H3292.06V2337.5H3321.69V2345.09H3301.44V2356.84H3319.44V2364.41ZM3345.06 2383C3344.65 2382.19 3344.34 2381.18 3344.16 2379.97C3341.97 2382.41 3339.12 2383.62 3335.62 2383.62C3332.31 2383.62 3329.56 2382.67 3327.38 2380.75C3325.21 2378.83 3324.12 2376.42 3324.12 2373.5C3324.12 2369.92 3325.45 2367.17 3328.09 2365.25C3330.76 2363.33 3334.6 2362.36 3339.62 2362.34H3343.78V2360.41C3343.78 2358.84 3343.38 2357.59 3342.56 2356.66C3341.77 2355.72 3340.51 2355.25 3338.78 2355.25C3337.26 2355.25 3336.06 2355.61 3335.19 2356.34C3334.33 2357.07 3333.91 2358.07 3333.91 2359.34H3324.88C3324.88 2357.39 3325.48 2355.57 3326.69 2353.91C3327.9 2352.24 3329.6 2350.94 3331.81 2350C3334.02 2349.04 3336.5 2348.56 3339.25 2348.56C3343.42 2348.56 3346.72 2349.61 3349.16 2351.72C3351.61 2353.8 3352.84 2356.74 3352.84 2360.53V2375.19C3352.86 2378.4 3353.31 2380.82 3354.19 2382.47V2383H3345.06ZM3337.59 2376.72C3338.93 2376.72 3340.16 2376.43 3341.28 2375.84C3342.41 2375.24 3343.24 2374.44 3343.78 2373.44V2367.62H3340.41C3335.89 2367.62 3333.48 2369.19 3333.19 2372.31L3333.16 2372.84C3333.16 2373.97 3333.55 2374.9 3334.34 2375.62C3335.14 2376.35 3336.22 2376.72 3337.59 2376.72ZM3371.94 2371.97L3378.22 2349.19H3387.66L3376.25 2383H3367.62L3356.22 2349.19H3365.66L3371.94 2371.97ZM3389.75 2365.78C3389.75 2362.43 3390.4 2359.44 3391.69 2356.81C3392.98 2354.19 3394.83 2352.16 3397.25 2350.72C3399.69 2349.28 3402.51 2348.56 3405.72 2348.56C3410.28 2348.56 3414 2349.96 3416.88 2352.75C3419.77 2355.54 3421.39 2359.33 3421.72 2364.12L3421.78 2366.44C3421.78 2371.62 3420.33 2375.79 3417.44 2378.94C3414.54 2382.06 3410.66 2383.62 3405.78 2383.62C3400.91 2383.62 3397.01 2382.06 3394.09 2378.94C3391.2 2375.81 3389.75 2371.56 3389.75 2366.19V2365.78ZM3398.78 2366.44C3398.78 2369.65 3399.39 2372.1 3400.59 2373.81C3401.8 2375.5 3403.53 2376.34 3405.78 2376.34C3407.97 2376.34 3409.68 2375.51 3410.91 2373.84C3412.14 2372.16 3412.75 2369.47 3412.75 2365.78C3412.75 2362.64 3412.14 2360.2 3410.91 2358.47C3409.68 2356.74 3407.95 2355.88 3405.72 2355.88C3403.51 2355.88 3401.8 2356.74 3400.59 2358.47C3399.39 2360.18 3398.78 2362.83 3398.78 2366.44ZM3446.34 2357.66C3445.11 2357.49 3444.03 2357.41 3443.09 2357.41C3439.68 2357.41 3437.44 2358.56 3436.38 2360.88V2383H3427.34V2349.19H3435.88L3436.12 2353.22C3437.94 2350.11 3440.45 2348.56 3443.66 2348.56C3444.66 2348.56 3445.59 2348.7 3446.47 2348.97L3446.34 2357.66ZM3460.25 2383H3451.19V2349.19H3460.25V2383ZM3450.66 2340.44C3450.66 2339.08 3451.1 2337.97 3452 2337.09C3452.92 2336.22 3454.16 2335.78 3455.72 2335.78C3457.26 2335.78 3458.49 2336.22 3459.41 2337.09C3460.32 2337.97 3460.78 2339.08 3460.78 2340.44C3460.78 2341.81 3460.31 2342.94 3459.38 2343.81C3458.46 2344.69 3457.24 2345.12 3455.72 2345.12C3454.2 2345.12 3452.97 2344.69 3452.03 2343.81C3451.11 2342.94 3450.66 2341.81 3450.66 2340.44ZM3478.53 2340.88V2349.19H3484.31V2355.81H3478.53V2372.69C3478.53 2373.94 3478.77 2374.83 3479.25 2375.38C3479.73 2375.92 3480.65 2376.19 3482 2376.19C3483 2376.19 3483.89 2376.11 3484.66 2375.97V2382.81C3482.89 2383.35 3481.06 2383.62 3479.19 2383.62C3472.85 2383.62 3469.62 2380.43 3469.5 2374.03V2355.81H3464.56V2349.19H3469.5V2340.88H3478.53ZM3504.91 2383.62C3499.95 2383.62 3495.91 2382.1 3492.78 2379.06C3489.68 2376.02 3488.12 2371.97 3488.12 2366.91V2366.03C3488.12 2362.64 3488.78 2359.6 3490.09 2356.94C3491.41 2354.25 3493.26 2352.19 3495.66 2350.75C3498.07 2349.29 3500.82 2348.56 3503.91 2348.56C3508.53 2348.56 3512.17 2350.02 3514.81 2352.94C3517.48 2355.85 3518.81 2359.99 3518.81 2365.34V2369.03H3497.28C3497.57 2371.24 3498.45 2373.01 3499.91 2374.34C3501.39 2375.68 3503.25 2376.34 3505.5 2376.34C3508.98 2376.34 3511.7 2375.08 3513.66 2372.56L3518.09 2377.53C3516.74 2379.45 3514.91 2380.95 3512.59 2382.03C3510.28 2383.09 3507.72 2383.62 3504.91 2383.62ZM3503.88 2355.88C3502.08 2355.88 3500.62 2356.48 3499.5 2357.69C3498.4 2358.9 3497.69 2360.62 3497.38 2362.88H3509.94V2362.16C3509.9 2360.16 3509.35 2358.61 3508.31 2357.53C3507.27 2356.43 3505.79 2355.88 3503.88 2355.88Z" fill="black"/>
<path d="M2146.06 2393V2347.5H2162C2167.52 2347.5 2171.71 2348.56 2174.56 2350.69C2177.42 2352.79 2178.84 2355.89 2178.84 2359.97C2178.84 2362.2 2178.27 2364.17 2177.12 2365.88C2175.98 2367.56 2174.39 2368.8 2172.34 2369.59C2174.68 2370.18 2176.51 2371.35 2177.84 2373.12C2179.2 2374.9 2179.88 2377.06 2179.88 2379.62C2179.88 2384 2178.48 2387.31 2175.69 2389.56C2172.9 2391.81 2168.92 2392.96 2163.75 2393H2146.06ZM2155.44 2373.19V2385.47H2163.47C2165.68 2385.47 2167.4 2384.95 2168.62 2383.91C2169.88 2382.84 2170.5 2381.39 2170.5 2379.53C2170.5 2375.36 2168.34 2373.25 2164.03 2373.19H2155.44ZM2155.44 2366.56H2162.38C2167.1 2366.48 2169.47 2364.59 2169.47 2360.91C2169.47 2358.84 2168.86 2357.36 2167.66 2356.47C2166.47 2355.55 2164.58 2355.09 2162 2355.09H2155.44V2366.56ZM2201.91 2393.62C2196.95 2393.62 2192.91 2392.1 2189.78 2389.06C2186.68 2386.02 2185.12 2381.97 2185.12 2376.91V2376.03C2185.12 2372.64 2185.78 2369.6 2187.09 2366.94C2188.41 2364.25 2190.26 2362.19 2192.66 2360.75C2195.07 2359.29 2197.82 2358.56 2200.91 2358.56C2205.53 2358.56 2209.17 2360.02 2211.81 2362.94C2214.48 2365.85 2215.81 2369.99 2215.81 2375.34V2379.03H2194.28C2194.57 2381.24 2195.45 2383.01 2196.91 2384.34C2198.39 2385.68 2200.25 2386.34 2202.5 2386.34C2205.98 2386.34 2208.7 2385.08 2210.66 2382.56L2215.09 2387.53C2213.74 2389.45 2211.91 2390.95 2209.59 2392.03C2207.28 2393.09 2204.72 2393.62 2201.91 2393.62ZM2200.88 2365.88C2199.08 2365.88 2197.62 2366.48 2196.5 2367.69C2195.4 2368.9 2194.69 2370.62 2194.38 2372.88H2206.94V2372.16C2206.9 2370.16 2206.35 2368.61 2205.31 2367.53C2204.27 2366.43 2202.79 2365.88 2200.88 2365.88ZM2233.19 2381.97L2239.47 2359.19H2248.91L2237.5 2393H2228.88L2217.47 2359.19H2226.91L2233.19 2381.97ZM2268.03 2393.62C2263.07 2393.62 2259.03 2392.1 2255.91 2389.06C2252.8 2386.02 2251.25 2381.97 2251.25 2376.91V2376.03C2251.25 2372.64 2251.91 2369.6 2253.22 2366.94C2254.53 2364.25 2256.39 2362.19 2258.78 2360.75C2261.2 2359.29 2263.95 2358.56 2267.03 2358.56C2271.66 2358.56 2275.29 2360.02 2277.94 2362.94C2280.6 2365.85 2281.94 2369.99 2281.94 2375.34V2379.03H2260.41C2260.7 2381.24 2261.57 2383.01 2263.03 2384.34C2264.51 2385.68 2266.38 2386.34 2268.62 2386.34C2272.1 2386.34 2274.82 2385.08 2276.78 2382.56L2281.22 2387.53C2279.86 2389.45 2278.03 2390.95 2275.72 2392.03C2273.41 2393.09 2270.84 2393.62 2268.03 2393.62ZM2267 2365.88C2265.21 2365.88 2263.75 2366.48 2262.62 2367.69C2261.52 2368.9 2260.81 2370.62 2260.5 2372.88H2273.06V2372.16C2273.02 2370.16 2272.48 2368.61 2271.44 2367.53C2270.4 2366.43 2268.92 2365.88 2267 2365.88ZM2306.09 2367.66C2304.86 2367.49 2303.78 2367.41 2302.84 2367.41C2299.43 2367.41 2297.19 2368.56 2296.12 2370.88V2393H2287.09V2359.19H2295.62L2295.88 2363.22C2297.69 2360.11 2300.2 2358.56 2303.41 2358.56C2304.41 2358.56 2305.34 2358.7 2306.22 2358.97L2306.09 2367.66ZM2329.12 2393C2328.71 2392.19 2328.41 2391.18 2328.22 2389.97C2326.03 2392.41 2323.19 2393.62 2319.69 2393.62C2316.38 2393.62 2313.62 2392.67 2311.44 2390.75C2309.27 2388.83 2308.19 2386.42 2308.19 2383.5C2308.19 2379.92 2309.51 2377.17 2312.16 2375.25C2314.82 2373.33 2318.67 2372.36 2323.69 2372.34H2327.84V2370.41C2327.84 2368.84 2327.44 2367.59 2326.62 2366.66C2325.83 2365.72 2324.57 2365.25 2322.84 2365.25C2321.32 2365.25 2320.12 2365.61 2319.25 2366.34C2318.4 2367.07 2317.97 2368.07 2317.97 2369.34H2308.94C2308.94 2367.39 2309.54 2365.57 2310.75 2363.91C2311.96 2362.24 2313.67 2360.94 2315.88 2360C2318.08 2359.04 2320.56 2358.56 2323.31 2358.56C2327.48 2358.56 2330.78 2359.61 2333.22 2361.72C2335.68 2363.8 2336.91 2366.74 2336.91 2370.53V2385.19C2336.93 2388.4 2337.38 2390.82 2338.25 2392.47V2393H2329.12ZM2321.66 2386.72C2322.99 2386.72 2324.22 2386.43 2325.34 2385.84C2326.47 2385.24 2327.3 2384.44 2327.84 2383.44V2377.62H2324.47C2319.95 2377.62 2317.54 2379.19 2317.25 2382.31L2317.22 2382.84C2317.22 2383.97 2317.61 2384.9 2318.41 2385.62C2319.2 2386.35 2320.28 2386.72 2321.66 2386.72ZM2342.53 2375.84C2342.53 2370.66 2343.76 2366.48 2346.22 2363.31C2348.7 2360.15 2352.03 2358.56 2356.22 2358.56C2359.93 2358.56 2362.81 2359.83 2364.88 2362.38L2365.25 2359.19H2373.44V2391.88C2373.44 2394.83 2372.76 2397.41 2371.41 2399.59C2370.07 2401.78 2368.19 2403.45 2365.75 2404.59C2363.31 2405.74 2360.46 2406.31 2357.19 2406.31C2354.71 2406.31 2352.29 2405.81 2349.94 2404.81C2347.58 2403.83 2345.8 2402.56 2344.59 2401L2348.59 2395.5C2350.84 2398.02 2353.57 2399.28 2356.78 2399.28C2359.18 2399.28 2361.04 2398.64 2362.38 2397.34C2363.71 2396.07 2364.38 2394.26 2364.38 2391.91V2390.09C2362.29 2392.45 2359.55 2393.62 2356.16 2393.62C2352.09 2393.62 2348.8 2392.04 2346.28 2388.88C2343.78 2385.69 2342.53 2381.47 2342.53 2376.22V2375.84ZM2351.56 2376.5C2351.56 2379.56 2352.18 2381.97 2353.41 2383.72C2354.64 2385.45 2356.32 2386.31 2358.47 2386.31C2361.22 2386.31 2363.19 2385.28 2364.38 2383.22V2369C2363.17 2366.94 2361.22 2365.91 2358.53 2365.91C2356.36 2365.91 2354.66 2366.79 2353.41 2368.56C2352.18 2370.33 2351.56 2372.98 2351.56 2376.5ZM2395.97 2393.62C2391.01 2393.62 2386.97 2392.1 2383.84 2389.06C2380.74 2386.02 2379.19 2381.97 2379.19 2376.91V2376.03C2379.19 2372.64 2379.84 2369.6 2381.16 2366.94C2382.47 2364.25 2384.32 2362.19 2386.72 2360.75C2389.14 2359.29 2391.89 2358.56 2394.97 2358.56C2399.59 2358.56 2403.23 2360.02 2405.88 2362.94C2408.54 2365.85 2409.88 2369.99 2409.88 2375.34V2379.03H2388.34C2388.64 2381.24 2389.51 2383.01 2390.97 2384.34C2392.45 2385.68 2394.31 2386.34 2396.56 2386.34C2400.04 2386.34 2402.76 2385.08 2404.72 2382.56L2409.16 2387.53C2407.8 2389.45 2405.97 2390.95 2403.66 2392.03C2401.34 2393.09 2398.78 2393.62 2395.97 2393.62ZM2394.94 2365.88C2393.15 2365.88 2391.69 2366.48 2390.56 2367.69C2389.46 2368.9 2388.75 2370.62 2388.44 2372.88H2401V2372.16C2400.96 2370.16 2400.42 2368.61 2399.38 2367.53C2398.33 2366.43 2396.85 2365.88 2394.94 2365.88ZM2431.56 2393V2347.5H2445.56C2449.56 2347.5 2453.14 2348.41 2456.28 2350.22C2459.45 2352.01 2461.92 2354.57 2463.69 2357.91C2465.46 2361.22 2466.34 2364.99 2466.34 2369.22V2371.31C2466.34 2375.54 2465.47 2379.3 2463.72 2382.59C2461.99 2385.89 2459.54 2388.44 2456.38 2390.25C2453.21 2392.06 2449.64 2392.98 2445.66 2393H2431.56ZM2440.94 2355.09V2385.47H2445.47C2449.14 2385.47 2451.94 2384.27 2453.88 2381.88C2455.81 2379.48 2456.8 2376.05 2456.84 2371.59V2369.19C2456.84 2364.56 2455.89 2361.06 2453.97 2358.69C2452.05 2356.29 2449.25 2355.09 2445.56 2355.09H2440.94ZM2488.16 2393.62C2483.2 2393.62 2479.16 2392.1 2476.03 2389.06C2472.93 2386.02 2471.38 2381.97 2471.38 2376.91V2376.03C2471.38 2372.64 2472.03 2369.6 2473.34 2366.94C2474.66 2364.25 2476.51 2362.19 2478.91 2360.75C2481.32 2359.29 2484.07 2358.56 2487.16 2358.56C2491.78 2358.56 2495.42 2360.02 2498.06 2362.94C2500.73 2365.85 2502.06 2369.99 2502.06 2375.34V2379.03H2480.53C2480.82 2381.24 2481.7 2383.01 2483.16 2384.34C2484.64 2385.68 2486.5 2386.34 2488.75 2386.34C2492.23 2386.34 2494.95 2385.08 2496.91 2382.56L2501.34 2387.53C2499.99 2389.45 2498.16 2390.95 2495.84 2392.03C2493.53 2393.09 2490.97 2393.62 2488.16 2393.62ZM2487.12 2365.88C2485.33 2365.88 2483.88 2366.48 2482.75 2367.69C2481.65 2368.9 2480.94 2370.62 2480.62 2372.88H2493.19V2372.16C2493.15 2370.16 2492.6 2368.61 2491.56 2367.53C2490.52 2366.43 2489.04 2365.88 2487.12 2365.88ZM2518.03 2350.88V2359.19H2523.81V2365.81H2518.03V2382.69C2518.03 2383.94 2518.27 2384.83 2518.75 2385.38C2519.23 2385.92 2520.15 2386.19 2521.5 2386.19C2522.5 2386.19 2523.39 2386.11 2524.16 2385.97V2392.81C2522.39 2393.35 2520.56 2393.62 2518.69 2393.62C2512.35 2393.62 2509.12 2390.43 2509 2384.03V2365.81H2504.06V2359.19H2509V2350.88H2518.03ZM2548.44 2393C2548.02 2392.19 2547.72 2391.18 2547.53 2389.97C2545.34 2392.41 2542.5 2393.62 2539 2393.62C2535.69 2393.62 2532.94 2392.67 2530.75 2390.75C2528.58 2388.83 2527.5 2386.42 2527.5 2383.5C2527.5 2379.92 2528.82 2377.17 2531.47 2375.25C2534.14 2373.33 2537.98 2372.36 2543 2372.34H2547.16V2370.41C2547.16 2368.84 2546.75 2367.59 2545.94 2366.66C2545.15 2365.72 2543.89 2365.25 2542.16 2365.25C2540.64 2365.25 2539.44 2365.61 2538.56 2366.34C2537.71 2367.07 2537.28 2368.07 2537.28 2369.34H2528.25C2528.25 2367.39 2528.85 2365.57 2530.06 2363.91C2531.27 2362.24 2532.98 2360.94 2535.19 2360C2537.4 2359.04 2539.88 2358.56 2542.62 2358.56C2546.79 2358.56 2550.09 2359.61 2552.53 2361.72C2554.99 2363.8 2556.22 2366.74 2556.22 2370.53V2385.19C2556.24 2388.4 2556.69 2390.82 2557.56 2392.47V2393H2548.44ZM2540.97 2386.72C2542.3 2386.72 2543.53 2386.43 2544.66 2385.84C2545.78 2385.24 2546.61 2384.44 2547.16 2383.44V2377.62H2543.78C2539.26 2377.62 2536.85 2379.19 2536.56 2382.31L2536.53 2382.84C2536.53 2383.97 2536.93 2384.9 2537.72 2385.62C2538.51 2386.35 2539.59 2386.72 2540.97 2386.72ZM2572.69 2393H2563.62V2359.19H2572.69V2393ZM2563.09 2350.44C2563.09 2349.08 2563.54 2347.97 2564.44 2347.09C2565.35 2346.22 2566.59 2345.78 2568.16 2345.78C2569.7 2345.78 2570.93 2346.22 2571.84 2347.09C2572.76 2347.97 2573.22 2349.08 2573.22 2350.44C2573.22 2351.81 2572.75 2352.94 2571.81 2353.81C2570.9 2354.69 2569.68 2355.12 2568.16 2355.12C2566.64 2355.12 2565.41 2354.69 2564.47 2353.81C2563.55 2352.94 2563.09 2351.81 2563.09 2350.44ZM2589.69 2393H2580.62V2345H2589.69V2393Z" fill="black"/>
<path d="M1288.66 751.062C1288.66 749.292 1288.03 747.938 1286.78 747C1285.53 746.042 1283.28 745.042 1280.03 744C1276.78 742.938 1274.21 741.896 1272.31 740.875C1267.15 738.083 1264.56 734.323 1264.56 729.594C1264.56 727.135 1265.25 724.948 1266.62 723.031C1268.02 721.094 1270.01 719.583 1272.59 718.5C1275.2 717.417 1278.11 716.875 1281.34 716.875C1284.59 716.875 1287.49 717.469 1290.03 718.656C1292.57 719.823 1294.54 721.479 1295.94 723.625C1297.35 725.771 1298.06 728.208 1298.06 730.938H1288.69C1288.69 728.854 1288.03 727.24 1286.72 726.094C1285.41 724.927 1283.56 724.344 1281.19 724.344C1278.9 724.344 1277.11 724.833 1275.84 725.812C1274.57 726.771 1273.94 728.042 1273.94 729.625C1273.94 731.104 1274.68 732.344 1276.16 733.344C1277.66 734.344 1279.85 735.281 1282.75 736.156C1288.08 737.76 1291.97 739.75 1294.41 742.125C1296.84 744.5 1298.06 747.458 1298.06 751C1298.06 754.938 1296.57 758.031 1293.59 760.281C1290.61 762.51 1286.6 763.625 1281.56 763.625C1278.06 763.625 1274.88 762.99 1272 761.719C1269.12 760.427 1266.93 758.667 1265.41 756.438C1263.91 754.208 1263.16 751.625 1263.16 748.688H1272.56C1272.56 753.708 1275.56 756.219 1281.56 756.219C1283.79 756.219 1285.53 755.771 1286.78 754.875C1288.03 753.958 1288.66 752.688 1288.66 751.062ZM1317.91 756.344C1319.57 756.344 1320.93 755.885 1321.97 754.969C1323.01 754.052 1323.55 752.833 1323.59 751.312H1332.06C1332.04 753.604 1331.42 755.708 1330.19 757.625C1328.96 759.521 1327.27 761 1325.12 762.062C1323 763.104 1320.65 763.625 1318.06 763.625C1313.23 763.625 1309.42 762.094 1306.62 759.031C1303.83 755.948 1302.44 751.698 1302.44 746.281V745.688C1302.44 740.479 1303.82 736.323 1306.59 733.219C1309.36 730.115 1313.17 728.562 1318 728.562C1322.23 728.562 1325.61 729.771 1328.16 732.188C1330.72 734.583 1332.02 737.781 1332.06 741.781H1323.59C1323.55 740.031 1323.01 738.615 1321.97 737.531C1320.93 736.427 1319.55 735.875 1317.84 735.875C1315.74 735.875 1314.15 736.646 1313.06 738.188C1312 739.708 1311.47 742.188 1311.47 745.625V746.562C1311.47 750.042 1312 752.542 1313.06 754.062C1314.12 755.583 1315.74 756.344 1317.91 756.344ZM1356.22 737.656C1354.99 737.49 1353.91 737.406 1352.97 737.406C1349.55 737.406 1347.31 738.562 1346.25 740.875V763H1337.22V729.188H1345.75L1346 733.219C1347.81 730.115 1350.32 728.562 1353.53 728.562C1354.53 728.562 1355.47 728.698 1356.34 728.969L1356.22 737.656ZM1375.53 763.625C1370.57 763.625 1366.53 762.104 1363.41 759.062C1360.3 756.021 1358.75 751.969 1358.75 746.906V746.031C1358.75 742.635 1359.41 739.604 1360.72 736.938C1362.03 734.25 1363.89 732.188 1366.28 730.75C1368.7 729.292 1371.45 728.562 1374.53 728.562C1379.16 728.562 1382.79 730.021 1385.44 732.938C1388.1 735.854 1389.44 739.99 1389.44 745.344V749.031H1367.91C1368.2 751.24 1369.07 753.01 1370.53 754.344C1372.01 755.677 1373.88 756.344 1376.12 756.344C1379.6 756.344 1382.32 755.083 1384.28 752.562L1388.72 757.531C1387.36 759.448 1385.53 760.948 1383.22 762.031C1380.91 763.094 1378.34 763.625 1375.53 763.625ZM1374.5 735.875C1372.71 735.875 1371.25 736.479 1370.12 737.688C1369.02 738.896 1368.31 740.625 1368 742.875H1380.56V742.156C1380.52 740.156 1379.98 738.615 1378.94 737.531C1377.9 736.427 1376.42 735.875 1374.5 735.875ZM1410.16 763.625C1405.2 763.625 1401.16 762.104 1398.03 759.062C1394.93 756.021 1393.38 751.969 1393.38 746.906V746.031C1393.38 742.635 1394.03 739.604 1395.34 736.938C1396.66 734.25 1398.51 732.188 1400.91 730.75C1403.32 729.292 1406.07 728.562 1409.16 728.562C1413.78 728.562 1417.42 730.021 1420.06 732.938C1422.73 735.854 1424.06 739.99 1424.06 745.344V749.031H1402.53C1402.82 751.24 1403.7 753.01 1405.16 754.344C1406.64 755.677 1408.5 756.344 1410.75 756.344C1414.23 756.344 1416.95 755.083 1418.91 752.562L1423.34 757.531C1421.99 759.448 1420.16 760.948 1417.84 762.031C1415.53 763.094 1412.97 763.625 1410.16 763.625ZM1409.12 735.875C1407.33 735.875 1405.88 736.479 1404.75 737.688C1403.65 738.896 1402.94 740.625 1402.62 742.875H1415.19V742.156C1415.15 740.156 1414.6 738.615 1413.56 737.531C1412.52 736.427 1411.04 735.875 1409.12 735.875ZM1437.53 729.188L1437.81 733.094C1440.23 730.073 1443.47 728.562 1447.53 728.562C1451.11 728.562 1453.78 729.615 1455.53 731.719C1457.28 733.823 1458.18 736.969 1458.22 741.156V763H1449.19V741.375C1449.19 739.458 1448.77 738.073 1447.94 737.219C1447.1 736.344 1445.72 735.906 1443.78 735.906C1441.24 735.906 1439.33 736.99 1438.06 739.156V763H1429.03V729.188H1437.53ZM1483.41 753.656C1483.41 752.552 1482.85 751.688 1481.75 751.062C1480.67 750.417 1478.92 749.844 1476.5 749.344C1468.46 747.656 1464.44 744.24 1464.44 739.094C1464.44 736.094 1465.68 733.594 1468.16 731.594C1470.66 729.573 1473.92 728.562 1477.94 728.562C1482.23 728.562 1485.66 729.573 1488.22 731.594C1490.8 733.615 1492.09 736.24 1492.09 739.469H1483.06C1483.06 738.177 1482.65 737.115 1481.81 736.281C1480.98 735.427 1479.68 735 1477.91 735C1476.39 735 1475.21 735.344 1474.38 736.031C1473.54 736.719 1473.12 737.594 1473.12 738.656C1473.12 739.656 1473.59 740.469 1474.53 741.094C1475.49 741.698 1477.09 742.229 1479.34 742.688C1481.59 743.125 1483.49 743.625 1485.03 744.188C1489.8 745.938 1492.19 748.969 1492.19 753.281C1492.19 756.365 1490.86 758.865 1488.22 760.781C1485.57 762.677 1482.16 763.625 1477.97 763.625C1475.14 763.625 1472.61 763.125 1470.41 762.125C1468.22 761.104 1466.5 759.719 1465.25 757.969C1464 756.198 1463.38 754.292 1463.38 752.25H1471.94C1472.02 753.854 1472.61 755.083 1473.72 755.938C1474.82 756.792 1476.3 757.219 1478.16 757.219C1479.89 757.219 1481.19 756.896 1482.06 756.25C1482.96 755.583 1483.41 754.719 1483.41 753.656Z" fill="black"/>
<path d="M4083 1265V1191H5998.2H7878V1265" stroke="black" stroke-width="3" stroke-linecap="round" stroke-linejoin="round"/>
<path d="M684 1369V1295H1347.63H1999V1369" stroke="black" stroke-width="3" stroke-linecap="round" stroke-linejoin="round"/>
<path d="M1972 1712V1786L1308.37 1786H657V1712" stroke="black" stroke-width="3" stroke-linecap="round" stroke-linejoin="round"/>
<path d="M3822.75 1448.62H3806.31L3803.19 1458H3793.22L3810.16 1412.5H3818.84L3835.88 1458H3825.91L3822.75 1448.62ZM3808.84 1441.03H3820.22L3814.5 1424L3808.84 1441.03ZM3838.12 1440.84C3838.12 1435.57 3839.3 1431.38 3841.66 1428.25C3844.03 1425.12 3847.27 1423.56 3851.38 1423.56C3854.67 1423.56 3857.39 1424.79 3859.53 1427.25V1410H3868.59V1458H3860.44L3860 1454.41C3857.75 1457.22 3854.85 1458.62 3851.31 1458.62C3847.33 1458.62 3844.14 1457.06 3841.72 1453.94C3839.32 1450.79 3838.12 1446.43 3838.12 1440.84ZM3847.16 1441.5C3847.16 1444.67 3847.71 1447.09 3848.81 1448.78C3849.92 1450.47 3851.52 1451.31 3853.62 1451.31C3856.42 1451.31 3858.39 1450.14 3859.53 1447.78V1434.44C3858.41 1432.08 3856.46 1430.91 3853.69 1430.91C3849.33 1430.91 3847.16 1434.44 3847.16 1441.5ZM3874.19 1440.84C3874.19 1435.57 3875.36 1431.38 3877.72 1428.25C3880.09 1425.12 3883.33 1423.56 3887.44 1423.56C3890.73 1423.56 3893.45 1424.79 3895.59 1427.25V1410H3904.66V1458H3896.5L3896.06 1454.41C3893.81 1457.22 3890.92 1458.62 3887.38 1458.62C3883.4 1458.62 3880.2 1457.06 3877.78 1453.94C3875.39 1450.79 3874.19 1446.43 3874.19 1440.84ZM3883.22 1441.5C3883.22 1444.67 3883.77 1447.09 3884.88 1448.78C3885.98 1450.47 3887.58 1451.31 3889.69 1451.31C3892.48 1451.31 3894.45 1450.14 3895.59 1447.78V1434.44C3894.47 1432.08 3892.52 1430.91 3889.75 1430.91C3885.4 1430.91 3883.22 1434.44 3883.22 1441.5ZM3965.19 1458H3955.81L3937.56 1428.06V1458H3928.19V1412.5H3937.56L3955.84 1442.5V1412.5H3965.19V1458ZM3988.34 1458.62C3983.39 1458.62 3979.34 1457.1 3976.22 1454.06C3973.11 1451.02 3971.56 1446.97 3971.56 1441.91V1441.03C3971.56 1437.64 3972.22 1434.6 3973.53 1431.94C3974.84 1429.25 3976.7 1427.19 3979.09 1425.75C3981.51 1424.29 3984.26 1423.56 3987.34 1423.56C3991.97 1423.56 3995.6 1425.02 3998.25 1427.94C4000.92 1430.85 4002.25 1434.99 4002.25 1440.34V1444.03H3980.72C3981.01 1446.24 3981.89 1448.01 3983.34 1449.34C3984.82 1450.68 3986.69 1451.34 3988.94 1451.34C3992.42 1451.34 3995.14 1450.08 3997.09 1447.56L4001.53 1452.53C4000.18 1454.45 3998.34 1455.95 3996.03 1457.03C3993.72 1458.09 3991.16 1458.62 3988.34 1458.62ZM3987.31 1430.88C3985.52 1430.88 3984.06 1431.48 3982.94 1432.69C3981.83 1433.9 3981.12 1435.62 3980.81 1437.88H3993.38V1437.16C3993.33 1435.16 3992.79 1433.61 3991.75 1432.53C3990.71 1431.43 3989.23 1430.88 3987.31 1430.88ZM4036.81 1445.72L4041.25 1424.19H4049.97L4041.34 1458H4033.78L4027.38 1436.72L4020.97 1458H4013.44L4004.81 1424.19H4013.53L4017.94 1445.69L4024.12 1424.19H4030.66L4036.81 1445.72ZM4087.84 1441.34H4080.38V1458H4071V1412.5H4087.91C4093.28 1412.5 4097.43 1413.7 4100.34 1416.09C4103.26 1418.49 4104.72 1421.88 4104.72 1426.25C4104.72 1429.35 4104.04 1431.95 4102.69 1434.03C4101.35 1436.09 4099.32 1437.74 4096.59 1438.97L4106.44 1457.56V1458H4096.38L4087.84 1441.34ZM4080.38 1433.75H4087.94C4090.29 1433.75 4092.11 1433.16 4093.41 1431.97C4094.7 1430.76 4095.34 1429.1 4095.34 1427C4095.34 1424.85 4094.73 1423.17 4093.5 1421.94C4092.29 1420.71 4090.43 1420.09 4087.91 1420.09H4080.38V1433.75ZM4126.84 1458.62C4121.89 1458.62 4117.84 1457.1 4114.72 1454.06C4111.61 1451.02 4110.06 1446.97 4110.06 1441.91V1441.03C4110.06 1437.64 4110.72 1434.6 4112.03 1431.94C4113.34 1429.25 4115.2 1427.19 4117.59 1425.75C4120.01 1424.29 4122.76 1423.56 4125.84 1423.56C4130.47 1423.56 4134.1 1425.02 4136.75 1427.94C4139.42 1430.85 4140.75 1434.99 4140.75 1440.34V1444.03H4119.22C4119.51 1446.24 4120.39 1448.01 4121.84 1449.34C4123.32 1450.68 4125.19 1451.34 4127.44 1451.34C4130.92 1451.34 4133.64 1450.08 4135.59 1447.56L4140.03 1452.53C4138.68 1454.45 4136.84 1455.95 4134.53 1457.03C4132.22 1458.09 4129.66 1458.62 4126.84 1458.62ZM4125.81 1430.88C4124.02 1430.88 4122.56 1431.48 4121.44 1432.69C4120.33 1433.9 4119.62 1435.62 4119.31 1437.88H4131.88V1437.16C4131.83 1435.16 4131.29 1433.61 4130.25 1432.53C4129.21 1431.43 4127.73 1430.88 4125.81 1430.88ZM4159.97 1451.34C4161.64 1451.34 4162.99 1450.89 4164.03 1449.97C4165.07 1449.05 4165.61 1447.83 4165.66 1446.31H4174.12C4174.1 1448.6 4173.48 1450.71 4172.25 1452.62C4171.02 1454.52 4169.33 1456 4167.19 1457.06C4165.06 1458.1 4162.71 1458.62 4160.12 1458.62C4155.29 1458.62 4151.48 1457.09 4148.69 1454.03C4145.9 1450.95 4144.5 1446.7 4144.5 1441.28V1440.69C4144.5 1435.48 4145.89 1431.32 4148.66 1428.22C4151.43 1425.11 4155.23 1423.56 4160.06 1423.56C4164.29 1423.56 4167.68 1424.77 4170.22 1427.19C4172.78 1429.58 4174.08 1432.78 4174.12 1436.78H4165.66C4165.61 1435.03 4165.07 1433.61 4164.03 1432.53C4162.99 1431.43 4161.61 1430.88 4159.91 1430.88C4157.8 1430.88 4156.21 1431.65 4155.12 1433.19C4154.06 1434.71 4153.53 1437.19 4153.53 1440.62V1441.56C4153.53 1445.04 4154.06 1447.54 4155.12 1449.06C4156.19 1450.58 4157.8 1451.34 4159.97 1451.34ZM4188.81 1458H4179.75V1424.19H4188.81V1458ZM4179.22 1415.44C4179.22 1414.08 4179.67 1412.97 4180.56 1412.09C4181.48 1411.22 4182.72 1410.78 4184.28 1410.78C4185.82 1410.78 4187.05 1411.22 4187.97 1412.09C4188.89 1412.97 4189.34 1414.08 4189.34 1415.44C4189.34 1416.81 4188.88 1417.94 4187.94 1418.81C4187.02 1419.69 4185.8 1420.12 4184.28 1420.12C4182.76 1420.12 4181.53 1419.69 4180.59 1418.81C4179.68 1417.94 4179.22 1416.81 4179.22 1415.44ZM4226.72 1441.41C4226.72 1446.61 4225.53 1450.79 4223.16 1453.94C4220.8 1457.06 4217.61 1458.62 4213.59 1458.62C4210.18 1458.62 4207.42 1457.44 4205.31 1455.06V1471H4196.28V1424.19H4204.66L4204.97 1427.5C4207.16 1424.88 4210.01 1423.56 4213.53 1423.56C4217.7 1423.56 4220.94 1425.1 4223.25 1428.19C4225.56 1431.27 4226.72 1435.52 4226.72 1440.94V1441.41ZM4217.69 1440.75C4217.69 1437.6 4217.12 1435.18 4216 1433.47C4214.9 1431.76 4213.28 1430.91 4211.16 1430.91C4208.32 1430.91 4206.38 1431.99 4205.31 1434.16V1448C4206.42 1450.23 4208.39 1451.34 4211.22 1451.34C4215.53 1451.34 4217.69 1447.81 4217.69 1440.75ZM4247.91 1458.62C4242.95 1458.62 4238.91 1457.1 4235.78 1454.06C4232.68 1451.02 4231.12 1446.97 4231.12 1441.91V1441.03C4231.12 1437.64 4231.78 1434.6 4233.09 1431.94C4234.41 1429.25 4236.26 1427.19 4238.66 1425.75C4241.07 1424.29 4243.82 1423.56 4246.91 1423.56C4251.53 1423.56 4255.17 1425.02 4257.81 1427.94C4260.48 1430.85 4261.81 1434.99 4261.81 1440.34V1444.03H4240.28C4240.57 1446.24 4241.45 1448.01 4242.91 1449.34C4244.39 1450.68 4246.25 1451.34 4248.5 1451.34C4251.98 1451.34 4254.7 1450.08 4256.66 1447.56L4261.09 1452.53C4259.74 1454.45 4257.91 1455.95 4255.59 1457.03C4253.28 1458.09 4250.72 1458.62 4247.91 1458.62ZM4246.88 1430.88C4245.08 1430.88 4243.62 1431.48 4242.5 1432.69C4241.4 1433.9 4240.69 1435.62 4240.38 1437.88H4252.94V1437.16C4252.9 1435.16 4252.35 1433.61 4251.31 1432.53C4250.27 1431.43 4248.79 1430.88 4246.88 1430.88Z" fill="black"/>
<path d="M5421.66 1446.06C5421.66 1444.29 5421.03 1442.94 5419.78 1442C5418.53 1441.04 5416.28 1440.04 5413.03 1439C5409.78 1437.94 5407.21 1436.9 5405.31 1435.88C5400.15 1433.08 5397.56 1429.32 5397.56 1424.59C5397.56 1422.14 5398.25 1419.95 5399.62 1418.03C5401.02 1416.09 5403.01 1414.58 5405.59 1413.5C5408.2 1412.42 5411.11 1411.88 5414.34 1411.88C5417.59 1411.88 5420.49 1412.47 5423.03 1413.66C5425.57 1414.82 5427.54 1416.48 5428.94 1418.62C5430.35 1420.77 5431.06 1423.21 5431.06 1425.94H5421.69C5421.69 1423.85 5421.03 1422.24 5419.72 1421.09C5418.41 1419.93 5416.56 1419.34 5414.19 1419.34C5411.9 1419.34 5410.11 1419.83 5408.84 1420.81C5407.57 1421.77 5406.94 1423.04 5406.94 1424.62C5406.94 1426.1 5407.68 1427.34 5409.16 1428.34C5410.66 1429.34 5412.85 1430.28 5415.75 1431.16C5421.08 1432.76 5424.97 1434.75 5427.41 1437.12C5429.84 1439.5 5431.06 1442.46 5431.06 1446C5431.06 1449.94 5429.57 1453.03 5426.59 1455.28C5423.61 1457.51 5419.6 1458.62 5414.56 1458.62C5411.06 1458.62 5407.88 1457.99 5405 1456.72C5402.12 1455.43 5399.93 1453.67 5398.41 1451.44C5396.91 1449.21 5396.16 1446.62 5396.16 1443.69H5405.56C5405.56 1448.71 5408.56 1451.22 5414.56 1451.22C5416.79 1451.22 5418.53 1450.77 5419.78 1449.88C5421.03 1448.96 5421.66 1447.69 5421.66 1446.06ZM5452.41 1458.62C5447.45 1458.62 5443.41 1457.1 5440.28 1454.06C5437.18 1451.02 5435.62 1446.97 5435.62 1441.91V1441.03C5435.62 1437.64 5436.28 1434.6 5437.59 1431.94C5438.91 1429.25 5440.76 1427.19 5443.16 1425.75C5445.57 1424.29 5448.32 1423.56 5451.41 1423.56C5456.03 1423.56 5459.67 1425.02 5462.31 1427.94C5464.98 1430.85 5466.31 1434.99 5466.31 1440.34V1444.03H5444.78C5445.07 1446.24 5445.95 1448.01 5447.41 1449.34C5448.89 1450.68 5450.75 1451.34 5453 1451.34C5456.48 1451.34 5459.2 1450.08 5461.16 1447.56L5465.59 1452.53C5464.24 1454.45 5462.41 1455.95 5460.09 1457.03C5457.78 1458.09 5455.22 1458.62 5452.41 1458.62ZM5451.38 1430.88C5449.58 1430.88 5448.12 1431.48 5447 1432.69C5445.9 1433.9 5445.19 1435.62 5444.88 1437.88H5457.44V1437.16C5457.4 1435.16 5456.85 1433.61 5455.81 1432.53C5454.77 1431.43 5453.29 1430.88 5451.38 1430.88ZM5491.06 1458C5490.65 1457.19 5490.34 1456.18 5490.16 1454.97C5487.97 1457.41 5485.12 1458.62 5481.62 1458.62C5478.31 1458.62 5475.56 1457.67 5473.38 1455.75C5471.21 1453.83 5470.12 1451.42 5470.12 1448.5C5470.12 1444.92 5471.45 1442.17 5474.09 1440.25C5476.76 1438.33 5480.6 1437.36 5485.62 1437.34H5489.78V1435.41C5489.78 1433.84 5489.38 1432.59 5488.56 1431.66C5487.77 1430.72 5486.51 1430.25 5484.78 1430.25C5483.26 1430.25 5482.06 1430.61 5481.19 1431.34C5480.33 1432.07 5479.91 1433.07 5479.91 1434.34H5470.88C5470.88 1432.39 5471.48 1430.57 5472.69 1428.91C5473.9 1427.24 5475.6 1425.94 5477.81 1425C5480.02 1424.04 5482.5 1423.56 5485.25 1423.56C5489.42 1423.56 5492.72 1424.61 5495.16 1426.72C5497.61 1428.8 5498.84 1431.74 5498.84 1435.53V1450.19C5498.86 1453.4 5499.31 1455.82 5500.19 1457.47V1458H5491.06ZM5483.59 1451.72C5484.93 1451.72 5486.16 1451.43 5487.28 1450.84C5488.41 1450.24 5489.24 1449.44 5489.78 1448.44V1442.62H5486.41C5481.89 1442.62 5479.48 1444.19 5479.19 1447.31L5479.16 1447.84C5479.16 1448.97 5479.55 1449.9 5480.34 1450.62C5481.14 1451.35 5482.22 1451.72 5483.59 1451.72ZM5524.78 1432.66C5523.55 1432.49 5522.47 1432.41 5521.53 1432.41C5518.11 1432.41 5515.88 1433.56 5514.81 1435.88V1458H5505.78V1424.19H5514.31L5514.56 1428.22C5516.38 1425.11 5518.89 1423.56 5522.09 1423.56C5523.09 1423.56 5524.03 1423.7 5524.91 1423.97L5524.78 1432.66ZM5542.59 1451.34C5544.26 1451.34 5545.61 1450.89 5546.66 1449.97C5547.7 1449.05 5548.24 1447.83 5548.28 1446.31H5556.75C5556.73 1448.6 5556.1 1450.71 5554.88 1452.62C5553.65 1454.52 5551.96 1456 5549.81 1457.06C5547.69 1458.1 5545.33 1458.62 5542.75 1458.62C5537.92 1458.62 5534.1 1457.09 5531.31 1454.03C5528.52 1450.95 5527.12 1446.7 5527.12 1441.28V1440.69C5527.12 1435.48 5528.51 1431.32 5531.28 1428.22C5534.05 1425.11 5537.85 1423.56 5542.69 1423.56C5546.92 1423.56 5550.3 1424.77 5552.84 1427.19C5555.41 1429.58 5556.71 1432.78 5556.75 1436.78H5548.28C5548.24 1435.03 5547.7 1433.61 5546.66 1432.53C5545.61 1431.43 5544.24 1430.88 5542.53 1430.88C5540.43 1430.88 5538.83 1431.65 5537.75 1433.19C5536.69 1434.71 5536.16 1437.19 5536.16 1440.62V1441.56C5536.16 1445.04 5536.69 1447.54 5537.75 1449.06C5538.81 1450.58 5540.43 1451.34 5542.59 1451.34ZM5570.72 1427.88C5573.11 1425 5576.12 1423.56 5579.75 1423.56C5587.08 1423.56 5590.8 1427.82 5590.91 1436.34V1458H5581.88V1436.59C5581.88 1434.66 5581.46 1433.23 5580.62 1432.31C5579.79 1431.38 5578.41 1430.91 5576.47 1430.91C5573.82 1430.91 5571.91 1431.93 5570.72 1433.97V1458H5561.69V1410H5570.72V1427.88ZM5624.22 1458H5614.84V1412.5H5624.22V1458ZM5640.66 1424.19L5640.94 1428.09C5643.35 1425.07 5646.59 1423.56 5650.66 1423.56C5654.24 1423.56 5656.91 1424.61 5658.66 1426.72C5660.41 1428.82 5661.3 1431.97 5661.34 1436.16V1458H5652.31V1436.38C5652.31 1434.46 5651.9 1433.07 5651.06 1432.22C5650.23 1431.34 5648.84 1430.91 5646.91 1430.91C5644.36 1430.91 5642.46 1431.99 5641.19 1434.16V1458H5632.16V1424.19H5640.66ZM5698.66 1441.41C5698.66 1446.61 5697.47 1450.79 5695.09 1453.94C5692.74 1457.06 5689.55 1458.62 5685.53 1458.62C5682.11 1458.62 5679.35 1457.44 5677.25 1455.06V1471H5668.22V1424.19H5676.59L5676.91 1427.5C5679.09 1424.88 5681.95 1423.56 5685.47 1423.56C5689.64 1423.56 5692.88 1425.1 5695.19 1428.19C5697.5 1431.27 5698.66 1435.52 5698.66 1440.94V1441.41ZM5689.62 1440.75C5689.62 1437.6 5689.06 1435.18 5687.94 1433.47C5686.83 1431.76 5685.22 1430.91 5683.09 1430.91C5680.26 1430.91 5678.31 1431.99 5677.25 1434.16V1448C5678.35 1450.23 5680.32 1451.34 5683.16 1451.34C5687.47 1451.34 5689.62 1447.81 5689.62 1440.75ZM5724.53 1454.56C5722.3 1457.27 5719.22 1458.62 5715.28 1458.62C5711.66 1458.62 5708.89 1457.58 5706.97 1455.5C5705.07 1453.42 5704.1 1450.36 5704.06 1446.34V1424.19H5713.09V1446.03C5713.09 1449.55 5714.7 1451.31 5717.91 1451.31C5720.97 1451.31 5723.07 1450.25 5724.22 1448.12V1424.19H5733.28V1458H5724.78L5724.53 1454.56ZM5750.91 1415.88V1424.19H5756.69V1430.81H5750.91V1447.69C5750.91 1448.94 5751.15 1449.83 5751.62 1450.38C5752.1 1450.92 5753.02 1451.19 5754.38 1451.19C5755.38 1451.19 5756.26 1451.11 5757.03 1450.97V1457.81C5755.26 1458.35 5753.44 1458.62 5751.56 1458.62C5745.23 1458.62 5742 1455.43 5741.88 1449.03V1430.81H5736.94V1424.19H5741.88V1415.88H5750.91Z" fill="black"/>
</svg>
