<svg width="338" height="210" viewBox="0 0 338 210" fill="none" xmlns="http://www.w3.org/2000/svg">
<g clip-path="url(#clip0)">
<path d="M150.291 6.16382C179.731 6.30382 202.53 18.6438 215.33 45.4038C225.57 66.8638 222.59 86.8238 209.17 106.064C192.571 129.944 171.651 152.504 152.291 174.164C150.011 176.724 147.651 179.224 145.571 181.924C140.791 188.104 137.951 187.924 133.791 180.784C129.031 172.544 124.451 164.184 119.911 155.804C109.731 136.924 98.7106 118.504 89.4306 99.0838C73.8306 66.2438 83.1106 33.4438 114.291 14.6438C125.142 8.20482 137.706 5.24534 150.291 6.16382Z" stroke="#C25A5B" stroke-width="2" stroke-miterlimit="10"/>
<path d="M150.291 0.163824C179.731 0.283824 202.53 12.6438 215.33 39.4038C225.57 60.8438 222.59 82.8038 209.17 102.044C192.571 126.044 171.651 146.404 152.291 168.164C150.011 170.724 147.651 173.204 145.571 175.924C140.791 182.104 137.951 181.924 133.791 174.784C129.031 166.544 124.451 158.184 119.911 149.804C109.731 130.924 98.7106 112.484 89.4306 93.0838C73.8306 60.2238 83.1106 27.4438 114.291 8.64382C125.142 2.20482 137.706 -0.754664 150.291 0.163824Z" fill="#983B56"/>
<path d="M2.31676 162.256C-0.183245 136.456 21.6568 111.416 45.4968 108.456C53.3038 107.327 61.2708 108.303 68.574 111.285C75.877 114.267 82.251 119.145 87.0368 125.416C101.317 143.096 112.237 163.016 123.877 182.456C128.657 190.456 127.357 191.916 118.397 193.856C101.957 197.416 85.6568 201.676 69.2168 205.196C42.5168 210.896 25.2168 208.756 10.5768 189.196C4.35676 180.916 0.896755 171.776 2.31676 162.256Z" stroke="#993B56" stroke-width="2" stroke-miterlimit="10"/>
<path d="M2.31676 156.276C-0.183245 130.476 21.6568 105.436 45.4968 102.456C53.3038 101.327 61.2708 102.303 68.574 105.285C75.877 108.267 82.251 113.145 87.0368 119.416C101.257 137.096 112.237 157.036 123.877 176.456C128.657 184.456 127.357 185.916 118.397 187.856C101.957 191.416 85.6568 195.676 69.2168 199.196C42.5168 204.896 25.2168 202.756 10.5768 183.196C4.35676 174.936 0.896755 165.776 2.31676 156.276Z" fill="#C25A5B" stroke="#B57469" stroke-miterlimit="10"/>
<path d="M198.642 205.292C193.88 204.894 189.221 203.69 184.862 201.732C176.382 197.612 167.582 194.192 158.862 190.392C154.542 188.392 153.382 184.752 156.262 181.492C165.942 170.592 175.162 159.032 187.382 150.832C201.882 141.032 214.142 147.292 223.542 159.292C230.702 168.412 233.162 178.952 226.382 189.832C220.422 199.492 213.422 205.972 198.642 205.292Z" stroke="#993B56" stroke-width="2" stroke-miterlimit="10"/>
<path d="M202.642 201.22C197.879 200.812 193.22 199.602 188.862 197.64C180.382 193.64 171.582 190.1 162.862 186.32C158.542 184.32 157.382 180.68 160.262 177.42C169.942 166.52 179.162 154.96 191.382 146.74C205.802 137.06 218.062 143.34 227.482 155.38C234.642 164.5 237.102 175.02 230.322 185.92C224.422 195.52 217.422 202 202.642 201.22Z" fill="#C25A5B" stroke="#B57469" stroke-miterlimit="10"/>
<path d="M305.906 52.088C313.25 51.6898 320.606 52.6458 327.606 54.908C336.046 57.668 337.006 61.188 333.806 69.388C327.378 86.269 317.146 101.442 303.906 113.728C295.606 121.388 285.906 126.328 275.486 130.968C257.486 138.968 239.286 136.708 220.906 135.508C212.906 134.988 208.786 128.548 211.526 121.128C220.826 95.948 235.806 75.788 260.426 63.128C274.986 55.688 290.046 52.748 305.906 52.088ZM279.906 115.408C283.256 115.053 286.466 113.871 289.246 111.968C291.566 110.068 292.946 106.668 289.646 105.468C281.986 102.648 274.046 99.468 265.646 104.088C261.106 106.628 262.226 109.348 265.646 110.928C270.294 112.736 275.058 114.233 279.906 115.408ZM255.406 91.908C255.566 97.128 257.186 98.388 261.786 95.908C268.846 92.168 269.186 84.968 271.506 78.768C272.366 76.468 273.246 74.048 270.526 72.268C267.806 70.488 265.706 72.148 263.886 73.588C257.906 78.348 256.646 85.388 255.406 91.908ZM297.226 69.728C297.106 66.428 295.406 65.048 292.106 65.068C285.826 65.068 279.106 74.028 280.846 80.248C280.996 80.9524 281.38 81.5854 281.934 82.043C282.49 82.5008 283.186 82.7564 283.906 82.768C287.446 82.888 297.386 73.068 297.226 69.728ZM245.386 125.828C249.146 126.248 252.686 125.008 256.246 124.228C256.976 124.082 257.638 123.706 258.14 123.156C258.64 122.605 258.95 121.908 259.026 121.168C259.076 120.8 259.05 120.426 258.952 120.068C258.852 119.71 258.682 119.376 258.45 119.086C258.218 118.796 257.93 118.557 257.602 118.381C257.276 118.206 256.916 118.1 256.546 118.068C252.546 117.248 248.546 115.408 244.346 117.088C241.346 118.288 237.566 119.088 238.126 123.088C238.686 127.088 242.746 125.428 245.386 125.828ZM302.446 85.828C297.746 85.828 288.666 91.328 289.826 93.308C291.926 96.928 296.306 97.708 300.006 97.868C301.108 97.9414 302.212 97.7898 303.254 97.4224C304.296 97.0552 305.252 96.4798 306.064 95.7314C306.876 94.9832 307.526 94.0774 307.978 93.0694C308.428 92.0612 308.67 90.972 308.686 89.868C309.006 85.768 304.606 86.748 302.446 85.768V85.828ZM243.426 97.008C243.306 95.928 243.906 94.208 242.366 93.368C240.826 92.528 239.626 94.028 238.826 95.068C236.026 98.728 233.286 102.428 230.826 106.268C230.312 106.965 230.05 107.817 230.088 108.683C230.124 109.549 230.454 110.376 231.026 111.028C232.346 112.408 233.646 111.228 234.926 110.608C237.562 109.463 239.786 107.542 241.304 105.102C242.822 102.663 243.562 99.8184 243.426 96.948V97.008Z" stroke="#993B56" stroke-width="2" stroke-miterlimit="10"/>
<path d="M307.138 46.0812C314.484 45.7002 321.838 46.6628 328.838 48.9212C337.278 51.6612 338.238 55.2012 335.038 63.4012C328.634 80.2862 318.432 95.4712 305.218 107.781C296.918 115.441 287.218 120.381 276.798 125.021C258.798 133.021 240.598 130.761 222.218 129.561C214.218 129.041 210.118 122.581 212.838 115.181C222.138 90.0012 237.118 69.8412 261.738 57.1812C276.218 49.7412 291.298 46.8012 307.138 46.0812ZM281.138 109.421C284.486 109.096 287.702 107.949 290.498 106.081C292.798 104.181 294.178 100.781 290.898 99.5812C283.218 96.7612 275.278 93.5812 266.898 98.2012C262.358 100.741 263.478 103.461 266.898 105.041C271.544 106.825 276.3 108.301 281.138 109.461V109.421ZM256.658 85.9612C256.818 91.1812 258.418 92.4412 263.018 89.9612C270.078 86.2212 270.418 79.0212 272.758 72.8212C273.618 70.5212 274.498 68.1012 271.758 66.3212C269.018 64.5412 266.938 66.2012 265.118 67.6412C259.098 72.4012 257.898 79.4412 256.658 85.9612ZM298.458 63.7812C298.338 60.4812 296.638 59.1012 293.338 59.1212C287.058 59.1212 280.338 68.0812 282.078 74.3012C282.228 75.0188 282.624 75.6616 283.196 76.1182C283.77 76.575 284.486 76.8164 285.218 76.8012C288.678 76.9412 298.618 67.1212 298.458 63.7812ZM246.618 119.881C250.302 119.945 253.97 119.404 257.478 118.281C258.208 118.135 258.872 117.759 259.372 117.209C259.872 116.658 260.184 115.961 260.258 115.221C260.318 114.85 260.3 114.47 260.204 114.106C260.11 113.743 259.94 113.402 259.706 113.107C259.474 112.812 259.182 112.569 258.85 112.392C258.518 112.216 258.154 112.11 257.778 112.081C253.778 111.261 249.778 109.421 245.578 111.101C242.598 112.301 238.798 113.101 239.358 117.101C239.918 121.101 244.018 119.481 246.618 119.881ZM303.678 79.8812C298.978 79.8812 289.918 85.3812 291.058 87.3612C293.178 90.9812 297.538 91.7612 301.238 91.9212C302.34 91.9944 303.446 91.843 304.486 91.4756C305.528 91.1084 306.484 90.533 307.296 89.7846C308.108 89.0362 308.76 88.1304 309.21 87.1224C309.66 86.1144 309.902 85.0252 309.918 83.9212C310.238 79.8212 305.838 80.8012 303.678 79.8212V79.8812ZM244.658 91.0612C244.538 89.9812 245.138 88.2612 243.598 87.4212C242.058 86.5812 240.858 88.0812 240.058 89.1212C237.258 92.7612 234.518 96.4612 232.058 100.321C231.544 101.018 231.284 101.871 231.32 102.736C231.356 103.602 231.688 104.429 232.258 105.081C233.598 106.461 234.878 105.261 236.158 104.661C238.794 103.516 241.018 101.595 242.536 99.1556C244.056 96.7156 244.796 93.8716 244.658 91.0012V91.0612Z" fill="#C25A5B" stroke="#B57469" stroke-miterlimit="10"/>
</g>
<defs>
<clipPath id="clip0">
<rect width="338" height="210" fill="white"/>
</clipPath>
</defs>
</svg>
