<svg width="1178" height="490" viewBox="0 0 1178 490" fill="none" xmlns="http://www.w3.org/2000/svg">
<path d="M143.23 293.996L145.217 293.766L145.211 293.712L145.202 293.66L143.23 293.996ZM94.404 267.662L94.608 269.652L94.6358 269.648L94.404 267.662ZM45.0954 281.444L44.2646 279.626L44.227 279.642L44.1902 279.662L45.0954 281.444ZM34.8124 293.098L32.8988 292.516L32.8856 292.56L32.8744 292.604L34.8124 293.098ZM34.5554 299.168L36.5492 299.012L36.5422 298.922L36.527 298.832L34.5554 299.168ZM35.7888 302.618L35.484 304.594L35.8048 304.644L36.1246 304.588L35.7888 302.618ZM42.3752 300.85L43.1458 302.694L43.2334 302.658L43.3172 302.614L42.3752 300.85ZM39.397 422.32L37.4006 422.2L37.4002 422.204L39.397 422.32ZM53.5664 443.582L53.433 445.578L53.4556 445.58H53.4782L53.5664 443.582ZM138.334 415.578L136.851 414.236L136.835 414.254L138.334 415.578ZM152.59 374.192L154.57 373.91L154.566 373.882L154.562 373.856L152.59 374.192ZM113.376 343.636L112.321 341.938L106.69 345.434L113.315 345.636L113.376 343.636ZM121.75 382.674L123.729 382.384L123.726 382.362L123.722 382.338L121.75 382.674ZM116.646 408.296L118.295 409.428L118.314 409.4L118.332 409.372L116.646 408.296ZM92.2106 422.792L92.4972 424.772L92.522 424.768L92.5466 424.764L92.2106 422.792ZM70.781 419.556L68.8094 419.892L68.962 420.786L69.7356 421.26L70.781 419.556ZM69.845 411.536L67.8452 411.552V411.572L67.8458 411.59L69.845 411.536ZM72.2438 361.192L73.7616 359.89L70.602 356.208L70.2492 361.046L72.2438 361.192ZM83.7216 361.604L83.1912 359.676L83.7216 361.604ZM90.0322 360.744L89.975 362.744H90.0322H90.0894L90.0322 360.744ZM114.486 303.414L116.469 303.152L116.464 303.114L116.458 303.078L114.486 303.414ZM89.2324 342.154L88.5544 340.272L88.5334 340.28L89.2324 342.154ZM72.7842 346.68L70.7882 346.554L70.6154 349.324L73.2974 348.612L72.7842 346.68ZM74.776 309.104L72.7784 309.004L72.7776 309.018L74.776 309.104ZM70.5938 290.876L69.8948 289.002L67.418 289.926L68.9806 292.058L70.5938 290.876ZM145.202 293.66C143.14 281.562 137.642 273.538 128.752 269.104C120.022 264.75 108.329 264.022 94.1722 265.676L94.6358 269.648C108.548 268.024 119.29 268.856 126.967 272.684C134.483 276.432 139.364 283.212 141.259 294.332L145.202 293.66ZM94.2 265.672C90.9504 266.006 87.958 266.516 84.8292 267.05L85.501 270.992C88.6472 270.456 91.5114 269.968 94.608 269.652L94.2 265.672ZM84.8292 267.05C70.8456 269.432 57.1954 273.72 44.2646 279.626L45.9262 283.264C58.5566 277.496 71.8748 273.314 85.501 270.992L84.8292 267.05ZM44.1902 279.662C41.4826 281.036 39.1484 282.072 37.323 283.88C35.4214 285.762 34.1684 288.336 32.8988 292.516L36.726 293.68C37.9384 289.688 38.9544 287.894 40.1374 286.722C41.3968 285.474 42.9632 284.77 46.0006 283.228L44.1902 279.662ZM32.8744 292.604C32.2882 294.904 32.2168 297.35 32.5838 299.504L36.527 298.832C36.2524 297.222 36.3048 295.342 36.7506 293.592L32.8744 292.604ZM32.5614 299.324C32.656 300.534 32.8138 301.592 33.1122 302.414C33.3924 303.184 34.042 304.372 35.484 304.594L36.0934 300.64C36.4362 300.694 36.6866 300.87 36.8214 301.018C36.9266 301.134 36.9222 301.186 36.8716 301.048C36.765 300.754 36.6376 300.14 36.5492 299.012L32.5614 299.324ZM36.1246 304.588C37.3796 304.374 40.3018 303.882 43.1458 302.694L41.6044 299.004C39.224 299.998 36.708 300.432 35.4528 300.646L36.1246 304.588ZM43.3172 302.614C43.002 302.782 42.5854 302.834 42.1936 302.708C42.0298 302.654 41.9146 302.582 41.8474 302.534C41.781 302.486 41.7476 302.448 41.743 302.444C41.7392 302.44 41.787 302.494 41.8714 302.652C41.952 302.802 42.0438 303.002 42.143 303.258C42.5522 304.312 42.9236 305.87 43.1818 307.384L47.1248 306.712C46.8482 305.088 46.4226 303.23 45.8722 301.812C45.61 301.136 45.2454 300.36 44.7238 299.776C44.4564 299.478 44.0334 299.1 43.4312 298.904C42.7528 298.682 42.0442 298.758 41.433 299.084L43.3172 302.614ZM43.1818 307.384C43.6044 309.866 43.6558 315.466 43.4068 323.408C43.1604 331.262 42.6312 341.19 41.9606 352.168C40.626 374.018 38.7112 400.32 37.4006 422.2L41.3934 422.44C42.714 400.394 44.604 374.5 45.9532 352.412C46.6244 341.424 47.1566 331.448 47.4048 323.534C47.6502 315.706 47.6288 309.67 47.1248 306.712L43.1818 307.384ZM37.4002 422.204C37.2212 425.288 37.6916 428.008 38.081 430.294L42.024 429.622C41.6294 427.304 41.2444 425.006 41.3936 422.436L37.4002 422.204ZM38.081 430.294C38.7558 434.254 41.034 437.932 43.8102 440.65C46.5586 443.342 50.0676 445.352 53.433 445.578L53.7 441.586C51.6224 441.448 48.9624 440.098 46.6086 437.792C44.2828 435.516 42.5254 432.564 42.024 429.622L38.081 430.294ZM53.4782 445.58C61.665 445.942 79.0362 444.716 88.3574 443.126L87.6856 439.184C78.6004 440.732 61.5164 441.932 53.6548 441.584L53.4782 445.58ZM88.3574 443.126C109.173 439.58 127.362 431.016 139.833 416.902L136.835 414.254C125.126 427.506 107.866 435.744 87.6856 439.184L88.3574 443.126ZM139.817 416.92C151.171 404.368 156.855 389.962 154.57 373.91L150.61 374.472C152.692 389.1 147.593 402.36 136.851 414.236L139.817 416.92ZM154.562 373.856L154.384 372.81L150.441 373.482L150.619 374.528L154.562 373.856ZM154.384 372.81C152.845 363.778 148.469 356.116 141.469 350.64C134.484 345.178 125.017 341.99 113.437 341.638L113.315 345.636C124.237 345.968 132.827 348.96 139.004 353.792C145.165 358.61 149.057 365.36 150.441 373.482L154.384 372.81ZM114.431 345.336C135.818 332.056 147.608 314.458 145.217 293.766L141.243 294.226C143.39 312.794 132.978 329.112 112.321 341.938L114.431 345.336ZM119.6 381.964L119.779 383.01L123.722 382.338L123.543 381.292L119.6 381.964ZM119.771 382.966C121.069 391.784 119.597 399.946 114.959 407.222L118.332 409.372C123.545 401.194 125.15 392.042 123.729 382.384L119.771 382.966ZM114.996 407.166C110.003 414.452 102.929 418.936 91.8746 420.82L92.5466 424.764C104.5 422.726 112.6 417.738 118.295 409.428L114.996 407.166ZM91.924 420.812C83.8038 421.988 77.0648 421.062 71.8266 417.85L69.7356 421.26C76.0342 425.122 83.8128 426.028 92.4972 424.772L91.924 420.812ZM72.7526 419.22C72.324 416.704 71.9206 414.322 71.8444 411.482L67.8458 411.59C67.9308 414.748 68.3828 417.388 68.8094 419.892L72.7526 419.22ZM71.845 411.52C71.723 397 73.1406 376.394 74.2386 361.338L70.2492 361.046C69.154 376.066 67.7216 396.842 67.8452 411.552L71.845 411.52ZM70.7262 362.494C72.9618 365.1 75.749 365.206 77.6092 364.89L76.9372 360.946C75.869 361.128 74.7488 361.04 73.7616 359.89L70.7262 362.494ZM77.6092 364.89C79.8914 364.5 82.0832 364.128 84.2522 363.532L83.1912 359.676C81.248 360.21 79.2566 360.552 76.9372 360.946L77.6092 364.89ZM84.2522 363.532C86.1838 363 88.0696 362.688 89.975 362.744L90.0896 358.744C87.669 358.676 85.3716 359.076 83.1912 359.676L84.2522 363.532ZM90.0894 362.744C98.9896 362.49 105.772 363.928 110.585 367.026C115.319 370.072 118.394 374.884 119.6 381.964L123.543 381.292C122.184 373.314 118.592 367.422 112.75 363.662C106.986 359.952 99.2816 358.48 89.9752 358.744L90.0894 362.744ZM112.503 303.674C113.544 311.584 112.114 319.06 108.204 325.364C104.296 331.666 97.8262 336.932 88.5544 340.272L89.9104 344.036C99.9034 340.436 107.154 334.646 111.604 327.472C116.053 320.298 117.617 311.874 116.469 303.152L112.503 303.674ZM88.5334 340.28C84.4048 341.82 76.956 343.502 72.2712 344.746L73.2974 348.612C77.6732 347.45 85.5602 345.658 89.9312 344.028L88.5334 340.28ZM74.7804 346.804C75.4734 335.698 76.2594 321.346 76.7742 309.188L72.7776 309.018C72.2642 321.144 71.4798 335.47 70.7882 346.554L74.7804 346.804ZM76.7734 309.204C76.9766 305.134 76.6744 302.022 76.2252 299.386L72.282 300.058C72.688 302.442 72.9654 305.258 72.7784 309.004L76.7734 309.204ZM76.2252 299.386C75.5706 295.546 74.3656 292.638 72.207 289.692L68.9806 292.058C70.748 294.47 71.7246 296.788 72.282 300.058L76.2252 299.386ZM71.2926 292.75C75.5058 291.178 83.764 288.722 85.878 288.362L85.206 284.42C82.7184 284.844 74.1814 287.402 69.8948 289.002L71.2926 292.75ZM85.878 288.362C92.939 287.16 98.995 287.35 103.506 289.418C107.862 291.416 111.075 295.3 112.265 302.286L116.208 301.614C114.832 293.538 110.915 288.414 105.173 285.782C99.5858 283.222 92.5774 283.164 85.206 284.42L85.878 288.362ZM112.265 302.286L112.515 303.75L116.458 303.078L116.208 301.614L112.265 302.286ZM222.296 399.98L221.768 398.052L221.736 398.06L221.706 398.07L222.296 399.98ZM200.576 393.78L202.01 392.386L202.006 392.382L200.576 393.78ZM196.209 382.04L198.193 381.788L198.192 381.78L196.209 382.04ZM214.354 364.742L215.314 366.498L215.332 366.488L214.354 364.742ZM253.764 314.334L251.788 314.642L251.79 314.656L251.792 314.67L253.764 314.334ZM178.095 331.318L179.774 332.406L179.799 332.366L179.822 332.326L178.095 331.318ZM167.122 393.238L169.075 392.808L167.122 393.238ZM243.98 405.972L242.9 404.288L242.876 404.304L242.85 404.32L243.98 405.972ZM257.742 392.004L259.486 392.982L259.494 392.968L259.502 392.954L257.742 392.004ZM256.182 375.266L257.738 374.008L256.112 371.994L254.574 374.078L256.182 375.266ZM196.365 357.692L198.361 357.816V357.814L196.365 357.692ZM226.524 325.002L228.512 325.222L226.524 325.002ZM210.952 349.826L212.184 351.4L212.192 351.394L210.952 349.826ZM195.877 367.462L193.879 367.376L193.111 385.502L197.809 367.978L195.877 367.462ZM221.706 398.07C214.766 400.214 207.316 397.846 202.01 392.386L199.142 395.174C205.322 401.532 214.286 404.548 222.886 401.892L221.706 398.07ZM202.006 392.382C200.14 390.474 198.828 386.754 198.193 381.788L194.225 382.294C194.882 387.438 196.321 392.29 199.147 395.178L202.006 392.382ZM198.192 381.78C198.115 381.194 198.384 380.18 199.47 378.692C200.51 377.268 202.072 375.72 203.932 374.164C207.642 371.062 212.24 368.176 215.314 366.498L213.396 362.988C210.168 364.752 205.334 367.778 201.366 371.096C199.388 372.75 197.551 374.538 196.24 376.334C194.976 378.064 193.944 380.15 194.226 382.3L198.192 381.78ZM215.332 366.488C228.794 358.95 239.476 349.734 246.506 340.516C253.482 331.368 257.084 321.912 255.734 313.998L251.792 314.67C252.866 320.98 250.026 329.304 243.326 338.09C236.676 346.808 226.44 355.684 213.378 362.998L215.332 366.488ZM255.74 314.028C254.57 306.496 251.37 300.79 245.834 297.466C240.372 294.184 233.012 293.456 223.994 294.994L224.666 298.936C233.216 297.48 239.468 298.308 243.774 300.894C248.01 303.438 250.742 307.914 251.788 314.642L255.74 314.028ZM223.994 294.994C204.706 298.28 187.781 310.76 176.368 330.31L179.822 332.326C190.736 313.632 206.722 301.994 224.666 298.936L223.994 294.994ZM176.417 330.23C164.36 348.836 160.34 371.792 165.169 393.67L169.075 392.808C164.472 371.954 168.312 350.094 179.774 332.406L176.417 330.23ZM165.169 393.67C167.623 404.784 173.042 412.746 181.254 417.302C189.403 421.822 199.991 422.814 212.48 420.686L211.808 416.742C199.823 418.784 190.259 417.722 183.195 413.804C176.194 409.92 171.339 403.06 169.075 392.808L165.169 393.67ZM212.48 420.686C224.464 418.644 235.222 414.384 245.108 407.622L242.85 404.32C233.46 410.744 223.248 414.794 211.808 416.742L212.48 420.686ZM245.058 407.656C251.702 403.396 256.498 398.302 259.486 392.982L255.998 391.024C253.372 395.702 249.064 400.336 242.9 404.288L245.058 407.656ZM259.502 392.954C262.836 386.78 262.056 379.356 257.738 374.008L254.626 376.522C257.946 380.636 258.538 386.322 255.982 391.052L259.502 392.954ZM254.574 374.078C245.668 386.132 235.824 394.206 221.768 398.052L222.824 401.91C237.97 397.766 248.506 389.022 257.79 376.454L254.574 374.078ZM198.361 357.814C199.177 344.44 201.304 333.954 204.524 326.64C207.752 319.308 211.898 315.534 216.596 314.732L215.924 310.79C209.326 311.914 204.346 317.12 200.864 325.028C197.372 332.956 195.198 343.974 194.368 357.57L198.361 357.814ZM216.596 314.732C219.738 314.198 221.728 315.15 222.944 316.738C224.254 318.45 224.924 321.25 224.536 324.784L228.512 325.222C228.968 321.078 228.27 317.116 226.12 314.306C223.874 311.372 220.31 310.042 215.924 310.79L216.596 314.732ZM224.536 324.784C224.132 328.452 223.328 331.974 221.23 335.714C219.12 339.472 215.638 343.57 209.712 348.258L212.192 351.394C218.404 346.48 222.286 342.004 224.718 337.672C227.16 333.318 228.072 329.23 228.512 325.222L224.536 324.784ZM209.718 348.25C202.884 353.604 196.392 357.814 193.945 366.944L197.809 367.978C199.836 360.418 204.968 357.052 212.184 351.4L209.718 348.25ZM197.875 367.546C198.003 364.518 198.125 362.084 198.214 360.406C198.259 359.568 198.296 358.92 198.321 358.48C198.334 358.262 198.344 358.094 198.351 357.984C198.354 357.928 198.356 357.886 198.358 357.858C198.359 357.844 198.36 357.834 198.36 357.826C198.36 357.824 198.36 357.82 198.361 357.818C198.361 357.816 198.361 357.816 198.361 357.816C198.361 357.816 198.361 357.816 196.365 357.692C194.368 357.568 194.368 357.568 194.368 357.568C194.368 357.57 194.368 357.57 194.368 357.57C194.368 357.572 194.368 357.576 194.368 357.58C194.367 357.586 194.367 357.598 194.366 357.612C194.364 357.642 194.361 357.686 194.358 357.742C194.351 357.856 194.341 358.026 194.328 358.248C194.302 358.694 194.265 359.348 194.22 360.194C194.13 361.884 194.007 364.334 193.879 367.376L197.875 367.546ZM332.49 324.812L330.606 324.136L330.6 324.158L332.49 324.812ZM311.666 373.13L309.682 373.38L310.478 379.7L313.436 374.058L311.666 373.13ZM297.43 304.742L295.484 305.204L295.5 305.274L295.522 305.342L297.43 304.742ZM257.228 299.97L255.908 298.466L253.734 300.374L256.288 301.734L257.228 299.97ZM271.84 327.612L273.726 326.95L273.724 326.946L271.84 327.612ZM289.8 393.86L287.824 394.168L287.828 394.194L289.8 393.86ZM291.234 404.806L289.262 405.142L289.516 406.63L291.016 406.794L291.234 404.806ZM349.416 336.994L347.58 336.202L347.578 336.206L349.416 336.994ZM331.124 275.11L330.468 273.22L326.97 274.434L329.902 276.694L331.124 275.11ZM330.6 324.158C325.724 338.262 319.262 354.342 309.894 372.2L313.436 374.058C322.914 355.99 329.452 339.72 334.38 325.464L330.6 324.158ZM313.65 372.88C313.032 367.982 312.242 363.34 311.422 358.534L307.48 359.206C308.3 364.024 309.076 368.582 309.682 373.38L313.65 372.88ZM311.422 358.534C308.39 340.74 304.074 319.192 299.338 304.142L295.522 305.342C300.172 320.118 304.452 341.442 307.48 359.206L311.422 358.534ZM299.376 304.28C297.806 297.672 295.342 292.72 291.864 289.624C288.3 286.454 283.9 285.432 279 286.266L279.672 290.21C283.556 289.548 286.68 290.366 289.206 292.612C291.818 294.938 294.008 298.986 295.484 305.204L299.376 304.28ZM279 286.266C271.198 287.596 263.386 291.902 255.908 298.466L258.548 301.472C265.674 295.216 272.83 291.376 279.672 290.21L279 286.266ZM256.288 301.734C258.328 302.82 260.292 305.15 262.52 309.564C264.73 313.944 267.042 320.046 269.954 328.28L273.724 326.946C270.82 318.736 268.432 312.402 266.092 307.764C263.768 303.16 261.336 299.89 258.168 298.204L256.288 301.734ZM269.952 328.276C278.282 351.966 285.492 379.232 287.824 394.168L291.776 393.55C289.394 378.294 282.104 350.778 273.726 326.95L269.952 328.276ZM287.828 394.194C288.12 395.91 288.348 397.86 288.57 399.796C288.788 401.698 289.002 403.612 289.262 405.142L293.206 404.47C292.968 403.074 292.768 401.29 292.544 399.34C292.324 397.422 292.084 395.364 291.772 393.524L287.828 394.194ZM291.016 406.794C292.874 407 294.61 406.69 296.034 406.448L295.362 402.506C293.858 402.762 292.666 402.952 291.454 402.818L291.016 406.794ZM296.034 406.448C308.578 404.312 318.486 396.15 327.154 384.152C335.808 372.172 343.402 356.124 351.256 337.78L347.578 336.206C339.726 354.548 332.28 370.226 323.91 381.81C315.554 393.376 306.456 400.616 295.362 402.506L296.034 406.448ZM351.254 337.784C356.832 324.834 360.68 313.912 362.94 305.058C365.188 296.258 365.92 289.308 365.082 284.39L361.138 285.062C361.834 289.138 361.272 295.428 359.064 304.068C356.872 312.656 353.106 323.37 347.58 336.202L351.254 337.784ZM365.082 284.39C364.048 278.322 361.444 274.084 356.686 271.924C352.144 269.864 346.024 269.896 338.42 271.192L339.092 275.134C346.546 273.864 351.642 274.03 355.032 275.568C358.206 277.008 360.248 279.834 361.138 285.062L365.082 284.39ZM338.42 271.192C336.662 271.49 333.032 272.33 330.468 273.22L331.778 276.998C334.092 276.196 337.502 275.406 339.092 275.134L338.42 271.192ZM329.902 276.694C331.062 277.588 332.516 279.5 333.794 281.81C335.06 284.096 335.976 286.44 336.244 288.012L340.186 287.34C339.812 285.146 338.668 282.354 337.294 279.87C335.93 277.41 334.158 274.922 332.344 273.524L329.902 276.694ZM336.244 288.012C337.59 295.91 336.382 308.032 330.606 324.136L334.372 325.486C340.27 309.038 341.692 296.176 340.186 287.34L336.244 288.012ZM428.602 364.828L428.074 362.898L428.042 362.906L428.012 362.916L428.602 364.828ZM406.882 358.626L408.316 357.234L408.312 357.228L406.882 358.626ZM402.514 346.888L404.498 346.634V346.628L402.514 346.888ZM420.66 329.59L421.618 331.346L421.638 331.334L420.66 329.59ZM460.068 279.182L458.092 279.488L458.094 279.502L458.098 279.518L460.068 279.182ZM384.4 296.164L386.08 297.252L386.104 297.212L386.128 297.172L384.4 296.164ZM373.428 358.086L375.38 357.654L373.428 358.086ZM450.286 370.818L449.206 369.134L449.18 369.15L449.156 369.168L450.286 370.818ZM464.048 356.85L465.792 357.83L465.8 357.816L465.808 357.8L464.048 356.85ZM462.488 340.112L464.044 338.856L462.418 336.842L460.878 338.924L462.488 340.112ZM402.67 322.538L404.666 322.664V322.66L402.67 322.538ZM432.83 289.85L434.818 290.068L432.83 289.85ZM417.258 314.672L418.49 316.248L418.498 316.24L417.258 314.672ZM402.182 332.308L400.184 332.224L399.416 350.348L404.114 332.826L402.182 332.308ZM428.012 362.916C421.072 365.06 413.622 362.692 408.316 357.234L405.448 360.02C411.626 366.38 420.592 369.394 429.192 366.738L428.012 362.916ZM408.312 357.228C406.446 355.322 405.134 351.602 404.498 346.634L400.53 347.14C401.188 352.284 402.626 357.136 405.452 360.026L408.312 357.228ZM404.498 346.628C404.42 346.04 404.69 345.026 405.776 343.538C406.816 342.116 408.378 340.566 410.238 339.01C413.948 335.908 418.546 333.022 421.618 331.344L419.702 327.834C416.472 329.598 411.64 332.624 407.672 335.942C405.694 337.596 403.856 339.384 402.546 341.18C401.282 342.91 400.25 344.998 400.532 347.148L404.498 346.628ZM421.638 331.334C435.1 323.798 445.78 314.58 452.812 305.362C459.788 296.214 463.39 286.76 462.04 278.846L458.098 279.518C459.172 285.826 456.332 294.15 449.63 302.938C442.982 311.654 432.746 320.53 419.684 327.844L421.638 331.334ZM462.046 278.874C460.876 271.344 457.676 265.636 452.14 262.312C446.678 259.032 439.318 258.304 430.3 259.84L430.97 263.784C439.522 262.326 445.772 263.154 450.08 265.742C454.316 268.286 457.048 272.76 458.092 279.488L462.046 278.874ZM430.3 259.84C411.012 263.126 394.086 275.606 382.674 295.156L386.128 297.172C397.042 278.48 413.028 266.84 430.97 263.784L430.3 259.84ZM382.722 295.076C370.666 313.682 366.646 336.64 371.476 358.516L375.38 357.654C370.778 336.8 374.618 314.94 386.08 297.252L382.722 295.076ZM371.476 358.516C373.928 369.63 379.348 377.592 387.56 382.148C395.708 386.668 406.296 387.66 418.784 385.532L418.112 381.59C406.128 383.632 396.564 382.568 389.5 378.65C382.5 374.766 377.644 367.906 375.38 357.654L371.476 358.516ZM418.784 385.532C430.77 383.49 441.528 379.232 451.414 372.468L449.156 369.168C439.766 375.59 429.554 379.64 418.112 381.59L418.784 385.532ZM451.364 372.502C458.008 368.244 462.804 363.148 465.792 357.83L462.304 355.87C459.678 360.548 455.37 365.184 449.206 369.134L451.364 372.502ZM465.808 357.8C469.142 351.628 468.36 344.202 464.044 338.856L460.932 341.368C464.252 345.482 464.844 351.168 462.288 355.9L465.808 357.8ZM460.878 338.924C451.974 350.98 442.13 359.052 428.074 362.898L429.13 366.756C444.276 362.612 454.812 353.868 464.096 341.3L460.878 338.924ZM404.666 322.66C405.482 309.286 407.608 298.802 410.83 291.488C414.058 284.156 418.204 280.38 422.9 279.58L422.228 275.636C415.632 276.76 410.652 281.966 407.168 289.876C403.678 297.804 401.504 308.82 400.674 322.418L404.666 322.66ZM422.9 279.58C426.044 279.044 428.034 279.996 429.25 281.584C430.56 283.296 431.23 286.098 430.842 289.63L434.818 290.068C435.274 285.924 434.576 281.962 432.426 279.154C430.18 276.218 426.616 274.888 422.228 275.636L422.9 279.58ZM430.842 289.63C430.438 293.3 429.632 296.822 427.534 300.56C425.426 304.318 421.944 308.416 416.016 313.104L418.498 316.24C424.71 311.328 428.592 306.852 431.024 302.518C433.466 298.166 434.376 294.076 434.818 290.068L430.842 289.63ZM416.024 313.098C409.188 318.45 402.698 322.662 400.25 331.79L404.114 332.826C406.142 325.264 411.274 321.898 418.49 316.248L416.024 313.098ZM404.18 332.392C404.308 329.366 404.43 326.93 404.52 325.254C404.564 324.416 404.602 323.766 404.626 323.328C404.64 323.108 404.65 322.942 404.656 322.83C404.66 322.774 404.662 322.732 404.664 322.704C404.664 322.69 404.666 322.68 404.666 322.674C404.666 322.67 404.666 322.668 404.666 322.666C404.666 322.664 404.666 322.664 404.666 322.664C404.666 322.664 404.666 322.664 402.67 322.538C400.674 322.414 400.674 322.414 400.674 322.414C400.674 322.414 400.674 322.414 400.674 322.416C400.674 322.416 400.674 322.416 400.674 322.418C400.674 322.42 400.674 322.422 400.674 322.426C400.672 322.434 400.672 322.444 400.672 322.46C400.67 322.488 400.666 322.532 400.664 322.59C400.656 322.704 400.646 322.874 400.634 323.096C400.608 323.54 400.57 324.196 400.526 325.04C400.436 326.73 400.312 329.18 400.184 332.224L404.18 332.392ZM555.398 327.724L556.912 329.03L556.988 328.944L557.052 328.848L555.398 327.724ZM545.63 337.352L546.13 339.29L546.144 339.286L545.63 337.352ZM542.108 328.052L540.116 328.222L540.12 328.26L540.124 328.298L542.108 328.052ZM545.206 296.96L543.224 296.692L543.22 296.718L545.206 296.96ZM548.108 250.836L549.97 250.108L549.964 250.09L548.108 250.836ZM522.214 247.93L522.88 249.816L522.944 249.792L523.006 249.766L522.214 247.93ZM480.166 243.686L482.148 243.426L481.93 241.76L480.25 241.688L480.166 243.686ZM479.45 277.386L481.438 277.158L481.27 275.696L479.824 275.42L479.45 277.386ZM470.494 318.3L468.774 317.28L467.364 319.654L470.062 320.252L470.494 318.3ZM487.25 311.786L488.684 313.18L488.702 313.16L488.72 313.14L487.25 311.786ZM497.504 292.39L499.388 293.064L499.396 293.038L497.504 292.39ZM502.04 273.536L501.704 271.564L500.306 271.804L500.068 273.202L502.04 273.536ZM520.162 268.726L519.53 266.83L519.468 266.85L519.406 266.874L520.162 268.726ZM521.788 274.476L519.802 274.232L519.8 274.258L521.788 274.476ZM515.692 315.764L517.674 316.034L517.68 316.002L517.682 315.968L515.692 315.764ZM513.5 345.84L515.498 345.744L515.496 345.722L515.494 345.698L513.5 345.84ZM566.32 328.662L568.236 329.232L568.238 329.224L566.32 328.662ZM553.882 326.418C551.776 328.86 549.96 331.048 548.362 332.736C547.568 333.572 546.88 334.232 546.286 334.704C545.664 335.198 545.288 335.374 545.118 335.42L546.144 339.286C547.106 339.03 548 338.452 548.776 337.834C549.58 337.194 550.416 336.382 551.266 335.486C552.95 333.708 554.884 331.382 556.912 329.03L553.882 326.418ZM545.132 335.416C545.174 335.406 545.316 335.386 545.488 335.45C545.642 335.508 545.688 335.582 545.652 335.538C545.534 335.398 545.316 334.994 545.086 334.152C544.636 332.506 544.392 330.218 544.094 327.806L540.124 328.298C540.4 330.522 540.68 333.204 541.228 335.208C541.498 336.192 541.898 337.284 542.582 338.104C542.946 338.538 543.442 338.958 544.096 339.202C544.772 339.452 545.47 339.46 546.13 339.29L545.132 335.416ZM544.102 327.88C543.794 324.292 544.16 319.834 544.824 314.592C545.154 311.984 545.552 309.224 545.966 306.312C546.38 303.404 546.806 300.356 547.19 297.202L543.22 296.718C542.842 299.83 542.418 302.844 542.006 305.748C541.594 308.646 541.19 311.444 540.856 314.088C540.188 319.352 539.768 324.176 540.116 328.222L544.102 327.88ZM547.186 297.23C547.678 293.61 548.432 289.8 549.218 285.846C550 281.912 550.814 277.84 551.394 273.792C552.552 265.73 552.84 257.464 549.97 250.108L546.244 251.562C548.728 257.93 548.566 265.346 547.436 273.224C546.872 277.146 546.082 281.11 545.296 285.066C544.514 288.998 543.734 292.93 543.224 296.692L547.186 297.23ZM549.964 250.09C548.586 246.66 546.454 244.392 543.832 243.09C541.258 241.812 538.392 241.556 535.652 241.788C530.232 242.248 524.67 244.694 521.424 246.092L523.006 249.766C526.376 248.314 531.332 246.17 535.99 245.774C538.288 245.578 540.352 245.828 542.054 246.672C543.708 247.494 545.2 248.966 546.252 251.582L549.964 250.09ZM521.548 246.044C508.912 250.5 500.128 252.766 494.056 253.608C487.894 254.464 484.912 253.794 483.504 252.892C482.306 252.124 481.91 250.944 481.9 249.166C481.896 248.264 481.994 247.35 482.088 246.364C482.172 245.468 482.274 244.376 482.148 243.426L478.182 243.946C478.238 244.366 478.2 244.992 478.106 245.986C478.02 246.888 477.894 248.036 477.9 249.186C477.912 251.516 478.464 254.412 481.344 256.258C484.016 257.97 488.238 258.454 494.606 257.57C501.064 256.674 510.138 254.31 522.88 249.816L521.548 246.044ZM480.25 241.688C478.548 241.616 476.938 242.26 475.542 243.204C474.138 244.156 472.83 245.49 471.674 247.03C469.362 250.106 467.478 254.232 466.594 258.496C465.714 262.744 465.78 267.354 467.658 271.258C469.586 275.264 473.294 278.252 479.078 279.35L479.824 275.42C475.152 274.534 472.584 272.268 471.262 269.524C469.892 266.676 469.738 263.036 470.51 259.308C471.28 255.596 472.928 252.018 474.87 249.432C475.842 248.14 476.842 247.154 477.784 246.516C478.734 245.874 479.506 245.66 480.08 245.684L480.25 241.688ZM477.464 277.614C478.328 285.166 478.214 291.576 476.878 297.816C475.54 304.056 472.96 310.228 468.774 317.28L472.214 319.322C476.558 312.004 479.338 305.424 480.788 298.654C482.24 291.88 482.338 285.016 481.438 277.158L477.464 277.614ZM470.062 320.252C477.06 321.804 483.682 318.33 488.684 313.18L485.814 310.392C481.296 315.044 476.008 317.474 470.928 316.348L470.062 320.252ZM488.72 313.14C493.006 308.488 496.748 300.438 499.388 293.062L495.622 291.716C493.012 299.01 489.484 306.406 485.778 310.432L488.72 313.14ZM499.396 293.038C502.042 285.33 503.258 278.316 504.012 273.87L500.068 273.202C499.32 277.622 498.144 284.36 495.612 291.74L499.396 293.038ZM502.376 275.508C510.676 274.094 518.97 271.372 520.918 270.578L519.406 266.874C517.732 267.558 509.72 270.2 501.704 271.564L502.376 275.508ZM520.794 270.624C521.358 270.436 521.164 270.64 520.738 270.436C520.16 270.156 520.154 269.648 520.192 269.906C520.226 270.146 520.222 270.6 520.144 271.404C520.068 272.184 519.942 273.092 519.802 274.232L523.772 274.722C523.902 273.662 524.042 272.642 524.124 271.794C524.206 270.97 524.26 270.096 524.15 269.338C524.044 268.596 523.696 267.422 522.48 266.834C521.416 266.32 520.29 266.576 519.53 266.83L520.794 270.624ZM519.8 274.258C519.552 276.502 518.244 284.774 516.878 293.584C515.522 302.316 514.114 311.552 513.704 315.56L517.682 315.968C518.08 312.09 519.466 302.986 520.83 294.196C522.182 285.486 523.516 277.056 523.776 274.694L519.8 274.258ZM513.712 315.494C512.666 323.146 510.862 337.016 511.504 345.984L515.494 345.698C514.888 337.23 516.612 323.808 517.674 316.034L513.712 315.494ZM511.502 345.938C511.86 353.382 514.39 358.754 518.774 361.916C523.11 365.042 528.846 365.702 535 364.654L534.328 360.71C528.77 361.658 524.264 360.942 521.114 358.672C518.014 356.436 515.818 352.39 515.498 345.744L511.502 345.938ZM535 364.654C541.2 363.598 548.362 358.494 554.416 352.026C560.528 345.498 565.868 337.202 568.236 329.232L564.402 328.092C562.256 335.312 557.31 343.082 551.496 349.294C545.624 355.566 539.216 359.878 534.328 360.71L535 364.654ZM568.238 329.224C569.608 324.55 570.438 320.86 570.668 318.252C570.78 316.976 570.77 315.768 570.492 314.782C570.204 313.758 569.446 312.498 567.852 312.304C566.602 312.152 565.464 312.786 564.65 313.364C563.744 314.008 562.754 314.944 561.692 316.106C559.558 318.442 556.902 321.948 553.742 326.602L557.052 328.848C560.174 324.252 562.704 320.93 564.646 318.804C565.622 317.736 566.392 317.032 566.968 316.624C567.634 316.15 567.696 316.316 567.368 316.276C566.694 316.192 566.574 315.626 566.642 315.866C566.722 316.144 566.784 316.774 566.684 317.9C566.488 320.102 565.752 323.484 564.4 328.1L568.238 329.224ZM683.172 307.674L684.804 308.83L684.83 308.794L684.856 308.754L683.172 307.674ZM674.17 316.742L674.7 318.67L674.724 318.664L674.748 318.656L674.17 316.742ZM677.364 225.582L679.186 226.404L680.108 224.358L677.97 223.676L677.364 225.582ZM645.642 231.418L644.706 233.186L646.306 234.032L647.308 232.524L645.642 231.418ZM572.768 326.702L570.79 326.996L570.794 327.018L570.798 327.038L572.768 326.702ZM602.684 351.952L603.02 353.924L603.066 353.916L603.11 353.908L602.684 351.952ZM640.746 305.002L642.744 304.948L642.486 295.316L638.89 304.256L640.746 305.002ZM627.038 305.402L625.224 304.558L625.214 304.58L627.038 305.402ZM602.736 318.152L600.764 318.488L600.774 318.544L600.788 318.6L602.736 318.152ZM643.528 254.378L645.496 254.732L645.606 254.114L645.344 253.542L643.528 254.378ZM681.54 306.518C679.87 308.876 678.514 310.782 677.188 312.232C675.872 313.67 674.738 314.482 673.592 314.826L674.748 318.656C676.878 318.014 678.598 316.616 680.138 314.932C681.67 313.258 683.178 311.124 684.804 308.83L681.54 306.518ZM673.64 314.814C674.068 314.696 674.348 314.976 674.286 314.906C674.154 314.764 673.92 314.384 673.646 313.638C673.114 312.186 672.702 310.116 672.344 308.012L668.402 308.684C668.756 310.764 669.216 313.174 669.89 315.014C670.22 315.914 670.672 316.884 671.334 317.608C672.066 318.406 673.246 319.07 674.7 318.67L673.64 314.814ZM672.344 308.012C671.02 300.236 671.296 282.982 672.666 265.894C673.346 257.394 674.292 249.012 675.422 241.976C676.564 234.87 677.862 229.342 679.186 226.404L675.54 224.76C673.974 228.234 672.612 234.244 671.472 241.342C670.322 248.51 669.366 257 668.678 265.574C667.31 282.638 666.982 300.356 668.402 308.684L672.344 308.012ZM677.97 223.676C671.16 221.506 664.442 220.59 657.556 221.762L658.228 225.706C664.312 224.67 670.364 225.45 676.756 227.488L677.97 223.676ZM657.556 221.762C651.834 222.738 647.048 225.686 643.976 230.312L647.308 232.524C649.716 228.898 653.492 226.512 658.228 225.706L657.556 221.762ZM646.578 229.65C639.9 226.116 632.222 225.65 623.81 227.082L624.482 231.026C632.384 229.68 639.08 230.206 644.706 233.186L646.578 229.65ZM623.81 227.082C606.074 230.104 591.3 245.042 581.776 263.938C572.224 282.89 567.702 306.284 570.79 326.996L574.746 326.406C571.794 306.608 576.122 284.046 585.348 265.738C594.604 247.374 608.54 233.742 624.482 231.026L623.81 227.082ZM570.798 327.038C572.286 335.776 575.104 343.366 579.956 348.41C584.924 353.576 591.794 355.838 600.72 354.316L600.048 350.374C592.242 351.704 586.764 349.72 582.838 345.638C578.798 341.436 576.174 334.778 574.74 326.366L570.798 327.038ZM600.72 354.316L603.02 353.924L602.348 349.982L600.048 350.374L600.72 354.316ZM603.11 353.908C610.558 352.286 617.6 347.238 624.15 339.194C630.708 331.144 636.888 319.952 642.602 305.75L638.89 304.256C633.264 318.244 627.264 329.038 621.048 336.67C614.828 344.308 608.51 348.64 602.26 349.998L603.11 353.908ZM638.746 305.056C638.87 309.678 639.75 317.378 640.614 322.46L644.558 321.788C643.714 316.828 642.862 309.326 642.744 304.948L638.746 305.056ZM640.614 322.46C641.946 330.268 644.824 336.034 649.172 339.56C653.564 343.12 659.146 344.146 665.316 343.094L664.644 339.152C659.31 340.06 654.978 339.116 651.692 336.452C648.36 333.752 645.794 329.038 644.558 321.788L640.614 322.46ZM665.316 343.094C669.5 342.382 673.744 340.02 677.65 336.814C681.58 333.592 685.3 329.408 688.44 324.846C691.58 320.282 694.178 315.284 695.826 310.406C697.466 305.552 698.214 300.674 697.488 296.41L693.544 297.082C694.118 300.454 693.558 304.622 692.036 309.126C690.522 313.604 688.108 318.272 685.146 322.578C682.182 326.884 678.708 330.774 675.114 333.722C671.498 336.69 667.886 338.598 664.644 339.152L665.316 343.094ZM697.488 296.41C697.38 295.78 697.194 294.892 696.68 294.188C696.38 293.78 695.952 293.406 695.372 293.194C694.81 292.988 694.264 292.994 693.814 293.07L694.486 297.014C694.452 297.02 694.26 297.046 694 296.95C693.72 296.848 693.542 296.672 693.452 296.552C693.382 296.456 693.386 296.42 693.424 296.534C693.458 296.642 693.498 296.814 693.544 297.082L697.488 296.41ZM693.814 293.07C692.812 293.242 691.88 293.794 691.062 294.436C690.21 295.1 689.306 295.998 688.348 297.094C686.43 299.288 684.148 302.452 681.488 306.594L684.856 308.754C687.47 304.68 689.63 301.706 691.36 299.726C692.224 298.736 692.944 298.04 693.524 297.586C693.812 297.362 694.042 297.216 694.218 297.124C694.304 297.078 694.37 297.052 694.416 297.034C694.462 297.018 694.486 297.014 694.486 297.014L693.814 293.07ZM625.214 304.58C622.182 311.312 619.45 316.614 616.97 320.3C615.73 322.142 614.596 323.516 613.57 324.452C612.532 325.4 611.732 325.782 611.156 325.88L611.828 329.824C613.45 329.548 614.928 328.628 616.266 327.408C617.616 326.176 618.952 324.52 620.288 322.532C622.96 318.56 625.804 313.012 628.862 306.222L625.214 304.58ZM611.156 325.88C609.62 326.142 608.546 325.754 607.588 324.674C606.494 323.442 605.496 321.23 604.686 317.704L600.788 318.6C601.642 322.324 602.826 325.336 604.596 327.328C606.5 329.474 608.972 330.31 611.828 329.824L611.156 325.88ZM604.708 317.816C602.448 304.556 603.726 287.304 607.648 273.026C609.606 265.894 612.196 259.616 615.248 254.994C618.332 250.326 621.68 247.646 625.062 247.07L624.39 243.126C619.408 243.976 615.244 247.742 611.91 252.79C608.548 257.882 605.816 264.592 603.79 271.968C599.742 286.708 598.392 304.556 600.764 318.488L604.708 317.816ZM625.062 247.07C630.964 246.064 638.442 248.106 641.71 255.214L645.344 253.542C641.088 244.284 631.458 241.922 624.39 243.126L625.062 247.07ZM641.558 254.026C639.162 267.398 633.182 287.418 625.224 304.558L628.852 306.244C636.954 288.792 643.038 268.444 645.496 254.732L641.558 254.026ZM729.912 260.968L727.918 260.808L726.682 276.206L731.798 261.63L729.912 260.968ZM732.794 180.623L730.818 180.318L730.78 180.558L730.802 180.8L732.794 180.623ZM699.1 181.198L697.842 179.643L696.394 180.814L697.458 182.342L699.1 181.198ZM703.396 192.52L705.394 192.436L705.39 192.309L705.368 192.184L703.396 192.52ZM694.698 333.476L692.736 333.086L692.256 335.51L694.726 335.476L694.698 333.476ZM726.526 318.152L724.576 317.702V317.704L726.526 318.152ZM765.97 238.896L767.952 238.628L767.946 238.594L767.94 238.56L765.97 238.896ZM765.52 269.106L763.532 268.886L763.53 268.908L765.52 269.106ZM807.372 286.082L805.722 284.95L805.71 284.966L807.372 286.082ZM793.804 219.086L795.78 218.778L795.774 218.75L793.804 219.086ZM731.904 261.128C735.076 221.614 735.274 185.925 734.786 180.445L730.802 180.8C731.258 185.921 731.086 221.324 727.918 260.808L731.904 261.128ZM734.77 180.928C734.93 179.894 734.754 178.952 734.654 178.369L730.71 179.041C730.826 179.713 730.862 180.025 730.818 180.318L734.77 180.928ZM734.654 178.369C734.022 174.654 732.23 171.842 729.534 170.164C726.876 168.509 723.592 168.109 720.214 168.684L720.886 172.628C723.572 172.17 725.802 172.552 727.418 173.559C728.998 174.542 730.24 176.271 730.71 179.041L734.654 178.369ZM720.214 168.684C713.12 169.893 705.812 173.199 697.842 179.643L700.358 182.754C707.9 176.654 714.59 173.7 720.886 172.628L720.214 168.684ZM697.458 182.342C699.646 185.482 700.776 187.781 701.278 190.728L705.22 190.056C704.582 186.311 703.112 183.456 700.74 180.055L697.458 182.342ZM701.278 190.728C701.3 190.857 701.304 191.005 701.31 191.41C701.316 191.77 701.326 192.276 701.424 192.856L705.368 192.184C705.324 191.927 705.314 191.683 705.31 191.345C705.304 191.053 705.306 190.555 705.22 190.056L701.278 190.728ZM701.398 192.603C703.418 241.02 701.5 288.96 692.736 333.086L696.66 333.866C705.506 289.326 707.424 241.048 705.394 192.436L701.398 192.603ZM694.726 335.476C701.61 335.382 707.288 335.082 711.426 334.376L710.754 330.434C706.944 331.082 701.53 331.382 694.67 331.476L694.726 335.476ZM711.426 334.376C717.064 333.416 720.936 331.756 723.622 329.004C726.29 326.27 727.528 322.714 728.474 318.6L724.576 317.704C723.668 321.654 722.626 324.298 720.76 326.21C718.91 328.106 715.992 329.542 710.754 330.434L711.426 334.376ZM728.474 318.602C734.16 294.022 740.578 273.234 746.694 258.434C749.756 251.024 752.716 245.184 755.432 241.134C756.792 239.106 758.052 237.586 759.188 236.546C760.344 235.49 761.236 235.058 761.854 234.954L761.182 231.01C759.498 231.298 757.926 232.282 756.49 233.594C755.034 234.924 753.572 236.724 752.11 238.906C749.184 243.268 746.108 249.38 742.998 256.906C736.77 271.974 730.294 292.986 724.576 317.702L728.474 318.602ZM761.854 234.954C761.902 234.946 761.954 234.936 762.094 235.03C762.276 235.154 762.534 235.416 762.818 235.882C763.392 236.82 763.812 238.142 763.998 239.232L767.94 238.56C767.698 237.138 767.148 235.292 766.23 233.794C765.372 232.39 763.706 230.58 761.182 231.01L761.854 234.954ZM763.988 239.164C764.784 245.06 765.04 255.18 763.532 268.886L767.508 269.324C769.04 255.394 768.804 244.934 767.952 238.628L763.988 239.164ZM763.53 268.908C762.162 282.714 763.588 294.93 764.604 300.902L768.548 300.23C767.57 294.488 766.188 282.646 767.51 269.302L763.53 268.908ZM764.604 300.902C765.918 308.612 768.79 314.326 773.136 317.824C777.522 321.352 783.1 322.378 789.27 321.328L788.598 317.384C783.264 318.294 778.928 317.35 775.644 314.706C772.32 312.032 769.764 307.37 768.548 300.23L764.604 300.902ZM789.27 321.328C793.506 320.606 797.786 318.226 801.72 314.998C805.678 311.752 809.414 307.546 812.564 302.968C815.714 298.39 818.316 293.386 819.97 288.518C821.614 283.678 822.368 278.822 821.65 274.608L817.708 275.28C818.272 278.596 817.708 282.736 816.182 287.232C814.664 291.702 812.242 296.38 809.268 300.702C806.294 305.024 802.804 308.936 799.184 311.906C795.542 314.892 791.894 316.822 788.598 317.384L789.27 321.328ZM821.65 274.608C821.522 273.848 821.246 272.884 820.472 272.196C819.586 271.408 818.536 271.388 817.804 271.512L818.476 275.456C818.53 275.446 818.464 275.466 818.324 275.44C818.16 275.408 817.972 275.326 817.814 275.184C817.668 275.056 817.624 274.946 817.63 274.958C817.636 274.974 817.672 275.066 817.708 275.28L821.65 274.608ZM817.804 271.512C816.734 271.694 815.796 272.272 814.982 272.95C814.154 273.638 813.306 274.558 812.414 275.646C810.634 277.822 808.464 280.952 805.722 284.95L809.02 287.212C811.794 283.168 813.86 280.196 815.508 278.18C816.332 277.176 816.996 276.478 817.54 276.024C818.1 275.56 818.394 275.47 818.476 275.456L817.804 271.512ZM805.71 284.966C804.08 287.396 802.638 289.422 801.278 290.892C799.88 292.404 798.826 293.042 798.034 293.176L798.706 297.12C800.842 296.756 802.658 295.292 804.214 293.608C805.808 291.886 807.402 289.626 809.032 287.196L805.71 284.966ZM798.034 293.176C798.414 293.112 798.58 293.36 798.43 293.196C798.25 293.002 797.986 292.574 797.69 291.83C797.11 290.37 796.65 288.31 796.298 286.246L792.356 286.918C792.716 289.038 793.232 291.438 793.972 293.306C794.336 294.224 794.818 295.176 795.482 295.9C796.174 296.656 797.28 297.362 798.706 297.12L798.034 293.176ZM796.298 286.246C794.416 275.2 794.848 262.258 795.49 250.05C796.122 238.01 796.982 226.488 795.78 218.778L791.828 219.394C792.946 226.572 792.144 237.5 791.494 249.84C790.856 262.012 790.388 275.374 792.356 286.918L796.298 286.246ZM795.774 218.75C794.73 212.624 792.494 208.068 788.944 205.308C785.358 202.52 780.796 201.84 775.73 202.702L776.402 206.646C780.748 205.906 784.058 206.574 786.488 208.466C788.954 210.382 790.88 213.836 791.832 219.422L795.774 218.75ZM775.73 202.702C765.482 204.448 755.938 212.18 747.856 222.594C739.734 233.064 732.86 246.528 728.024 260.306L731.798 261.63C736.526 248.164 743.212 235.104 751.018 225.048C758.864 214.936 767.616 208.144 776.402 206.646L775.73 202.702ZM827.878 218.23L826.186 217.162L826.172 217.186L826.158 217.208L827.878 218.23ZM826.158 217.208C815.39 235.316 811.27 255.202 814.812 275.988L818.754 275.316C815.382 255.524 819.284 236.594 829.596 219.254L826.158 217.208ZM814.812 275.988C816.95 288.54 822.658 298.13 831.002 304.044C839.344 309.958 850.098 312.04 862.026 310.006L861.354 306.064C850.272 307.952 840.64 305.974 833.316 300.782C825.992 295.59 820.75 287.028 818.754 275.316L814.812 275.988ZM862.026 310.006C881.372 306.71 897.072 293.414 907.046 276.094C917.02 258.772 921.392 237.236 917.958 217.088L914.016 217.76C917.282 236.932 913.12 257.53 903.58 274.098C894.038 290.666 879.238 303.016 861.354 306.064L862.026 310.006ZM917.958 217.088C915.904 205.024 910.192 195.858 901.86 190.246C893.542 184.645 882.832 182.731 871.03 184.742L871.702 188.685C882.698 186.812 892.32 188.644 899.626 193.564C906.916 198.474 912.114 206.604 914.016 217.76L917.958 217.088ZM871.03 184.742C852.136 187.962 836.914 200.174 826.186 217.162L829.568 219.298C839.858 203.004 854.202 191.667 871.702 188.685L871.03 184.742ZM882.85 223.07C884.856 234.838 884.6 251.032 881.58 264.626C880.068 271.422 877.894 277.444 875.056 281.908C872.218 286.376 868.864 289.072 865.026 289.726L865.698 293.668C871.066 292.754 875.258 289.05 878.432 284.054C881.61 279.052 883.918 272.538 885.484 265.494C888.616 251.402 888.886 234.684 886.794 222.398L882.85 223.07ZM865.026 289.726C860.734 290.456 857.606 289.084 855.204 286.196C852.69 283.174 850.922 278.408 849.894 272.378L845.952 273.05C847.026 279.362 848.958 284.942 852.128 288.754C855.412 292.7 859.952 294.648 865.698 293.668L865.026 289.726ZM849.894 272.378C847.89 260.614 848.178 244.308 851.258 230.596C852.8 223.74 855.01 217.658 857.89 213.144C860.772 208.626 864.174 205.896 868.064 205.232L867.392 201.29C861.974 202.212 857.736 205.95 854.518 210.994C851.298 216.042 848.952 222.614 847.356 229.718C844.164 243.926 843.856 260.76 845.952 273.05L849.894 272.378ZM868.064 205.232C870.254 204.86 872.062 205.076 873.582 205.698C875.108 206.322 876.468 207.408 877.674 208.956C880.126 212.108 881.818 217.014 882.85 223.07L886.794 222.398C885.722 216.112 883.888 210.428 880.83 206.5C879.28 204.51 877.388 202.934 875.096 201.996C872.798 201.056 870.222 200.808 867.392 201.29L868.064 205.232ZM961.372 228.416L959.386 228.17L959.378 228.246L959.374 228.322L961.372 228.416ZM961.802 222.1L963.8 222.2L963.802 222.146V222.092L961.802 222.1ZM961.798 220.81L960.024 219.884L959.796 220.322L959.798 220.816L961.798 220.81ZM977.248 181.371L979.188 181.851L979.192 181.839L977.248 181.371ZM981.634 150.275L979.634 150.307L979.636 150.342V150.376L981.634 150.275ZM978.894 135.46L980.866 135.124L980.838 134.961L980.784 134.805L978.894 135.46ZM976.686 132.608L977.844 130.976L977.728 130.894L977.6 130.829L976.686 132.608ZM957.802 129.153L957.604 127.163L957.598 127.164L957.802 129.153ZM948.018 133.619L946.624 132.184L948.018 133.619ZM942.438 143.825L940.462 143.52L940.456 143.549L940.454 143.577L942.438 143.825ZM932.594 247.74L934.132 249.018L934.55 248.516L934.59 247.862L932.594 247.74ZM930.996 249.734L932.628 250.89L929.452 248.464L930.996 249.734ZM932.434 251.856L934.432 251.74L934.17 247.238L931.008 250.456L932.434 251.856ZM932.524 257.438L930.53 257.286L930.524 257.374V257.462L932.524 257.438ZM933.636 275.328L935.608 274.992L935.6 274.948L935.59 274.904L933.636 275.328ZM991.934 258.722L993.776 259.5L993.786 259.476L991.934 258.722ZM979.308 259.152L980.728 260.56L980.744 260.542L979.308 259.152ZM966.378 175.69L968.356 175.983L968.362 175.949L968.366 175.914L966.378 175.69ZM970.98 145.849L972.942 146.231L972.95 146.193L972.956 146.154L970.98 145.849ZM972.046 142.008L973.91 142.734L973.922 142.703L973.934 142.672L972.046 142.008ZM975.99 142.412L974.018 142.748L974.034 142.847L974.062 142.943L975.99 142.412ZM977.1 150.187L979.096 150.059L979.094 150.026L979.09 149.992L977.1 150.187ZM972.846 179.539L970.908 179.041L970.902 179.063L970.898 179.085L972.846 179.539ZM962.73 208.598L960.738 208.426L959.764 219.766L964.546 209.438L962.73 208.598ZM964.386 265.046C964.762 264.982 964.976 265.232 964.904 265.146C964.772 264.992 964.554 264.608 964.306 263.87C963.82 262.42 963.47 260.398 963.104 258.254L959.16 258.926C959.508 260.964 959.906 263.334 960.514 265.142C960.812 266.034 961.226 266.994 961.852 267.734C962.538 268.54 963.634 269.232 965.056 268.99L964.386 265.046ZM963.104 258.254C962.698 255.868 962.664 250.278 962.796 244.188C962.926 238.194 963.208 231.98 963.37 228.508L959.374 228.322C959.212 231.794 958.928 238.052 958.798 244.102C958.668 250.058 958.676 256.082 959.16 258.926L963.104 258.254ZM963.356 228.66C963.64 226.368 963.706 224.098 963.8 222.2L959.804 222C959.704 224.01 959.646 226.066 959.386 228.17L963.356 228.66ZM963.802 222.092L963.798 220.802L959.798 220.816L959.802 222.108L963.802 222.092ZM963.57 221.736C966.672 215.796 974.798 199.618 979.188 181.851L975.306 180.891C971.034 198.178 963.09 214.012 960.024 219.884L963.57 221.736ZM979.192 181.839C981.836 170.852 984.1 159.459 983.632 150.175L979.636 150.376C980.072 159.018 977.952 169.896 975.302 180.903L979.192 181.839ZM983.634 150.243C983.586 147.28 983.132 144.63 982.776 142.547L978.834 143.219C979.192 145.319 979.592 147.689 979.634 150.307L983.634 150.243ZM982.776 142.547C982.352 140.055 981.864 138.171 981.47 136.868C981.274 136.217 981.102 135.716 980.978 135.364C980.924 135.211 980.86 135.033 980.838 134.971C980.83 134.95 980.824 134.934 980.82 134.922C980.816 134.909 980.814 134.904 980.814 134.904C980.814 134.904 980.816 134.908 980.816 134.913C980.818 134.918 980.822 134.928 980.826 134.941C980.83 134.955 980.85 135.026 980.866 135.124L976.924 135.796C976.954 135.974 977.006 136.128 977.012 136.146C977.03 136.203 977.052 136.263 977.07 136.313C977.114 136.441 977.144 136.522 977.208 136.699C977.316 137.007 977.468 137.447 977.642 138.024C977.99 139.178 978.438 140.901 978.834 143.219L982.776 142.547ZM980.784 134.805C980.2 133.122 979.096 131.865 977.844 130.976L975.53 134.239C976.236 134.739 976.744 135.36 977.006 136.116L980.784 134.805ZM977.6 130.829C970.596 127.229 964.056 126.516 957.604 127.163L958.002 131.143C963.824 130.559 969.568 131.197 975.772 134.387L977.6 130.829ZM957.598 127.164C954.076 127.525 949.966 128.937 946.624 132.184L949.41 135.053C951.978 132.558 955.184 131.432 958.006 131.143L957.598 127.164ZM946.624 132.184C943.396 135.319 941.046 139.722 940.462 143.52L944.414 144.129C944.852 141.296 946.728 137.66 949.41 135.053L946.624 132.184ZM940.454 143.577C936.178 177.916 932.708 213.202 930.598 247.618L934.59 247.862C936.696 213.544 940.156 178.343 944.422 144.072L940.454 143.577ZM931.056 246.462C930.416 247.232 929.96 247.81 929.682 248.166C929.542 248.346 929.45 248.468 929.404 248.528C929.392 248.546 929.386 248.552 929.384 248.554C929.382 248.558 929.388 248.55 929.396 248.54C929.398 248.538 929.414 248.516 929.438 248.488C929.442 248.482 929.484 248.432 929.542 248.374C929.55 248.366 929.66 248.252 929.824 248.138C929.946 248.06 930.374 247.87 930.692 247.8C931.454 247.842 932.666 248.728 932.936 249.444C932.964 249.768 932.912 250.234 932.874 250.374C932.85 250.448 932.804 250.568 932.784 250.612C932.746 250.692 932.712 250.752 932.702 250.77C932.676 250.816 932.652 250.852 932.648 250.86C932.632 250.884 932.62 250.902 932.618 250.906C932.61 250.916 932.606 250.922 932.608 250.918C932.612 250.916 932.616 250.908 932.628 250.89L929.366 248.578C929.356 248.592 929.344 248.606 929.336 248.618C929.332 248.624 929.324 248.636 929.314 248.65C929.312 248.654 929.298 248.674 929.282 248.698C929.276 248.708 929.254 248.744 929.226 248.79C929.216 248.808 929.182 248.868 929.146 248.948C929.126 248.994 929.08 249.112 929.054 249.188C929.016 249.328 928.964 249.792 928.992 250.116C929.262 250.832 930.474 251.72 931.238 251.762C931.554 251.692 931.982 251.502 932.104 251.424C932.268 251.31 932.38 251.194 932.388 251.186C932.444 251.128 932.486 251.078 932.492 251.072C932.516 251.044 932.534 251.02 932.536 251.016C932.548 251.002 932.558 250.99 932.562 250.986C932.57 250.974 932.582 250.958 932.59 250.946C932.632 250.89 932.716 250.782 932.842 250.62C933.094 250.294 933.522 249.752 934.132 249.018L931.056 246.462ZM929.452 248.464C926.774 251.722 924.4 254.68 922.792 256.814C921.998 257.868 921.35 258.778 920.948 259.438C920.774 259.724 920.534 260.14 920.412 260.56C920.376 260.682 920.332 260.868 920.318 261.092C920.304 261.302 920.31 261.692 920.51 262.122C920.742 262.62 921.166 263.01 921.694 263.196C922.15 263.356 922.546 263.318 922.758 263.282L922.086 259.34C922.246 259.312 922.602 259.274 923.024 259.422C923.518 259.598 923.918 259.964 924.134 260.43C924.32 260.828 924.32 261.178 924.31 261.334C924.3 261.508 924.266 261.632 924.252 261.684C924.212 261.82 924.194 261.802 924.366 261.516C924.658 261.038 925.202 260.262 925.988 259.22C927.54 257.156 929.87 254.254 932.542 251.004L929.452 248.464ZM922.758 263.282C923.262 263.196 923.664 262.946 923.838 262.836C924.078 262.684 924.328 262.494 924.582 262.288C925.094 261.874 925.75 261.284 926.56 260.518C928.19 258.98 930.558 256.62 933.862 253.258L931.008 250.456C927.708 253.814 925.384 256.128 923.814 257.61C923.026 258.354 922.458 258.862 922.064 259.18C921.866 259.34 921.746 259.426 921.686 259.464C921.562 259.544 921.74 259.398 922.086 259.34L922.758 263.282ZM930.438 251.972C930.552 253.922 930.652 255.7 930.53 257.286L934.518 257.59C934.664 255.686 934.542 253.626 934.432 251.74L930.438 251.972ZM930.524 257.462C930.624 265.532 930.634 270.94 931.682 275.754L935.59 274.904C934.65 270.584 934.624 265.668 934.524 257.414L930.524 257.462ZM931.664 275.664C932.834 282.532 935.746 287.522 940.114 290.486C944.464 293.438 949.944 294.166 955.83 293.162L955.16 289.218C949.962 290.104 945.616 289.384 942.36 287.176C939.122 284.978 936.648 281.094 935.608 274.992L931.664 275.664ZM955.83 293.162C961.564 292.184 969.236 287.99 976.276 282.082C983.36 276.138 990.09 268.224 993.776 259.5L990.092 257.944C986.722 265.92 980.462 273.348 973.704 279.018C966.904 284.724 959.884 288.414 955.16 289.218L955.83 293.162ZM993.786 259.476C996.138 253.694 997.61 249.624 998.276 247.002C998.594 245.752 998.802 244.562 998.682 243.614C998.62 243.134 998.436 242.386 997.8 241.812C997.086 241.166 996.228 241.11 995.624 241.214L996.294 245.156C996.108 245.188 995.586 245.202 995.118 244.78C994.92 244.602 994.818 244.414 994.768 244.296C994.742 244.236 994.73 244.19 994.722 244.162C994.718 244.146 994.716 244.136 994.714 244.128C994.714 244.126 994.714 244.122 994.714 244.12C994.714 244.118 994.714 244.118 994.714 244.118C994.714 244.118 994.714 244.12 994.714 244.128C994.714 244.134 994.716 244.144 994.716 244.156C994.716 244.182 994.716 244.218 994.716 244.266C994.712 244.362 994.702 244.49 994.678 244.658C994.632 244.998 994.544 245.446 994.398 246.018C993.808 248.346 992.432 252.186 990.082 257.968L993.786 259.476ZM995.624 241.214C994.968 241.324 994.372 241.644 993.916 241.932C993.42 242.244 992.894 242.646 992.35 243.1C991.262 244.008 989.966 245.248 988.52 246.7C985.642 249.592 981.944 253.554 977.872 257.76L980.744 260.542C984.908 256.244 988.49 252.4 991.356 249.524C992.78 248.092 993.972 246.956 994.916 246.168C995.388 245.774 995.762 245.496 996.046 245.316C996.368 245.114 996.426 245.134 996.294 245.156L995.624 241.214ZM977.888 257.742C974.256 261.402 969.954 264.098 964.386 265.046L965.056 268.99C971.62 267.872 976.644 264.674 980.728 260.56L977.888 257.742ZM968.366 175.914C969.474 166.093 971 156.199 972.942 146.231L969.016 145.466C967.054 155.536 965.512 165.535 964.39 175.466L968.366 175.914ZM972.956 146.154C973.132 145.009 973.498 143.791 973.91 142.734L970.184 141.282C969.696 142.53 969.234 144.037 969.002 145.544L972.956 146.154ZM973.934 142.672C973.952 142.62 973.966 142.604 973.964 142.608C973.96 142.611 973.95 142.621 973.936 142.629C973.908 142.646 973.902 142.637 973.93 142.64C973.958 142.643 973.978 142.655 973.986 142.663C973.99 142.666 973.992 142.669 973.996 142.675C974 142.682 974.01 142.703 974.018 142.748L977.962 142.076C977.62 140.073 976.034 138.855 974.384 138.666C972.694 138.473 970.86 139.353 970.16 141.344L973.934 142.672ZM974.062 142.943C974.57 144.793 974.812 147.341 975.108 150.382L979.09 149.992C978.808 147.105 978.54 144.143 977.918 141.882L974.062 142.943ZM975.104 150.315C975.598 158.06 973.624 168.47 970.908 179.041L974.782 180.036C977.502 169.448 979.636 158.496 979.096 150.059L975.104 150.315ZM970.898 179.085C968.326 190.126 964.336 200.368 960.916 207.758L964.546 209.438C968.048 201.872 972.144 191.365 974.794 179.992L970.898 179.085ZM964.722 208.768C965.658 197.861 966.766 186.742 968.356 175.983L964.4 175.397C962.79 186.277 961.676 197.49 960.738 208.426L964.722 208.768ZM1003.55 118.345L1002.52 116.631L1000.79 117.669L1001.84 119.39L1003.55 118.345ZM1005.09 121.096L1003.12 121.431L1003.12 121.456L1003.13 121.481L1005.09 121.096ZM1018.32 151.988L1017.59 150.126L1017.58 150.131L1018.32 151.988ZM1036.63 131.865L1034.79 131.072L1034.79 131.076L1036.63 131.865ZM1042.29 114.542L1044.28 114.719L1044.28 114.66L1044.29 114.6L1042.29 114.542ZM1042.07 111.997L1044.04 111.661L1044.03 111.595L1044.01 111.53L1042.07 111.997ZM1044.23 245.938L1045.83 247.136L1045.87 247.08L1045.91 247.022L1044.23 245.938ZM1055.15 246.874L1057.09 247.346L1057.1 247.334L1055.15 246.874ZM1004.11 263.106L1006.05 262.644L1006.05 262.618L1006.04 262.592L1004.11 263.106ZM1002.55 228.716L1000.56 228.502L1000.56 228.518L1000.56 228.534L1002.55 228.716ZM1003.89 194.911L1001.89 194.854V194.875L1003.89 194.911ZM998.094 173.514L997.094 171.783L994.904 173.049L996.64 174.887L998.094 173.514ZM1029.29 167.122L1028.07 168.707L1029.29 167.122ZM1033.65 177.571L1035.65 177.604V177.593L1033.65 177.571ZM1033.14 188.422L1031.15 188.218L1031.14 188.236L1033.14 188.422ZM1030.22 220.558L1032.21 220.67L1032.22 220.644L1030.22 220.558ZM1030.77 106.298C1020.49 108.049 1010.74 111.692 1002.52 116.631L1004.58 120.06C1012.36 115.383 1021.64 111.911 1031.44 110.241L1030.77 106.298ZM1001.84 119.39C1002.03 119.698 1002.22 119.974 1002.39 120.204C1002.56 120.451 1002.69 120.622 1002.81 120.801C1003.04 121.144 1003.1 121.313 1003.12 121.431L1007.06 120.76C1006.9 119.833 1006.49 119.113 1006.14 118.586C1005.97 118.331 1005.78 118.071 1005.64 117.875C1005.49 117.66 1005.36 117.48 1005.25 117.301L1001.84 119.39ZM1003.13 121.481C1003.9 125.414 1003.94 130.426 1003.89 135.388C1003.84 140.194 1003.71 145.096 1004.26 148.357L1008.21 147.685C1007.73 144.879 1007.84 140.484 1007.89 135.427C1007.94 130.526 1007.92 125.108 1007.05 120.71L1003.13 121.481ZM1004.26 148.357C1004.62 150.436 1005.78 152.925 1008.38 154.296C1010.99 155.67 1014.54 155.652 1019.06 153.846L1017.58 150.131C1013.64 151.704 1011.42 151.375 1010.25 150.757C1009.07 150.137 1008.42 148.952 1008.21 147.685L1004.26 148.357ZM1019.05 153.851C1024.73 151.629 1028.14 150.388 1030.8 147.48C1032.12 146.034 1033.19 144.247 1034.35 141.912C1035.5 139.584 1036.78 136.579 1038.47 132.654L1034.79 131.076C1033.09 135.046 1031.85 137.932 1030.76 140.142C1029.67 142.346 1028.79 143.745 1027.84 144.784C1025.96 146.846 1023.61 147.77 1017.59 150.126L1019.05 153.851ZM1038.46 132.657C1042.47 123.373 1043.88 119.228 1044.28 114.719L1040.29 114.365C1039.96 118.161 1038.81 121.77 1034.79 131.072L1038.46 132.657ZM1044.29 114.6C1044.32 113.314 1044.19 112.529 1044.04 111.661L1040.1 112.333C1040.23 113.138 1040.31 113.607 1040.29 114.485L1044.29 114.6ZM1044.01 111.53C1043.46 109.223 1041.78 107.553 1039.43 106.68C1037.15 105.832 1034.21 105.711 1030.77 106.298L1031.44 110.241C1034.48 109.722 1036.65 109.914 1038.04 110.43C1039.37 110.922 1039.93 111.669 1040.12 112.463L1044.01 111.53ZM1045.91 247.022C1049.66 241.214 1052.43 237.656 1054.26 236.056C1054.7 235.668 1055.02 235.458 1055.22 235.356C1055.44 235.246 1055.38 235.334 1055.14 235.302C1054.31 235.196 1054.44 234.438 1054.6 235.346L1058.54 234.674C1058.34 233.49 1057.69 231.6 1055.65 231.336C1054.8 231.226 1054.03 231.48 1053.43 231.78C1052.82 232.088 1052.21 232.532 1051.62 233.046C1049.33 235.056 1046.29 239.052 1042.55 244.852L1045.91 247.022ZM1054.6 235.346C1054.88 236.996 1054.58 240.578 1053.2 246.416L1057.1 247.334C1058.47 241.51 1058.97 237.206 1058.54 234.674L1054.6 235.346ZM1053.21 246.404C1051.53 253.292 1047.17 260.614 1041.85 266.456C1036.48 272.35 1030.45 276.39 1025.66 277.206L1026.34 281.148C1032.43 280.11 1039.2 275.296 1044.8 269.15C1050.45 262.954 1055.22 255.052 1057.09 247.346L1053.21 246.404ZM1025.66 277.206C1020.5 278.086 1016.36 277.294 1013.2 275.032C1010.01 272.752 1007.5 268.762 1006.05 262.644L1002.16 263.568C1003.75 270.274 1006.65 275.264 1010.87 278.286C1015.13 281.326 1020.42 282.156 1026.34 281.148L1025.66 277.206ZM1006.04 262.592C1004.9 258.32 1003.05 245.102 1004.54 228.9L1000.56 228.534C999.03 245.132 1000.9 258.83 1002.17 263.618L1006.04 262.592ZM1004.54 228.932C1005.97 215.658 1005.75 202.848 1005.89 194.947L1001.89 194.875C1001.75 202.952 1001.97 215.464 1000.56 228.502L1004.54 228.932ZM1005.89 194.968C1006.02 190.47 1005.53 186.322 1004.99 183.102L1001.04 183.774C1001.56 186.829 1002.01 190.701 1001.89 194.854L1005.89 194.968ZM1004.99 183.102C1004.24 178.738 1002.45 175.209 999.548 172.141L996.64 174.887C998.996 177.382 1000.43 180.19 1001.04 183.774L1004.99 183.102ZM999.096 175.246C1005.84 171.345 1012.43 168.58 1018.6 167.529L1017.93 163.586C1011.12 164.745 1004.07 167.75 997.094 171.783L999.096 175.246ZM1018.6 167.529C1020.28 167.244 1022.1 167.086 1023.81 167.245C1025.52 167.404 1026.98 167.869 1028.07 168.707L1030.51 165.538C1028.63 164.084 1026.35 163.464 1024.18 163.262C1022.01 163.06 1019.81 163.266 1017.93 163.586L1018.6 167.529ZM1028.07 168.707C1030.42 170.52 1031.7 173.26 1031.65 177.549L1035.65 177.593C1035.71 172.394 1034.11 168.307 1030.51 165.538L1028.07 168.707ZM1031.65 177.538C1031.6 180.997 1031.54 184.371 1031.15 188.218L1035.13 188.626C1035.54 184.586 1035.6 181.053 1035.65 177.604L1031.65 177.538ZM1031.14 188.236C1030.01 200.398 1028.48 214.336 1028.22 220.474L1032.22 220.644C1032.47 214.64 1033.98 200.94 1035.13 188.607L1031.14 188.236ZM1028.22 220.448C1027.79 228.172 1028.36 240.498 1029.42 246.738L1033.36 246.066C1032.36 240.176 1031.8 228.156 1032.21 220.67L1028.22 220.448ZM1029.42 246.738C1029.78 248.82 1030.24 251.226 1030.91 253.09C1031.25 254.006 1031.69 254.972 1032.33 255.71C1033.01 256.492 1034.12 257.222 1035.56 256.976L1034.89 253.032C1035.29 252.964 1035.48 253.232 1035.36 253.088C1035.19 252.902 1034.95 252.478 1034.67 251.722C1034.13 250.242 1033.72 248.168 1033.36 246.066L1029.42 246.738ZM1035.56 256.976C1036.61 256.798 1037.56 256.282 1038.38 255.68C1039.21 255.07 1040.03 254.286 1040.82 253.422C1042.41 251.706 1044.09 249.456 1045.83 247.136L1042.63 244.74C1040.86 247.106 1039.3 249.176 1037.88 250.714C1037.18 251.478 1036.56 252.056 1036.02 252.454C1035.46 252.86 1035.1 252.998 1034.89 253.032L1035.56 256.976ZM1146.75 222.442L1148.32 221.204L1146.51 218.92L1145.03 221.42L1146.75 222.442ZM1128.92 174.683L1127.07 175.442L1127.9 177.456L1129.83 176.463L1128.92 174.683ZM1145.03 221.42C1137.6 233.894 1124.69 243.328 1110.47 245.752L1111.14 249.694C1126.62 247.058 1140.49 236.86 1148.46 223.466L1145.03 221.42ZM1110.47 245.752C1105.59 246.582 1101.84 244.872 1098.94 241.47C1095.97 237.97 1093.91 232.65 1092.85 226.46L1088.91 227.132C1090.03 233.7 1092.28 239.806 1095.9 244.062C1099.6 248.416 1104.72 250.788 1111.14 249.694L1110.47 245.752ZM1092.85 226.46C1089.66 207.726 1090.4 192.351 1093.98 181.394C1097.56 170.441 1103.83 164.198 1111.63 162.87L1110.96 158.927C1101.18 160.593 1094.02 168.369 1090.18 180.152C1086.33 191.93 1085.65 208.008 1088.91 227.132L1092.85 226.46ZM1111.63 162.87C1115.45 162.22 1118.03 162.741 1120.22 164.455C1122.55 166.283 1124.7 169.669 1127.07 175.442L1130.77 173.924C1128.35 168.029 1125.88 163.81 1122.68 161.306C1119.34 158.689 1115.5 158.152 1110.96 158.927L1111.63 162.87ZM1129.83 176.463C1135.33 173.646 1140.07 170.2 1143.29 166.321C1146.52 162.435 1148.33 157.951 1147.53 153.218L1143.58 153.89C1144.13 157.105 1142.97 160.445 1140.22 163.767C1137.45 167.096 1133.2 170.24 1128.01 172.903L1129.83 176.463ZM1147.53 153.218C1147.1 150.696 1146.1 148.494 1144.46 146.706C1142.82 144.927 1140.65 143.665 1138.03 142.856C1132.86 141.258 1125.7 141.347 1116.62 142.896L1117.29 146.839C1126.19 145.322 1132.59 145.362 1136.85 146.678C1138.94 147.325 1140.45 148.26 1141.51 149.412C1142.56 150.556 1143.26 152.02 1143.58 153.89L1147.53 153.218ZM1116.62 142.896C1096.58 146.31 1079.97 159.613 1069.31 177.246C1058.64 194.879 1053.82 216.99 1057.45 238.304L1061.39 237.632C1057.93 217.322 1062.53 196.178 1072.73 179.316C1082.93 162.453 1098.63 150.018 1117.29 146.839L1116.62 142.896ZM1057.45 238.304C1059.52 250.466 1064.42 259.348 1072.33 264.558C1080.22 269.75 1090.71 271.04 1103.43 268.872L1102.76 264.93C1090.59 267.004 1081.26 265.644 1074.53 261.218C1067.84 256.81 1063.35 249.106 1061.39 237.632L1057.45 238.304ZM1103.43 268.872C1112.63 267.306 1125.3 262.274 1135.32 255.338C1140.33 251.866 1144.79 247.846 1147.8 243.442C1150.83 239.024 1152.48 234.094 1151.6 228.932L1147.66 229.604C1148.31 233.438 1147.14 237.33 1144.5 241.182C1141.86 245.046 1137.82 248.742 1133.04 252.05C1123.47 258.676 1111.34 263.468 1102.76 264.93L1103.43 268.872ZM1151.6 228.932C1151.13 226.182 1150.22 223.616 1148.32 221.204L1145.18 223.682C1146.57 225.442 1147.27 227.336 1147.66 229.604L1151.6 228.932Z" fill="#C25A5B"/>
<path d="M143.23 284.496C139.274 261.278 122.472 254.886 94.404 258.162C91.2308 258.488 88.3026 258.986 85.1652 259.52C71.3602 261.874 57.876 266.108 45.0954 271.944C39.3504 274.86 37.2944 275.426 34.8124 283.598C34.2966 285.622 34.2346 287.786 34.5554 289.668C34.7382 292.004 35.1256 293.014 35.7888 293.118C37.0438 292.904 39.7628 292.44 42.3752 291.35C43.5588 290.716 44.6186 294.41 45.1532 297.548C47.0066 308.424 42.0284 368.894 39.397 412.82C39.2328 415.646 39.6604 418.156 40.0524 420.458C41.2286 427.36 48.1236 433.718 53.5664 434.082C61.5908 434.436 78.8182 433.224 88.0216 431.656C108.52 428.162 126.244 419.762 138.334 406.078C149.382 393.864 154.774 380.032 152.59 364.692L152.412 363.646C149.49 346.494 135.878 334.822 113.376 334.136C134.398 321.084 145.499 304.126 143.23 284.496ZM121.572 372.128L121.75 373.174C123.109 382.414 121.571 391.07 116.646 398.796C111.302 406.594 103.715 411.332 92.2106 413.292C83.8084 414.508 76.5494 413.592 70.781 410.056C70.3534 407.546 69.9256 405.036 69.845 402.036C69.7224 387.42 71.1472 366.73 72.2438 351.692C73.8552 353.57 75.809 353.668 77.2732 353.418C79.574 353.026 81.6656 352.67 83.7216 352.104C85.7776 351.538 87.8694 351.182 90.0322 351.244C108.239 350.724 119.006 357.068 121.572 372.128ZM114.486 293.914C116.674 310.544 108.497 325.712 89.2324 332.654C84.9824 334.24 77.3146 335.976 72.7842 337.18C73.4766 326.084 74.2618 311.744 74.776 299.604C74.971 295.696 74.6812 292.732 74.2536 290.222C73.6476 286.666 72.5568 284.054 70.5938 281.376C74.8436 279.79 83.2412 277.282 85.542 276.89C99.9744 274.432 111.671 277.39 114.237 292.45L114.486 293.914ZM222.296 390.48C214.526 392.88 206.318 390.19 200.576 384.28C198.231 381.882 196.855 377.596 196.209 372.54C195.491 367.066 208.054 358.684 214.354 355.242C240.882 340.392 256.186 319.058 253.764 304.834C251.55 290.576 241.9 284.472 224.33 287.466C205.714 290.638 189.258 302.696 178.095 321.818C166.336 339.964 162.406 362.372 167.122 383.738C171.839 405.104 187.671 413.384 212.144 409.214C223.856 407.218 234.342 403.064 243.98 396.472C250.384 392.366 254.936 387.502 257.742 382.504C260.688 377.05 260.002 370.496 256.182 365.766C247.088 378.076 236.898 386.486 222.296 390.48ZM196.365 348.192C198.011 321.222 204.964 305.186 216.26 303.262C223.79 301.978 227.368 307.826 226.524 315.502C225.68 323.18 223.09 330.724 210.952 340.326C203.926 345.828 198.114 349.616 195.877 357.962C196.134 351.89 196.365 348.192 196.365 348.192ZM332.49 315.312C327.588 329.492 321.088 345.666 311.666 363.63C311.054 358.782 310.27 354.182 309.452 349.37C306.422 331.592 302.124 310.154 297.43 295.242C294.384 282.416 288.12 277.242 279.336 278.738C272.014 279.986 264.53 284.06 257.228 290.47C262.436 293.24 266.024 301.67 271.84 318.112C280.192 341.872 287.442 369.264 289.8 384.36C290.406 387.914 290.736 392.378 291.234 395.306C292.77 395.476 294.234 395.226 295.698 394.976C319.334 390.95 333.714 364.178 349.416 327.494C360.52 301.71 364.644 284.22 363.11 275.226C361.186 263.93 353.816 261.096 338.756 263.662C337.082 263.948 333.562 264.764 331.124 265.61C334.096 267.9 337.574 274.41 338.216 278.176C339.64 286.542 338.326 299.036 332.49 315.312ZM428.602 355.328C420.832 357.728 412.624 355.036 406.882 349.126C404.536 346.728 403.16 342.442 402.514 337.388C401.796 331.914 414.358 323.53 420.66 320.09C447.186 305.238 462.492 283.904 460.068 269.682C457.854 255.422 448.204 249.318 430.636 252.312C412.02 255.484 395.564 267.544 384.4 286.664C372.642 304.81 368.712 327.22 373.428 348.586C378.144 369.952 393.976 378.23 418.448 374.06C430.162 372.064 440.646 367.91 450.286 361.318C456.688 357.214 461.24 352.348 464.048 347.35C466.994 341.898 466.306 335.342 462.488 330.612C453.392 342.924 443.202 351.332 428.602 355.328ZM402.67 313.038C404.316 286.068 411.27 270.032 422.564 268.108C430.094 266.824 433.674 272.672 432.83 280.35C431.986 288.026 429.396 295.57 417.258 305.172C410.232 310.674 404.42 314.462 402.182 322.808C402.44 316.738 402.67 313.038 402.67 313.038ZM555.398 318.224C551.264 323.018 547.896 327.252 545.63 327.852C543.156 328.49 542.684 323.19 542.108 318.552C541.454 310.914 543.68 299.988 545.206 287.46C547.21 272.698 553.46 255.06 548.108 241.336C543.25 229.248 528.832 235.58 522.214 238.43C471.456 256.334 480.884 239.66 480.166 234.186C471.06 233.8 458.542 263.914 479.45 267.886C481.216 283.298 479.024 294.432 470.494 308.8C476.534 310.138 482.488 307.186 487.25 302.286C491.246 297.946 494.88 290.224 497.504 282.89C500.094 275.346 501.29 268.47 502.04 264.036C510.198 262.646 518.35 259.966 520.162 259.226C522.81 258.344 522.33 260.58 521.788 264.976C521.28 269.582 516.502 298.378 515.692 306.264C514.64 313.978 512.876 327.622 513.5 336.34C514.178 350.43 522.952 355.178 534.664 353.182C545.75 351.294 561.804 334.352 566.32 319.162C571.764 300.584 567.958 299.726 555.398 318.224ZM683.172 298.174C679.876 302.826 677.446 306.252 674.17 307.242C672.114 307.808 671.086 303.032 670.372 298.848C667.628 282.742 671.584 228.906 677.364 216.082C670.762 213.978 664.376 213.13 657.892 214.234C652.664 215.126 648.382 217.792 645.642 221.918C639.49 218.662 632.302 218.164 624.146 219.554C590.47 225.292 566.726 276.69 572.768 317.202C575.692 334.354 583.65 345.696 600.384 342.844L602.684 342.452C616.382 339.474 629.406 323.694 640.746 295.502C640.866 300.002 641.732 307.604 642.586 312.624C645.152 327.684 653.476 333.584 664.98 331.622C679.83 329.092 698.118 302.516 695.516 287.246C695.302 285.992 694.986 285.4 694.15 285.542C692.058 285.898 688.444 289.958 683.172 298.174ZM627.038 295.902C620.948 309.422 615.884 317.604 611.492 318.352C607.1 319.1 604.402 315.902 602.736 308.652C598.104 281.46 607.994 238.45 624.726 235.598C631.21 234.494 639.764 236.694 643.528 244.878C641.1 258.422 635.068 278.606 627.038 295.902ZM729.912 251.468C733.082 211.97 733.266 176.423 732.794 171.123C732.896 170.46 732.79 169.832 732.682 169.205C731.578 162.721 726.614 160.122 720.55 161.156C713.856 162.296 706.856 165.426 699.1 171.698C701.378 174.969 702.678 177.546 703.25 180.892C703.356 181.52 703.254 182.183 703.396 183.02C705.422 231.534 703.502 279.644 694.698 323.976C701.57 323.882 707.116 323.582 711.09 322.906C721.966 321.052 724.67 316.716 726.526 308.652C737.928 259.356 752.314 225.05 761.518 223.482C764.028 223.054 765.542 226.886 765.97 229.396C766.794 235.498 767.04 245.786 765.52 259.606C764.174 273.18 765.578 285.21 766.576 291.066C769.106 305.916 777.43 311.816 788.934 309.856C803.994 307.29 822.246 280.504 819.68 265.444C819.466 264.188 818.976 263.842 818.14 263.984C815.838 264.376 812.888 268.538 807.372 276.582C804.11 281.442 801.298 285.15 798.37 285.648C796.278 286.004 795.04 281.266 794.328 277.082C790.478 254.492 796.124 224.472 793.804 209.586C791.808 197.873 785.478 193.571 776.066 195.174C757.032 198.418 739.474 224.224 729.912 251.468ZM827.878 208.73C817.338 226.454 813.326 245.864 816.784 266.152C820.918 290.416 838.682 302.456 861.69 298.536C898.922 292.192 922.688 247.246 915.988 207.924C912.03 184.706 894.164 173.329 871.366 177.214C853.168 180.315 838.386 192.089 827.878 208.73ZM884.822 213.234C888.92 237.288 883.77 279.06 865.362 282.196C855.322 283.908 850.026 275.554 847.922 263.214C843.824 239.16 849.112 196.933 867.728 193.761C877.768 192.051 882.718 200.892 884.822 213.234ZM964.72 257.518C962.63 257.874 961.846 253.272 961.132 249.09C960.242 243.86 961.048 225.858 961.372 218.916C961.642 216.716 961.704 214.554 961.802 212.6L961.798 211.31C964.88 205.404 972.916 189.398 977.248 171.871C979.894 160.874 982.086 149.738 981.634 140.775C981.59 137.985 981.162 135.475 980.806 133.383C979.986 128.572 978.93 126.169 978.894 125.96C978.472 124.741 977.666 123.802 976.686 123.108C970.082 119.713 963.94 119.038 957.802 119.653C954.63 119.979 950.972 121.248 948.018 124.119C945.062 126.99 942.95 131.009 942.438 134.325C938.168 168.629 934.702 203.874 932.594 238.24C931.344 239.744 930.824 240.478 930.996 240.234C925.648 246.742 921.586 251.954 922.422 251.812C923.05 251.704 925.832 249.078 932.434 242.356C932.546 244.274 932.658 246.192 932.524 247.938C932.624 256.1 932.642 261.262 933.636 265.828C935.846 278.796 944.41 283.58 955.494 281.69C965.954 279.908 984.878 265.922 991.934 249.222C996.636 237.66 997.632 233.4 995.958 233.684C993.868 234.042 987.544 241.146 979.308 249.652C975.45 253.538 970.786 256.484 964.72 257.518ZM966.378 166.19C967.494 156.314 969.028 146.367 970.98 136.349C971.184 135.023 971.598 133.661 972.046 132.508C972.772 130.447 975.634 130.821 975.99 132.912C976.556 134.968 976.81 137.723 977.1 140.687C977.616 148.778 975.562 159.459 972.846 170.039C970.234 181.245 966.192 191.62 962.73 199.097C963.668 188.176 964.778 177.009 966.378 166.19ZM1031.1 98.7692C1021.06 100.48 1011.55 104.038 1003.55 108.845C1004.14 109.82 1004.91 110.55 1005.09 111.596C1006.73 119.927 1005.2 132.455 1006.23 138.521C1006.8 141.867 1009.85 145.868 1018.32 142.488C1030.02 137.911 1029.85 138.156 1036.63 122.365C1040.64 113.071 1041.92 109.195 1042.29 105.042C1042.32 103.961 1042.21 103.333 1042.07 102.497C1041.32 99.395 1037.59 97.6644 1031.1 98.7692ZM1044.23 236.438C1051.72 224.83 1055.86 221.326 1056.57 225.51C1056.93 227.6 1056.52 231.544 1055.15 237.374C1051.61 251.968 1036.88 267.824 1026 269.676C1014.91 271.566 1007.15 266.432 1004.11 253.606C1002.9 249.076 1001.04 235.618 1002.55 219.216C1003.97 206.062 1003.75 193.4 1003.89 185.411C1004.02 181.085 1003.55 177.075 1003.01 173.938C1002.34 169.964 1000.72 166.795 998.094 164.014C1004.95 160.048 1011.78 157.163 1018.26 156.058C1021.82 155.452 1026.32 155.331 1029.29 157.622C1032.26 159.914 1033.71 163.327 1033.65 168.071C1033.6 171.525 1033.54 174.978 1033.14 178.922C1031.99 191.169 1030.47 204.988 1030.22 211.058C1029.79 218.664 1030.36 230.836 1031.39 236.902C1032.11 241.086 1033.13 245.86 1035.23 245.504C1037.74 245.076 1040.72 241.124 1044.23 236.438ZM1146.75 212.942C1139.05 225.876 1125.65 235.692 1110.8 238.222C1099.51 240.148 1093.05 230.054 1090.88 217.296C1084.43 179.437 1093.72 154.392 1111.29 151.399C1119.66 149.973 1124.14 153.515 1128.92 165.183C1139.61 159.703 1146.91 152.002 1145.55 144.054C1144.06 135.269 1134.94 132.302 1116.95 135.367C1078.26 141.961 1052.33 186.844 1059.42 228.468C1063.45 252.104 1078.2 261.642 1103.09 257.402C1120.87 254.372 1152.7 237.756 1149.63 219.768C1149.2 217.258 1148.39 215.03 1146.75 212.942Z" fill="#983B56"/>
<path d="M495.612 24.1638C525.052 24.3038 547.852 36.6438 560.652 63.4038C570.892 84.8638 567.912 104.824 554.492 124.064C537.892 147.944 516.972 170.504 497.612 192.164C495.332 194.724 492.972 197.224 490.892 199.924C486.112 206.104 483.272 205.924 479.112 198.784C474.352 190.544 469.772 182.184 465.232 173.804C455.052 154.924 444.032 136.504 434.752 117.084C419.152 84.2438 428.432 51.4438 459.612 32.6438C470.462 26.2048 483.026 23.2454 495.612 24.1638Z" stroke="#C25A5B" stroke-width="2" stroke-miterlimit="10"/>
<path d="M495.612 18.1638C525.052 18.2838 547.852 30.6438 560.652 57.4038C570.892 78.8438 567.912 100.804 554.492 120.044C537.892 144.044 516.972 164.404 497.612 186.164C495.332 188.724 492.972 191.204 490.892 193.924C486.112 200.104 483.272 199.924 479.112 192.784C474.352 184.544 469.772 176.184 465.232 167.804C455.052 148.924 444.032 130.484 434.752 111.084C419.152 78.2238 428.432 45.4438 459.612 26.6438C470.462 20.2048 483.026 17.2453 495.612 18.1638Z" fill="#983B56"/>
<path d="M347.638 180.256C345.138 154.456 366.978 129.416 390.818 126.456C398.624 125.327 406.592 126.303 413.894 129.285C421.198 132.267 427.572 137.145 432.358 143.416C446.638 161.096 457.558 181.016 469.198 200.456C473.978 208.456 472.678 209.916 463.718 211.856C447.278 215.416 430.978 219.676 414.538 223.196C387.838 228.896 370.538 226.756 355.898 207.196C349.678 198.916 346.218 189.776 347.638 180.256Z" stroke="#993B56" stroke-width="2" stroke-miterlimit="10"/>
<path d="M347.638 174.276C345.138 148.476 366.978 123.436 390.818 120.456C398.624 119.327 406.592 120.303 413.894 123.285C421.198 126.267 427.572 131.145 432.358 137.416C446.578 155.096 457.558 175.036 469.198 194.456C473.978 202.456 472.678 203.916 463.718 205.856C447.278 209.416 430.978 213.676 414.538 217.196C387.838 222.896 370.538 220.756 355.898 201.196C349.678 192.936 346.218 183.776 347.638 174.276Z" fill="#C25A5B" stroke="#B57469" stroke-miterlimit="10"/>
<path d="M543.962 223.292C539.2 222.894 534.542 221.69 530.182 219.732C521.702 215.612 512.902 212.192 504.182 208.392C499.862 206.392 498.702 202.752 501.582 199.492C511.262 188.592 520.482 177.032 532.702 168.832C547.202 159.032 559.462 165.292 568.862 177.292C576.022 186.412 578.482 196.952 571.702 207.832C565.742 217.492 558.742 223.972 543.962 223.292Z" stroke="#993B56" stroke-width="2" stroke-miterlimit="10"/>
<path d="M547.962 219.22C543.2 218.812 538.54 217.602 534.182 215.64C525.702 211.64 516.902 208.1 508.182 204.32C503.862 202.32 502.702 198.68 505.582 195.42C515.262 184.52 524.482 172.96 536.702 164.74C551.122 155.06 563.382 161.34 572.802 173.38C579.962 182.5 582.422 193.02 575.642 203.92C569.742 213.52 562.742 220 547.962 219.22Z" fill="#C25A5B" stroke="#B57469" stroke-miterlimit="10"/>
<path d="M651.226 70.088C658.572 69.6898 665.926 70.6458 672.926 72.908C681.366 75.668 682.326 79.188 679.126 87.388C672.7 104.269 662.468 119.442 649.226 131.728C640.926 139.388 631.226 144.328 620.806 148.968C602.806 156.968 584.606 154.708 566.226 153.508C558.226 152.988 554.106 146.548 556.846 139.128C566.146 113.948 581.126 93.788 605.746 81.128C620.306 73.688 635.366 70.748 651.226 70.088ZM625.226 133.408C628.576 133.053 631.786 131.871 634.566 129.968C636.886 128.068 638.266 124.668 634.966 123.468C627.306 120.648 619.366 117.468 610.966 122.088C606.426 124.628 607.546 127.348 610.966 128.928C615.614 130.736 620.378 132.233 625.226 133.408ZM600.726 109.908C600.886 115.128 602.506 116.388 607.106 113.908C614.166 110.168 614.506 102.968 616.826 96.768C617.686 94.468 618.566 92.048 615.846 90.268C613.126 88.488 611.026 90.148 609.206 91.588C603.226 96.348 601.966 103.388 600.726 109.908ZM642.546 87.728C642.426 84.428 640.726 83.048 637.426 83.068C631.146 83.068 624.426 92.028 626.166 98.248C626.316 98.9524 626.7 99.5854 627.256 100.043C627.812 100.501 628.506 100.756 629.226 100.768C632.766 100.888 642.706 91.068 642.546 87.728ZM590.706 143.828C594.466 144.248 598.006 143.008 601.566 142.228C602.296 142.082 602.96 141.706 603.46 141.156C603.96 140.605 604.27 139.908 604.346 139.168C604.396 138.8 604.372 138.426 604.272 138.068C604.174 137.71 604.002 137.376 603.77 137.086C603.538 136.796 603.25 136.557 602.924 136.381C602.596 136.206 602.236 136.1 601.866 136.068C597.866 135.248 593.866 133.408 589.666 135.088C586.666 136.288 582.886 137.088 583.446 141.088C584.006 145.088 588.066 143.428 590.706 143.828ZM647.766 103.828C643.066 103.828 633.986 109.328 635.146 111.308C637.246 114.928 641.626 115.708 645.326 115.868C646.428 115.941 647.534 115.79 648.574 115.422C649.616 115.055 650.572 114.48 651.384 113.731C652.196 112.983 652.846 112.077 653.298 111.069C653.748 110.061 653.99 108.972 654.006 107.868C654.326 103.768 649.926 104.748 647.766 103.768V103.828ZM588.746 115.008C588.626 113.928 589.226 112.208 587.686 111.368C586.146 110.528 584.946 112.028 584.146 113.068C581.346 116.728 578.606 120.428 576.146 124.268C575.632 124.965 575.372 125.817 575.408 126.683C575.444 127.549 575.776 128.376 576.346 129.028C577.666 130.408 578.966 129.228 580.246 128.608C582.882 127.463 585.106 125.542 586.624 123.102C588.142 120.663 588.882 117.818 588.746 114.948V115.008Z" stroke="#993B56" stroke-width="2" stroke-miterlimit="10"/>
<path d="M652.458 64.0812C659.804 63.7002 667.158 64.6628 674.158 66.9212C682.598 69.6612 683.558 73.2012 680.358 81.4012C673.956 98.2862 663.752 113.471 650.538 125.781C642.238 133.441 632.538 138.381 622.118 143.021C604.118 151.021 585.918 148.761 567.538 147.561C559.538 147.041 555.438 140.581 558.158 133.181C567.458 108.001 582.438 87.8412 607.058 75.1812C621.538 67.7412 636.618 64.8012 652.458 64.0812ZM626.458 127.421C629.806 127.096 633.022 125.949 635.818 124.081C638.118 122.181 639.498 118.781 636.218 117.581C628.538 114.761 620.598 111.581 612.218 116.201C607.678 118.741 608.798 121.461 612.218 123.041C616.864 124.825 621.62 126.301 626.458 127.461V127.421ZM601.978 103.961C602.138 109.181 603.738 110.441 608.338 107.961C615.398 104.221 615.738 97.0212 618.078 90.8212C618.938 88.5212 619.818 86.1012 617.078 84.3212C614.338 82.5412 612.258 84.2012 610.438 85.6412C604.418 90.4012 603.218 97.4412 601.978 103.961ZM643.778 81.7812C643.658 78.4812 641.958 77.1012 638.658 77.1212C632.378 77.1212 625.658 86.0812 627.398 92.3012C627.548 93.0188 627.944 93.6616 628.518 94.1182C629.09 94.575 629.806 94.8164 630.538 94.8012C633.998 94.9412 643.938 85.1212 643.778 81.7812ZM591.938 137.881C595.622 137.945 599.29 137.404 602.798 136.281C603.528 136.135 604.192 135.759 604.692 135.209C605.192 134.658 605.504 133.961 605.578 133.221C605.638 132.85 605.62 132.47 605.524 132.106C605.43 131.743 605.26 131.402 605.028 131.107C604.794 130.812 604.502 130.569 604.17 130.392C603.838 130.216 603.474 130.11 603.098 130.081C599.098 129.261 595.098 127.421 590.898 129.101C587.918 130.301 584.118 131.101 584.678 135.101C585.238 139.101 589.338 137.481 591.938 137.881ZM648.998 97.8812C644.298 97.8812 635.238 103.381 636.378 105.361C638.498 108.981 642.858 109.761 646.558 109.921C647.66 109.994 648.766 109.843 649.808 109.476C650.848 109.108 651.804 108.533 652.616 107.785C653.428 107.036 654.08 106.13 654.53 105.122C654.982 104.114 655.222 103.025 655.238 101.921C655.558 97.8212 651.158 98.8012 648.998 97.8212V97.8812ZM589.978 109.061C589.858 107.981 590.458 106.261 588.918 105.421C587.378 104.581 586.178 106.081 585.378 107.121C582.578 110.761 579.838 114.461 577.378 118.321C576.864 119.018 576.604 119.871 576.64 120.736C576.676 121.602 577.008 122.429 577.578 123.081C578.918 124.461 580.198 123.261 581.478 122.661C584.114 121.516 586.34 119.595 587.858 117.156C589.376 114.716 590.116 111.872 589.978 109.001V109.061Z" fill="#C25A5B" stroke="#B57469" stroke-miterlimit="10"/>
</svg>
